<svg width="1727" height="1039" viewBox="0 0 1727 1039" fill="none" xmlns="http://www.w3.org/2000/svg">
<g clip-path="url(#clip0_2_410)">
<g filter="url(#filter0_f_2_410)">
<path d="M1542 1002C1763.47 1002 1943 822.466 1943 601C1943 379.534 1763.47 200 1542 200C1320.53 200 1141 379.534 1141 601C1141 822.466 1320.53 1002 1542 1002Z" fill="#E8BF45" fill-opacity="0.41"/>
<path d="M107 609C217.457 609 307 519.457 307 409C307 298.543 217.457 209 107 209C-3.45695 209 -93 298.543 -93 409C-93 519.457 -3.45695 609 107 609Z" fill="#0065F2"/>
</g>
<path fill-rule="evenodd" clip-rule="evenodd" d="M416.886 30.6606C416.892 30.384 416.899 30.1073 416.905 29.8306C416.968 27.0613 417 24.2844 417 21.5C417 18.7156 416.968 15.9385 416.905 13.1693C416.899 12.8925 416.892 12.6159 416.886 12.3393C416.879 12.0625 416.871 11.7859 416.864 11.5093C415.949 11.5322 415.224 12.2915 415.245 13.207C415.308 15.9637 415.339 18.7282 415.339 21.5C415.339 24.2718 415.308 27.0362 415.245 29.7928C415.224 30.7084 415.949 31.4677 416.864 31.4906C416.871 31.214 416.879 30.9373 416.886 30.6606ZM416.259 44.7617C415.346 44.7013 414.556 45.3915 414.493 46.3052C414.115 51.8271 413.612 57.3145 412.986 62.7646C412.882 63.6744 413.533 64.4968 414.443 64.6032C414.475 64.3285 414.508 64.0537 414.54 63.7787C414.572 63.5039 414.604 63.229 414.636 62.954C415.264 57.4787 415.77 51.9659 416.15 46.4186C416.169 46.1426 416.187 45.8664 416.206 45.5902C416.224 45.3142 416.242 45.038 416.259 44.7617ZM412.623 77.7623C411.719 77.6181 410.869 78.2327 410.722 79.1367C409.838 84.5957 408.831 90.0133 407.703 95.3865C407.515 96.2827 408.088 97.1619 408.983 97.3519C409.041 97.0814 409.099 96.8107 409.157 96.54C409.214 96.2693 409.271 95.9986 409.328 95.7277C410.461 90.3294 411.473 84.8865 412.361 79.4021C412.406 79.1289 412.45 78.8557 412.493 78.5823C412.537 78.3091 412.58 78.0358 412.623 77.7623ZM405.952 110.287C405.066 110.06 404.162 110.593 403.932 111.479C402.546 116.83 401.04 122.132 399.416 127.383C399.145 128.258 399.634 129.186 400.508 129.458C400.591 129.194 400.674 128.93 400.756 128.666C400.838 128.402 400.92 128.138 401.002 127.873C402.634 122.598 404.148 117.271 405.54 111.895C405.609 111.628 405.678 111.36 405.747 111.091C405.816 110.823 405.884 110.555 405.952 110.287ZM396.285 142.061C395.424 141.753 394.474 142.199 394.163 143.061C392.287 148.256 390.294 153.396 388.187 158.476C387.836 159.322 388.237 160.292 389.081 160.645C389.188 160.39 389.295 160.134 389.402 159.879C389.509 159.623 389.615 159.368 389.721 159.112C391.838 154.008 393.84 148.844 395.725 143.625C395.819 143.364 395.913 143.104 396.006 142.843C396.1 142.583 396.193 142.322 396.285 142.061ZM383.707 172.799C382.878 172.411 381.891 172.768 381.501 173.597C379.152 178.592 376.691 183.524 374.12 188.39C373.693 189.2 374.001 190.203 374.81 190.632C374.94 190.388 375.07 190.144 375.2 189.9C375.33 189.655 375.459 189.411 375.589 189.166C378.171 184.277 380.643 179.322 383.004 174.303C383.121 174.053 383.239 173.802 383.356 173.552C383.473 173.301 383.59 173.05 383.707 172.799ZM368.333 202.236C367.543 201.773 366.527 202.037 366.063 202.826C363.263 207.58 360.356 212.264 357.346 216.874C356.846 217.641 357.06 218.668 357.826 219.17C357.978 218.939 358.13 218.708 358.282 218.476C358.434 218.245 358.585 218.014 358.737 217.782C361.761 213.15 364.681 208.445 367.493 203.669C367.634 203.43 367.774 203.192 367.914 202.953C368.054 202.714 368.193 202.475 368.333 202.236ZM350.306 230.127C349.562 229.593 348.527 229.762 347.991 230.505C344.767 234.979 341.441 239.375 338.019 243.691C337.449 244.408 337.569 245.451 338.285 246.021C338.458 245.805 338.63 245.589 338.803 245.372C338.975 245.156 339.148 244.939 339.319 244.722C342.758 240.387 346.099 235.97 349.338 231.476C349.5 231.251 349.662 231.027 349.823 230.802C349.984 230.577 350.145 230.352 350.306 230.127ZM329.79 256.24C329.098 255.64 328.051 255.713 327.45 256.404C323.83 260.561 320.115 264.634 316.309 268.618C315.676 269.281 315.699 270.33 316.36 270.964C316.552 270.764 316.744 270.565 316.935 270.365C317.127 270.165 317.318 269.966 317.51 269.765C321.333 265.762 325.065 261.671 328.702 257.495C328.884 257.286 329.065 257.077 329.247 256.868C329.428 256.659 329.609 256.449 329.79 256.24ZM306.964 280.36C306.33 279.699 305.281 279.676 304.619 280.309C300.634 284.115 296.561 287.83 292.404 291.45C291.713 292.051 291.64 293.098 292.24 293.79C292.449 293.609 292.659 293.428 292.868 293.247C293.077 293.065 293.286 292.884 293.495 292.702C297.671 289.065 301.762 285.333 305.765 281.51C305.966 281.318 306.165 281.127 306.365 280.935C306.565 280.744 306.764 280.552 306.964 280.36ZM282.021 302.285C281.451 301.569 280.408 301.449 279.691 302.018C275.375 305.441 270.979 308.767 266.505 311.991C265.762 312.527 265.593 313.562 266.127 314.306C266.352 314.145 266.577 313.984 266.802 313.823C267.027 313.662 267.251 313.5 267.476 313.338C271.97 310.099 276.387 306.758 280.723 303.319C280.939 303.148 281.156 302.975 281.372 302.803C281.589 302.63 281.805 302.458 282.021 302.285ZM255.17 321.826C254.668 321.06 253.641 320.846 252.874 321.346C248.264 324.356 243.58 327.263 238.826 330.063C238.037 330.527 237.773 331.543 238.236 332.333C238.475 332.193 238.714 332.054 238.953 331.914C239.192 331.774 239.43 331.634 239.669 331.493C244.445 328.681 249.15 325.761 253.782 322.737C254.014 322.585 254.245 322.434 254.476 322.282C254.708 322.13 254.939 321.978 255.17 321.826ZM226.632 338.81C226.203 338.001 225.2 337.693 224.39 338.12C219.524 340.691 214.592 343.152 209.597 345.501C208.768 345.891 208.411 346.878 208.799 347.707C209.05 347.59 209.301 347.473 209.552 347.356C209.802 347.239 210.053 347.121 210.303 347.004C215.322 344.643 220.277 342.171 225.166 339.589C225.411 339.459 225.655 339.33 225.9 339.2C226.144 339.07 226.388 338.94 226.632 338.81ZM196.645 353.081C196.292 352.237 195.322 351.836 194.476 352.187C189.396 354.294 184.256 356.287 179.061 358.163C178.199 358.474 177.753 359.424 178.061 360.285C178.322 360.193 178.583 360.1 178.843 360.006C179.104 359.913 179.364 359.819 179.625 359.725C184.844 357.84 190.008 355.838 195.112 353.721C195.368 353.615 195.623 353.509 195.879 353.402C196.134 353.295 196.39 353.188 196.645 353.081ZM165.458 364.508C165.186 363.634 164.258 363.145 163.383 363.416C158.132 365.04 152.83 366.546 147.479 367.932C146.593 368.162 146.06 369.066 146.287 369.952C146.555 369.884 146.823 369.816 147.091 369.747C147.36 369.678 147.628 369.609 147.895 369.54C153.271 368.148 158.598 366.634 163.873 365.002C164.138 364.92 164.402 364.838 164.666 364.756C164.93 364.674 165.194 364.591 165.458 364.508ZM133.352 372.983C133.162 372.088 132.283 371.515 131.387 371.703C126.013 372.831 120.596 373.838 115.137 374.722C114.233 374.869 113.618 375.719 113.762 376.623C114.036 376.58 114.309 376.537 114.582 376.493C114.856 376.45 115.129 376.406 115.402 376.361C120.887 375.473 126.329 374.461 131.728 373.328C131.999 373.271 132.269 373.214 132.54 373.157C132.811 373.099 133.081 373.041 133.352 372.983ZM100.603 378.443C100.497 377.533 99.6745 376.882 98.7646 376.986C93.3146 377.612 87.8272 378.115 82.3053 378.493C81.3916 378.556 80.7013 379.346 80.7618 380.259C81.0381 380.242 81.3142 380.224 81.5903 380.206C81.8665 380.187 82.1427 380.169 82.4187 380.15C87.966 379.77 93.4787 379.264 98.9541 378.636C99.229 378.604 99.504 378.572 99.7788 378.54C100.054 378.508 100.329 378.475 100.603 378.443ZM67.4907 380.864C67.4678 379.949 66.7085 379.224 65.793 379.245C63.0362 379.308 60.2718 379.339 57.5 379.339C54.7282 379.339 51.9638 379.308 49.2072 379.245C48.2916 379.224 47.5323 379.949 47.5094 380.864C47.786 380.871 48.0626 380.879 48.3394 380.886C48.616 380.892 48.8926 380.899 49.1694 380.905C51.9386 380.968 54.7156 381 57.5 381C60.2844 381 63.0614 380.968 65.8307 380.905C66.1075 380.899 66.3841 380.892 66.6607 380.886C66.9374 380.879 67.2141 380.871 67.4907 380.864ZM34.2383 380.259C34.2987 379.346 33.6084 378.556 32.6948 378.493C27.1729 378.115 21.6855 377.612 16.2354 376.986C15.3256 376.882 14.5032 377.533 14.3967 378.443C14.6715 378.475 14.9463 378.508 15.2212 378.54C15.496 378.572 15.771 378.604 16.046 378.636C21.5213 379.264 27.034 379.77 32.5814 380.15C32.8574 380.169 33.1335 380.187 33.4098 380.206C33.6858 380.224 33.962 380.242 34.2383 380.259ZM1.23766 376.623C1.38191 375.719 0.767325 374.869 -0.136686 374.722C-5.59572 373.838 -11.0133 372.831 -16.3865 371.703C-17.2828 371.515 -18.1619 372.088 -18.352 372.983C-18.0814 373.041 -17.8107 373.099 -17.54 373.157C-17.2693 373.214 -16.9985 373.271 -16.7277 373.328C-11.3294 374.461 -5.88651 375.473 -0.402095 376.361C-0.128958 376.406 0.14428 376.45 0.417644 376.493C0.690882 376.537 0.964222 376.58 1.23766 376.623ZM-31.287 369.952C-31.0596 369.066 -31.5926 368.162 -32.4792 367.932C-37.8299 366.546 -43.1321 365.04 -48.3826 363.416C-49.2575 363.145 -50.186 363.634 -50.4585 364.508C-50.1945 364.591 -49.9304 364.674 -49.6662 364.756C-49.402 364.838 -49.1377 364.92 -48.8733 365.002C-43.5983 366.634 -38.2713 368.148 -32.8955 369.54C-32.6276 369.609 -32.3596 369.678 -32.0915 369.747C-31.8235 369.816 -31.5553 369.884 -31.287 369.952ZM-63.0615 360.285C-62.7526 359.424 -63.1993 358.474 -64.0606 358.163C-69.256 356.287 -74.3956 354.294 -79.4762 352.187C-80.3221 351.836 -81.2921 352.237 -81.6446 353.081C-81.3895 353.188 -81.1342 353.295 -80.8788 353.402C-80.6234 353.509 -80.3679 353.615 -80.1123 353.721C-75.008 355.838 -69.8444 357.84 -64.6246 359.725C-64.3643 359.819 -64.1039 359.913 -63.8434 360.006C-63.5829 360.1 -63.3223 360.193 -63.0615 360.285ZM-93.7991 347.707C-93.4115 346.878 -93.768 345.891 -94.5968 345.501C-99.5922 343.152 -104.524 340.691 -109.39 338.12C-110.2 337.693 -111.203 338.001 -111.632 338.81C-111.388 338.94 -111.144 339.07 -110.9 339.2C-110.655 339.33 -110.411 339.459 -110.166 339.589C-105.277 342.171 -100.322 344.643 -95.3034 347.004C-95.053 347.121 -94.8024 347.239 -94.5516 347.356C-94.301 347.473 -94.0501 347.59 -93.7991 347.707ZM-123.236 332.333C-122.773 331.543 -123.037 330.527 -123.826 330.063C-128.58 327.263 -133.264 324.356 -137.874 321.346C-138.641 320.846 -139.668 321.06 -140.17 321.826C-139.939 321.978 -139.708 322.13 -139.477 322.282C-139.245 322.434 -139.014 322.585 -138.782 322.737C-134.15 325.761 -129.445 328.681 -124.669 331.493C-124.43 331.634 -124.192 331.774 -123.953 331.914C-123.714 332.054 -123.475 332.193 -123.236 332.333ZM-151.127 314.306C-150.593 313.562 -150.762 312.527 -151.505 311.991C-155.979 308.767 -160.375 305.441 -164.691 302.019C-165.408 301.449 -166.451 301.569 -167.021 302.285C-166.805 302.458 -166.589 302.63 -166.372 302.803C-166.156 302.975 -165.939 303.148 -165.723 303.319C-161.387 306.758 -156.97 310.099 -152.476 313.338C-152.251 313.5 -152.027 313.662 -151.802 313.823C-151.577 313.984 -151.352 314.145 -151.127 314.306ZM-177.24 293.79C-176.64 293.098 -176.713 292.051 -177.404 291.45C-181.561 287.83 -185.634 284.115 -189.619 280.309C-190.281 279.676 -191.33 279.699 -191.964 280.36C-191.764 280.552 -191.565 280.744 -191.365 280.935C-191.165 281.127 -190.966 281.318 -190.765 281.51C-186.762 285.333 -182.671 289.065 -178.495 292.702C-178.286 292.884 -178.077 293.065 -177.868 293.247C-177.659 293.428 -177.449 293.609 -177.24 293.79ZM-201.36 270.964C-200.699 270.33 -200.676 269.281 -201.309 268.619C-205.115 264.634 -208.83 260.561 -212.45 256.404C-213.051 255.713 -214.098 255.64 -214.79 256.24C-214.609 256.449 -214.428 256.659 -214.247 256.868C-214.065 257.077 -213.884 257.286 -213.702 257.495C-210.065 261.671 -206.333 265.762 -202.51 269.765C-202.318 269.966 -202.127 270.165 -201.935 270.365C-201.744 270.565 -201.552 270.764 -201.36 270.964ZM-223.285 246.021C-222.569 245.451 -222.449 244.408 -223.019 243.691C-226.441 239.375 -229.767 234.979 -232.991 230.505C-233.527 229.762 -234.562 229.593 -235.306 230.127C-235.145 230.352 -234.984 230.577 -234.823 230.802C-234.662 231.027 -234.5 231.251 -234.338 231.476C-231.099 235.97 -227.758 240.387 -224.319 244.723C-224.148 244.939 -223.975 245.156 -223.803 245.372C-223.63 245.589 -223.458 245.805 -223.285 246.021ZM-242.826 219.17C-242.06 218.668 -241.846 217.641 -242.346 216.874C-245.356 212.264 -248.263 207.58 -251.063 202.826C-251.527 202.037 -252.543 201.773 -253.333 202.236C-253.193 202.475 -253.054 202.714 -252.914 202.953C-252.774 203.192 -252.634 203.43 -252.493 203.669C-249.681 208.445 -246.761 213.15 -243.737 217.782C-243.585 218.014 -243.434 218.245 -243.282 218.477C-243.13 218.708 -242.978 218.939 -242.826 219.17ZM-259.81 190.632C-259.001 190.203 -258.693 189.2 -259.12 188.39C-261.691 183.524 -264.152 178.592 -266.501 173.597C-266.891 172.768 -267.878 172.411 -268.707 172.799C-268.59 173.05 -268.473 173.301 -268.356 173.552C-268.239 173.802 -268.121 174.053 -268.004 174.303C-265.644 179.322 -263.171 184.277 -260.589 189.166C-260.459 189.411 -260.33 189.655 -260.2 189.9C-260.07 190.144 -259.94 190.388 -259.81 190.632ZM-274.081 160.645C-273.237 160.292 -272.836 159.322 -273.187 158.476C-275.294 153.396 -277.287 148.256 -279.163 143.061C-279.474 142.199 -280.424 141.753 -281.286 142.061C-281.193 142.322 -281.1 142.583 -281.006 142.843C-280.913 143.104 -280.819 143.364 -280.725 143.625C-278.84 148.844 -276.838 154.008 -274.721 159.112C-274.615 159.368 -274.509 159.623 -274.402 159.879C-274.295 160.134 -274.189 160.39 -274.081 160.645ZM-285.508 129.458C-284.634 129.186 -284.145 128.258 -284.416 127.383C-286.04 122.132 -287.547 116.83 -288.932 111.479C-289.162 110.593 -290.066 110.06 -290.952 110.287C-290.884 110.555 -290.816 110.823 -290.747 111.091C-290.678 111.36 -290.609 111.628 -290.54 111.895C-289.148 117.271 -287.634 122.598 -286.002 127.873C-285.921 128.138 -285.838 128.402 -285.756 128.666C-285.674 128.93 -285.591 129.194 -285.508 129.458ZM-293.983 97.3519C-293.088 97.1619 -292.515 96.2827 -292.703 95.3865C-293.831 90.0133 -294.838 84.5957 -295.722 79.1367C-295.869 78.2327 -296.719 77.6181 -297.623 77.7623C-297.58 78.0358 -297.537 78.3091 -297.493 78.5824C-297.45 78.8557 -297.406 79.1289 -297.361 79.4021C-296.473 84.8865 -295.461 90.3294 -294.328 95.7277C-294.271 95.9986 -294.214 96.2694 -294.157 96.54C-294.099 96.8108 -294.041 97.0814 -293.983 97.3519ZM-299.443 64.6033C-298.533 64.4968 -297.882 63.6745 -297.986 62.7646C-298.612 57.3146 -299.115 51.8272 -299.493 46.3053C-299.556 45.3916 -300.346 44.7013 -301.259 44.7618C-301.242 45.0381 -301.224 45.3142 -301.206 45.5903C-301.187 45.8665 -301.169 46.1426 -301.15 46.4187C-300.77 51.966 -300.264 57.4787 -299.636 62.954C-299.604 63.229 -299.572 63.504 -299.54 63.7788C-299.508 64.0537 -299.475 64.3285 -299.443 64.6033ZM-301.864 31.4907C-300.949 31.4678 -300.224 30.7085 -300.245 29.793C-300.308 27.0362 -300.339 24.2718 -300.339 21.5C-300.339 18.7282 -300.308 15.9638 -300.245 13.2072C-300.224 12.2916 -300.949 11.5323 -301.864 11.5094C-301.871 11.786 -301.879 12.0626 -301.886 12.3394C-301.892 12.616 -301.899 12.8926 -301.905 13.1694C-301.968 15.9386 -302 18.7156 -302 21.5C-302 24.2844 -301.968 27.0614 -301.905 29.8307C-301.899 30.1075 -301.892 30.3841 -301.886 30.6607C-301.879 30.9374 -301.871 31.2141 -301.864 31.4907ZM-301.259 -1.76174C-300.346 -1.70126 -299.556 -2.39155 -299.493 -3.30522C-299.115 -8.82711 -298.612 -14.3145 -297.986 -19.7646C-297.882 -20.6744 -298.533 -21.4968 -299.443 -21.6033C-299.475 -21.3285 -299.508 -21.0537 -299.54 -20.7788C-299.572 -20.504 -299.604 -20.229 -299.636 -19.954C-300.264 -14.4787 -300.77 -8.96596 -301.15 -3.41863C-301.169 -3.1426 -301.187 -2.86645 -301.206 -2.59025C-301.224 -2.31417 -301.242 -2.038 -301.259 -1.76174ZM-297.623 -34.7623C-296.719 -34.6181 -295.869 -35.2327 -295.722 -36.1367C-294.838 -41.5957 -293.831 -47.0133 -292.703 -52.3865C-292.515 -53.2828 -293.088 -54.1619 -293.983 -54.352C-294.041 -54.0814 -294.099 -53.8107 -294.157 -53.54C-294.214 -53.2693 -294.271 -52.9985 -294.328 -52.7277C-295.461 -47.3294 -296.473 -41.8865 -297.361 -36.4021C-297.406 -36.129 -297.45 -35.8557 -297.493 -35.5824C-297.537 -35.3091 -297.58 -35.0358 -297.623 -34.7623ZM-290.952 -67.287C-290.066 -67.0596 -289.162 -67.5926 -288.932 -68.4792C-287.547 -73.8299 -286.04 -79.1321 -284.416 -84.3826C-284.145 -85.2575 -284.634 -86.186 -285.508 -86.4585C-285.591 -86.1945 -285.674 -85.9304 -285.756 -85.6662C-285.838 -85.402 -285.921 -85.1377 -286.002 -84.8733C-287.634 -79.5983 -289.148 -74.2713 -290.54 -68.8955C-290.609 -68.6276 -290.678 -68.3596 -290.747 -68.0915C-290.816 -67.8235 -290.884 -67.5553 -290.952 -67.287ZM-281.286 -99.0615C-280.424 -98.7526 -279.474 -99.1993 -279.163 -100.061C-277.287 -105.256 -275.294 -110.396 -273.187 -115.476C-272.836 -116.322 -273.237 -117.292 -274.081 -117.645C-274.188 -117.39 -274.295 -117.134 -274.402 -116.879C-274.509 -116.623 -274.615 -116.368 -274.721 -116.112C-276.838 -111.008 -278.84 -105.844 -280.725 -100.625C-280.819 -100.364 -280.913 -100.104 -281.006 -99.8434C-281.1 -99.5829 -281.193 -99.3223 -281.286 -99.0615ZM-268.707 -129.799C-267.878 -129.411 -266.891 -129.768 -266.501 -130.597C-264.152 -135.592 -261.691 -140.524 -259.12 -145.39C-258.693 -146.2 -259.001 -147.203 -259.81 -147.632C-259.94 -147.388 -260.07 -147.144 -260.2 -146.9C-260.33 -146.655 -260.459 -146.411 -260.589 -146.166C-263.171 -141.277 -265.644 -136.322 -268.004 -131.303C-268.121 -131.053 -268.239 -130.802 -268.356 -130.552C-268.473 -130.301 -268.59 -130.05 -268.707 -129.799ZM-253.333 -159.236C-252.543 -158.773 -251.527 -159.037 -251.063 -159.826C-248.263 -164.58 -245.356 -169.264 -242.346 -173.874C-241.846 -174.641 -242.06 -175.668 -242.826 -176.17C-242.978 -175.939 -243.13 -175.708 -243.282 -175.477C-243.434 -175.245 -243.585 -175.014 -243.737 -174.782C-246.761 -170.15 -249.681 -165.445 -252.493 -160.669C-252.634 -160.43 -252.774 -160.192 -252.914 -159.953C-253.054 -159.714 -253.193 -159.475 -253.333 -159.236ZM-235.306 -187.127C-234.562 -186.593 -233.527 -186.762 -232.991 -187.505C-229.767 -191.979 -226.441 -196.375 -223.019 -200.691C-222.449 -201.408 -222.569 -202.451 -223.285 -203.021C-223.458 -202.805 -223.63 -202.589 -223.803 -202.372C-223.975 -202.156 -224.148 -201.939 -224.32 -201.723C-227.758 -197.387 -231.099 -192.97 -234.338 -188.476C-234.5 -188.251 -234.662 -188.027 -234.823 -187.802C-234.984 -187.577 -235.145 -187.352 -235.306 -187.127ZM-214.79 -213.24C-214.098 -212.64 -213.051 -212.713 -212.45 -213.404C-208.83 -217.561 -205.115 -221.634 -201.309 -225.619C-200.676 -226.281 -200.699 -227.33 -201.36 -227.964C-201.552 -227.764 -201.744 -227.565 -201.935 -227.365C-202.127 -227.165 -202.318 -226.966 -202.51 -226.765C-206.333 -222.762 -210.065 -218.671 -213.702 -214.495C-213.884 -214.286 -214.065 -214.077 -214.247 -213.868C-214.428 -213.659 -214.609 -213.449 -214.79 -213.24ZM-191.964 -237.36C-191.33 -236.699 -190.281 -236.676 -189.619 -237.309C-185.634 -241.115 -181.561 -244.83 -177.404 -248.45C-176.713 -249.051 -176.64 -250.098 -177.24 -250.79C-177.449 -250.609 -177.659 -250.428 -177.868 -250.247C-178.077 -250.065 -178.286 -249.884 -178.495 -249.702C-182.671 -246.065 -186.762 -242.333 -190.765 -238.51C-190.966 -238.318 -191.165 -238.127 -191.365 -237.935C-191.565 -237.744 -191.764 -237.552 -191.964 -237.36ZM-167.021 -259.285C-166.451 -258.569 -165.408 -258.449 -164.691 -259.019C-160.375 -262.441 -155.979 -265.767 -151.505 -268.991C-150.762 -269.527 -150.593 -270.562 -151.127 -271.306C-151.352 -271.145 -151.577 -270.984 -151.802 -270.823C-152.027 -270.662 -152.251 -270.5 -152.476 -270.338C-156.97 -267.099 -161.387 -263.758 -165.723 -260.319C-165.939 -260.148 -166.156 -259.975 -166.372 -259.803C-166.589 -259.63 -166.805 -259.458 -167.021 -259.285ZM-140.17 -278.826C-139.668 -278.06 -138.641 -277.846 -137.874 -278.346C-133.264 -281.356 -128.58 -284.263 -123.826 -287.063C-123.037 -287.527 -122.773 -288.543 -123.236 -289.333C-123.475 -289.193 -123.714 -289.054 -123.953 -288.914C-124.192 -288.774 -124.43 -288.634 -124.669 -288.493C-129.445 -285.681 -134.15 -282.761 -138.782 -279.737C-139.014 -279.585 -139.245 -279.434 -139.477 -279.282C-139.708 -279.13 -139.939 -278.978 -140.17 -278.826ZM-111.632 -295.81C-111.203 -295.001 -110.2 -294.693 -109.39 -295.12C-104.524 -297.691 -99.5922 -300.152 -94.5967 -302.501C-93.768 -302.891 -93.4114 -303.878 -93.7991 -304.707C-94.0501 -304.59 -94.3009 -304.473 -94.5516 -304.356C-94.8024 -304.239 -95.0529 -304.121 -95.3034 -304.004C-100.322 -301.644 -105.277 -299.171 -110.166 -296.589C-110.411 -296.459 -110.655 -296.33 -110.9 -296.2C-111.144 -296.07 -111.388 -295.94 -111.632 -295.81ZM-81.6446 -310.081C-81.2921 -309.237 -80.3221 -308.836 -79.4762 -309.187C-74.3956 -311.294 -69.256 -313.287 -64.0606 -315.163C-63.1993 -315.474 -62.7526 -316.424 -63.0615 -317.286C-63.3223 -317.193 -63.5829 -317.1 -63.8434 -317.006C-64.1039 -316.913 -64.3643 -316.819 -64.6246 -316.725C-69.8444 -314.84 -75.008 -312.838 -80.1123 -310.721C-80.3679 -310.615 -80.6234 -310.509 -80.8788 -310.402C-81.1342 -310.295 -81.3895 -310.189 -81.6446 -310.081ZM-50.4585 -321.508C-50.186 -320.634 -49.2575 -320.145 -48.3826 -320.416C-43.1321 -322.04 -37.8299 -323.547 -32.4792 -324.932C-31.5926 -325.162 -31.0596 -326.066 -31.287 -326.952C-31.5553 -326.884 -31.8235 -326.816 -32.0915 -326.747C-32.3596 -326.678 -32.6276 -326.609 -32.8955 -326.54C-38.2713 -325.148 -43.5983 -323.634 -48.8733 -322.002C-49.1377 -321.921 -49.402 -321.838 -49.6662 -321.756C-49.9304 -321.674 -50.1945 -321.591 -50.4585 -321.508ZM-18.352 -329.983C-18.1619 -329.088 -17.2828 -328.515 -16.3865 -328.703C-11.0133 -329.831 -5.59574 -330.838 -0.136686 -331.722C0.767325 -331.869 1.38191 -332.719 1.23766 -333.623C0.964222 -333.58 0.690857 -333.537 0.417619 -333.493C0.14428 -333.45 -0.128958 -333.406 -0.402095 -333.361C-5.88654 -332.473 -11.3294 -331.461 -16.7277 -330.328C-16.9986 -330.271 -17.2693 -330.214 -17.54 -330.157C-17.8108 -330.099 -18.0815 -330.041 -18.352 -329.983ZM14.3967 -335.443C14.5032 -334.533 15.3255 -333.882 16.2353 -333.986C21.6854 -334.612 27.1728 -335.115 32.6947 -335.493C33.6084 -335.556 34.2987 -336.346 34.2382 -337.259C33.9619 -337.242 33.6858 -337.224 33.4097 -337.206C33.1335 -337.187 32.8573 -337.169 32.5813 -337.15C27.034 -336.77 21.5213 -336.264 16.0459 -335.636C15.771 -335.604 15.496 -335.572 15.2212 -335.54C14.9463 -335.508 14.6714 -335.475 14.3967 -335.443ZM47.5093 -337.864C47.5322 -336.949 48.2915 -336.224 49.207 -336.245C51.9637 -336.308 54.7282 -336.339 57.5 -336.339C60.2718 -336.339 63.0362 -336.308 65.7928 -336.245C66.7084 -336.224 67.4677 -336.949 67.4906 -337.864C67.214 -337.871 66.9373 -337.879 66.6606 -337.886C66.384 -337.892 66.1073 -337.899 65.8306 -337.905C63.0613 -337.968 60.2844 -338 57.5 -338C54.7156 -338 51.9385 -337.968 49.1693 -337.905C48.8925 -337.899 48.6159 -337.892 48.3393 -337.886C48.0625 -337.879 47.7859 -337.871 47.5093 -337.864ZM80.7617 -337.259C80.7012 -336.346 81.3915 -335.556 82.3052 -335.493C87.8271 -335.115 93.3145 -334.612 98.7646 -333.986C99.6744 -333.882 100.497 -334.533 100.603 -335.443C100.329 -335.475 100.054 -335.508 99.7787 -335.54C99.5039 -335.572 99.229 -335.604 98.954 -335.636C93.4787 -336.264 87.9659 -336.77 82.4186 -337.15C82.1426 -337.169 81.8664 -337.187 81.5902 -337.206C81.3142 -337.224 81.038 -337.242 80.7617 -337.259ZM113.762 -333.623C113.618 -332.719 114.233 -331.869 115.137 -331.722C120.596 -330.838 126.013 -329.831 131.387 -328.703C132.283 -328.515 133.162 -329.088 133.352 -329.983C133.081 -330.041 132.811 -330.099 132.54 -330.157C132.269 -330.214 131.999 -330.271 131.728 -330.328C126.329 -331.461 120.887 -332.473 115.402 -333.361C115.129 -333.406 114.856 -333.45 114.582 -333.493C114.309 -333.537 114.036 -333.58 113.762 -333.623ZM146.287 -326.952C146.06 -326.066 146.593 -325.162 147.479 -324.932C152.83 -323.547 158.132 -322.04 163.383 -320.416C164.258 -320.145 165.186 -320.634 165.458 -321.508C165.194 -321.591 164.93 -321.674 164.666 -321.756C164.402 -321.838 164.138 -321.921 163.873 -322.002C158.598 -323.634 153.271 -325.148 147.895 -326.54C147.628 -326.609 147.36 -326.678 147.091 -326.747C146.823 -326.816 146.555 -326.884 146.287 -326.952ZM178.061 -317.286C177.753 -316.424 178.199 -315.474 179.061 -315.163C184.256 -313.287 189.396 -311.294 194.476 -309.187C195.322 -308.836 196.292 -309.237 196.645 -310.081C196.39 -310.189 196.134 -310.295 195.879 -310.402C195.623 -310.509 195.368 -310.615 195.112 -310.721C190.008 -312.838 184.844 -314.84 179.625 -316.725C179.364 -316.819 179.104 -316.913 178.843 -317.006C178.583 -317.1 178.322 -317.193 178.061 -317.286ZM208.799 -304.707C208.411 -303.878 208.768 -302.891 209.597 -302.501C214.592 -300.152 219.524 -297.691 224.39 -295.12C225.2 -294.693 226.203 -295.001 226.632 -295.81C226.388 -295.94 226.144 -296.07 225.9 -296.2C225.655 -296.33 225.411 -296.459 225.166 -296.589C220.277 -299.171 215.322 -301.644 210.303 -304.004C210.053 -304.121 209.802 -304.239 209.552 -304.356C209.301 -304.473 209.05 -304.59 208.799 -304.707ZM238.236 -289.333C237.773 -288.543 238.037 -287.527 238.826 -287.063C243.58 -284.263 248.264 -281.356 252.874 -278.346C253.641 -277.846 254.668 -278.06 255.17 -278.826C254.939 -278.978 254.708 -279.13 254.477 -279.282C254.245 -279.434 254.014 -279.585 253.782 -279.737C249.15 -282.761 244.445 -285.681 239.669 -288.493C239.43 -288.634 239.192 -288.774 238.953 -288.914C238.714 -289.054 238.475 -289.193 238.236 -289.333ZM266.127 -271.306C265.593 -270.562 265.762 -269.527 266.505 -268.991C270.979 -265.767 275.375 -262.441 279.691 -259.019C280.408 -258.449 281.451 -258.569 282.021 -259.285C281.805 -259.458 281.589 -259.63 281.372 -259.803C281.156 -259.975 280.939 -260.148 280.722 -260.32C276.387 -263.758 271.97 -267.099 267.476 -270.338C267.251 -270.5 267.027 -270.662 266.802 -270.823C266.577 -270.984 266.352 -271.145 266.127 -271.306ZM292.24 -250.79C291.64 -250.098 291.713 -249.051 292.404 -248.45C296.561 -244.83 300.634 -241.115 304.618 -237.309C305.281 -236.676 306.33 -236.699 306.964 -237.36C306.764 -237.552 306.565 -237.744 306.365 -237.935C306.165 -238.127 305.966 -238.318 305.765 -238.51C301.762 -242.333 297.671 -246.065 293.495 -249.702C293.286 -249.884 293.077 -250.065 292.868 -250.247C292.659 -250.428 292.449 -250.609 292.24 -250.79ZM316.36 -227.964C315.699 -227.33 315.676 -226.281 316.309 -225.619C320.115 -221.634 323.83 -217.561 327.45 -213.404C328.051 -212.713 329.098 -212.64 329.79 -213.24C329.609 -213.449 329.428 -213.659 329.247 -213.868C329.065 -214.077 328.884 -214.286 328.702 -214.495C325.065 -218.671 321.333 -222.762 317.51 -226.765C317.318 -226.966 317.127 -227.165 316.935 -227.365C316.744 -227.565 316.552 -227.764 316.36 -227.964ZM338.285 -203.021C337.569 -202.451 337.449 -201.408 338.018 -200.691C341.441 -196.375 344.767 -191.979 347.991 -187.505C348.527 -186.762 349.562 -186.593 350.306 -187.127C350.145 -187.352 349.984 -187.577 349.823 -187.802C349.662 -188.027 349.5 -188.251 349.338 -188.476C346.099 -192.97 342.758 -197.387 339.319 -201.723C339.147 -201.939 338.975 -202.156 338.803 -202.372C338.63 -202.589 338.458 -202.805 338.285 -203.021ZM357.826 -176.17C357.06 -175.668 356.846 -174.641 357.346 -173.874C360.356 -169.264 363.263 -164.58 366.063 -159.826C366.527 -159.037 367.543 -158.773 368.333 -159.236C368.193 -159.475 368.054 -159.714 367.914 -159.953C367.774 -160.192 367.634 -160.43 367.493 -160.669C364.681 -165.445 361.761 -170.15 358.737 -174.782C358.585 -175.014 358.434 -175.245 358.282 -175.477C358.13 -175.708 357.978 -175.939 357.826 -176.17ZM374.81 -147.632C374.001 -147.203 373.693 -146.2 374.12 -145.39C376.691 -140.524 379.152 -135.592 381.501 -130.597C381.891 -129.768 382.878 -129.411 383.707 -129.799C383.59 -130.05 383.473 -130.301 383.356 -130.552C383.239 -130.802 383.121 -131.053 383.004 -131.303C380.643 -136.322 378.171 -141.277 375.589 -146.166C375.459 -146.411 375.33 -146.655 375.2 -146.9C375.07 -147.144 374.94 -147.388 374.81 -147.632ZM389.081 -117.645C388.237 -117.292 387.836 -116.322 388.187 -115.476C390.294 -110.396 392.287 -105.256 394.163 -100.061C394.474 -99.1993 395.424 -98.7526 396.285 -99.0615C396.193 -99.3223 396.1 -99.5829 396.006 -99.8434C395.913 -100.104 395.819 -100.364 395.725 -100.625C393.84 -105.844 391.838 -111.008 389.721 -116.112C389.615 -116.368 389.509 -116.623 389.402 -116.879C389.295 -117.134 389.188 -117.389 389.081 -117.645ZM400.508 -86.4585C399.634 -86.186 399.145 -85.2575 399.416 -84.3826C401.04 -79.1321 402.546 -73.8299 403.932 -68.4792C404.162 -67.5926 405.066 -67.0596 405.952 -67.287C405.884 -67.5553 405.816 -67.8235 405.747 -68.0915C405.678 -68.3596 405.609 -68.6276 405.54 -68.8955C404.148 -74.2713 402.634 -79.5983 401.002 -84.8733C400.92 -85.1377 400.838 -85.402 400.756 -85.6662C400.674 -85.9304 400.591 -86.1945 400.508 -86.4585ZM408.983 -54.352C408.088 -54.1619 407.515 -53.2828 407.703 -52.3865C408.831 -47.0133 409.838 -41.5957 410.722 -36.1367C410.869 -35.2327 411.719 -34.6181 412.623 -34.7623C412.58 -35.0358 412.537 -35.3091 412.493 -35.5824C412.45 -35.8557 412.406 -36.129 412.361 -36.4021C411.473 -41.8865 410.461 -47.3294 409.328 -52.7277C409.271 -52.9986 409.214 -53.2693 409.157 -53.54C409.099 -53.8108 409.041 -54.0814 408.983 -54.352ZM416.259 -1.76184C416.242 -2.0381 416.224 -2.31425 416.206 -2.59032C416.187 -2.86653 416.169 -3.14268 416.15 -3.41873C415.77 -8.96604 415.264 -14.4788 414.636 -19.9541C414.604 -20.2291 414.572 -20.504 414.54 -20.7788C414.508 -21.0537 414.475 -21.3286 414.443 -21.6033C413.533 -21.4968 412.882 -20.6745 412.986 -19.7647C413.612 -14.3146 414.115 -8.82719 414.493 -3.30529C414.556 -2.39163 415.346 -1.70136 416.259 -1.76184Z" fill="white" fill-opacity="0.5"/>
<path fill-rule="evenodd" clip-rule="evenodd" d="M57.4999 136.075C120.778 136.075 172.075 84.7779 172.075 21.4999C172.075 -41.7782 120.778 -93.0752 57.4999 -93.0752C-5.77818 -93.0752 -57.0752 -41.7782 -57.0752 21.4999C-57.0752 84.7779 -5.77818 136.075 57.4999 136.075ZM57.4999 219.1C166.632 219.1 255.1 130.632 255.1 21.4999C255.1 -87.6318 166.632 -176.101 57.4999 -176.101C-51.6318 -176.101 -140.101 -87.6318 -140.101 21.4999C-140.101 130.632 -51.6318 219.1 57.4999 219.1Z" fill="white" fill-opacity="0.2"/>
<path d="M273.884 806.087C275.128 810.374 276.017 814.811 276.52 819.365C275.973 819.421 275.574 819.909 275.628 820.456C275.874 822.979 276 825.537 276 828.125C276 830.713 275.874 833.271 275.628 835.794C275.574 836.341 275.973 836.829 276.52 836.885C276.017 841.439 275.128 845.876 273.884 850.163C273.358 850.006 272.803 850.304 272.643 850.831C271.141 855.774 269.162 860.51 266.758 864.985C266.497 865.47 266.678 866.073 267.16 866.336C264.964 870.303 262.437 874.062 259.615 877.575C259.189 877.228 258.563 877.29 258.213 877.715C254.956 881.667 251.318 885.295 247.355 888.542C246.93 888.89 246.866 889.517 247.211 889.944C243.692 892.755 239.927 895.272 235.953 897.459C235.692 896.976 235.089 896.794 234.603 897.054C230.123 899.446 225.383 901.417 220.436 902.911C219.91 903.07 219.611 903.625 219.766 904.152C215.478 905.388 211.04 906.273 206.486 906.772C206.43 906.226 205.942 905.827 205.395 905.88C202.872 906.125 200.313 906.25 197.725 906.25C195.137 906.25 192.579 906.125 190.056 905.88C189.508 905.827 189.021 906.226 188.965 906.772C184.411 906.273 179.973 905.388 175.684 904.152C175.84 903.625 175.541 903.07 175.014 902.911C170.067 901.417 165.327 899.446 160.847 897.054C160.362 896.794 159.759 896.976 159.497 897.459C155.524 895.272 151.759 892.755 148.239 889.944C148.585 889.517 148.521 888.89 148.095 888.541C144.132 885.295 140.494 881.667 137.238 877.715C136.888 877.29 136.261 877.228 135.835 877.575C133.014 874.062 130.487 870.303 128.291 866.336C128.773 866.073 128.953 865.47 128.693 864.985C126.289 860.51 124.309 855.774 122.808 850.831C122.648 850.304 122.093 850.006 121.566 850.163C120.323 845.876 119.434 841.439 118.931 836.885C119.478 836.829 119.876 836.341 119.823 835.794C119.577 833.271 119.451 830.713 119.451 828.125C119.451 825.537 119.577 822.979 119.823 820.456C119.876 819.909 119.478 819.421 118.931 819.365C119.434 814.811 120.323 810.374 121.566 806.087C122.093 806.244 122.648 805.946 122.808 805.419C124.309 800.476 126.289 795.74 128.693 791.265C128.953 790.78 128.773 790.177 128.291 789.914C130.487 785.947 133.014 782.188 135.835 778.675C136.261 779.022 136.888 778.96 137.238 778.535C140.494 774.583 144.132 770.955 148.095 767.709C148.521 767.36 148.585 766.733 148.239 766.306C151.759 763.495 155.524 760.978 159.497 758.791C159.759 759.274 160.362 759.456 160.847 759.196C165.327 756.804 170.067 754.833 175.014 753.339C175.541 753.18 175.84 752.625 175.684 752.098C179.973 750.862 184.411 749.977 188.965 749.478C189.021 750.024 189.508 750.423 190.056 750.37C192.579 750.125 195.137 750 197.725 750C200.313 750 202.872 750.125 205.395 750.37C205.942 750.423 206.43 750.024 206.486 749.478C211.04 749.977 215.478 750.862 219.766 752.098C219.611 752.625 219.91 753.18 220.436 753.339C225.383 754.833 230.123 756.804 234.603 759.196C235.089 759.456 235.692 759.274 235.953 758.791C239.927 760.978 243.692 763.495 247.212 766.306C246.866 766.733 246.93 767.36 247.355 767.709C251.318 770.955 254.956 774.583 258.213 778.535C258.563 778.96 259.189 779.022 259.615 778.675C262.437 782.188 264.964 785.947 267.16 789.914C266.678 790.177 266.497 790.78 266.758 791.265C269.162 795.74 271.141 800.476 272.643 805.419C272.803 805.946 273.358 806.244 273.884 806.087Z" stroke="#6D4ECB" stroke-opacity="0.13" stroke-width="2" stroke-linecap="round" stroke-linejoin="round" stroke-dasharray="15 15"/>
<path fill-rule="evenodd" clip-rule="evenodd" d="M164.047 908.284C183.505 908.284 199.28 892.54 199.28 873.118C199.28 853.696 183.505 837.951 164.047 837.951C144.588 837.951 128.813 853.696 128.813 873.118C128.813 892.54 144.588 908.284 164.047 908.284ZM164.047 960C212.121 960 251.093 921.101 251.093 873.118C251.093 825.134 212.121 786.235 164.047 786.235C115.972 786.235 77 825.134 77 873.118C77 921.101 115.972 960 164.047 960Z" fill="#6D4ECB" fill-opacity="0.13"/>
</g>
<defs>
<filter id="filter0_f_2_410" x="-593" y="-300" width="3036" height="1802" filterUnits="userSpaceOnUse" color-interpolation-filters="sRGB">
<feFlood flood-opacity="0" result="BackgroundImageFix"/>
<feBlend mode="normal" in="SourceGraphic" in2="BackgroundImageFix" result="shape"/>
<feGaussianBlur stdDeviation="250" result="effect1_foregroundBlur_2_410"/>
</filter>
<clipPath id="clip0_2_410">
<rect width="1728" height="1039" fill="white" transform="translate(-1)"/>
</clipPath>
</defs>
</svg>
