<svg width="1730" height="641" viewBox="0 0 1730 641" fill="none" xmlns="http://www.w3.org/2000/svg">
<g filter="url(#filter0_f_332_926)">
<ellipse cx="21.5" cy="-120.5" rx="347.5" ry="340.5" fill="#0065F2" fill-opacity="0.2"/>
</g>
<g filter="url(#filter1_f_332_926)">
<ellipse cx="1538.5" cy="513" rx="171.5" ry="163" fill="#FFC414"/>
</g>
<path fill-rule="evenodd" clip-rule="evenodd" d="M1758.93 416.606C1758.93 416.437 1758.94 416.267 1758.94 416.098C1758.98 414.403 1759 412.704 1759 411C1759 409.296 1758.98 407.597 1758.94 405.902C1758.94 405.733 1758.93 405.563 1758.93 405.394C1758.93 405.225 1758.92 405.055 1758.92 404.886C1758.36 404.9 1757.91 405.365 1757.93 405.925C1757.96 407.612 1757.98 409.304 1757.98 411C1757.98 412.696 1757.96 414.388 1757.93 416.075C1757.91 416.635 1758.36 417.1 1758.92 417.114C1758.92 416.945 1758.93 416.775 1758.93 416.606ZM1758.55 425.235C1757.99 425.198 1757.5 425.621 1757.47 426.18C1757.23 429.559 1756.93 432.917 1756.54 436.252C1756.48 436.809 1756.88 437.312 1757.43 437.378C1757.46 437.209 1757.47 437.041 1757.49 436.873C1757.51 436.705 1757.53 436.537 1757.55 436.368C1757.94 433.018 1758.25 429.644 1758.48 426.249C1758.49 426.08 1758.5 425.911 1758.51 425.742C1758.53 425.573 1758.54 425.404 1758.55 425.235ZM1756.32 445.43C1755.77 445.342 1755.25 445.718 1755.16 446.271C1754.62 449.612 1754 452.927 1753.31 456.216C1753.2 456.764 1753.55 457.302 1754.09 457.418C1754.13 457.253 1754.16 457.087 1754.2 456.922C1754.24 456.756 1754.27 456.59 1754.31 456.424C1755 453.121 1755.62 449.79 1756.16 446.434C1756.19 446.267 1756.22 446.099 1756.24 445.932C1756.27 445.765 1756.3 445.598 1756.32 445.43ZM1752.24 465.334C1751.7 465.195 1751.14 465.521 1751 466.064C1750.16 469.338 1749.23 472.583 1748.24 475.796C1748.07 476.331 1748.37 476.9 1748.91 477.066C1748.96 476.905 1749.01 476.743 1749.06 476.582C1749.11 476.42 1749.16 476.258 1749.21 476.096C1750.21 472.868 1751.13 469.608 1751.99 466.319C1752.03 466.155 1752.07 465.991 1752.11 465.827C1752.16 465.662 1752.2 465.498 1752.24 465.334ZM1746.32 484.779C1745.8 484.59 1745.22 484.863 1745.02 485.39C1743.88 488.57 1742.66 491.715 1741.37 494.824C1741.15 495.342 1741.4 495.935 1741.91 496.151C1741.98 495.995 1742.05 495.839 1742.11 495.682C1742.18 495.526 1742.24 495.37 1742.31 495.213C1743.6 492.09 1744.83 488.93 1745.98 485.735C1746.04 485.576 1746.1 485.417 1746.15 485.257C1746.21 485.098 1746.27 484.939 1746.32 484.779ZM1738.63 503.589C1738.12 503.352 1737.51 503.57 1737.28 504.077C1735.84 507.134 1734.33 510.153 1732.76 513.13C1732.5 513.626 1732.69 514.24 1733.18 514.502C1733.26 514.353 1733.34 514.204 1733.42 514.054C1733.5 513.904 1733.58 513.755 1733.66 513.605C1735.24 510.613 1736.75 507.581 1738.2 504.51C1738.27 504.356 1738.34 504.203 1738.41 504.05C1738.48 503.896 1738.55 503.743 1738.63 503.589ZM1729.22 521.603C1728.73 521.32 1728.11 521.482 1727.83 521.965C1726.12 524.874 1724.34 527.74 1722.49 530.561C1722.19 531.031 1722.32 531.659 1722.79 531.966C1722.88 531.825 1722.97 531.684 1723.07 531.542C1723.16 531.4 1723.25 531.259 1723.35 531.117C1725.2 528.283 1726.98 525.403 1728.7 522.48C1728.79 522.334 1728.88 522.188 1728.96 522.042C1729.05 521.896 1729.13 521.75 1729.22 521.603ZM1718.19 538.671C1717.73 538.345 1717.1 538.448 1716.77 538.903C1714.8 541.641 1712.76 544.331 1710.67 546.972C1710.32 547.411 1710.39 548.049 1710.83 548.398C1710.94 548.266 1711.04 548.134 1711.15 548.001C1711.25 547.869 1711.36 547.736 1711.46 547.603C1713.57 544.95 1715.61 542.248 1717.59 539.497C1717.69 539.36 1717.79 539.222 1717.89 539.085C1717.99 538.947 1718.09 538.809 1718.19 538.671ZM1705.63 554.652C1705.21 554.285 1704.57 554.329 1704.2 554.752C1701.98 557.296 1699.71 559.788 1697.38 562.227C1696.99 562.632 1697.01 563.274 1697.41 563.662C1697.53 563.54 1697.65 563.418 1697.76 563.296C1697.88 563.174 1698 563.051 1698.12 562.929C1700.46 560.479 1702.74 557.975 1704.97 555.419C1705.08 555.292 1705.19 555.164 1705.3 555.036C1705.41 554.908 1705.52 554.78 1705.63 554.652ZM1691.66 569.412C1691.27 569.008 1690.63 568.994 1690.23 569.381C1687.79 571.71 1685.3 573.983 1682.75 576.199C1682.33 576.567 1682.28 577.208 1682.65 577.631C1682.78 577.52 1682.91 577.409 1683.04 577.298C1683.16 577.188 1683.29 577.076 1683.42 576.965C1685.98 574.739 1688.48 572.456 1690.93 570.116C1691.05 569.999 1691.17 569.882 1691.3 569.764C1691.42 569.647 1691.54 569.53 1691.66 569.412ZM1676.4 582.829C1676.05 582.391 1675.41 582.318 1674.97 582.666C1672.33 584.761 1669.64 586.796 1666.9 588.769C1666.45 589.097 1666.34 589.731 1666.67 590.186C1666.81 590.088 1666.95 589.989 1667.08 589.89C1667.22 589.792 1667.36 589.693 1667.5 589.594C1670.25 587.611 1672.95 585.567 1675.6 583.463C1675.74 583.357 1675.87 583.252 1676 583.146C1676.13 583.041 1676.27 582.935 1676.4 582.829ZM1659.97 594.788C1659.66 594.319 1659.03 594.188 1658.56 594.494C1655.74 596.336 1652.87 598.115 1649.96 599.828C1649.48 600.113 1649.32 600.734 1649.6 601.218C1649.75 601.132 1649.9 601.047 1650.04 600.961C1650.19 600.876 1650.33 600.79 1650.48 600.704C1653.4 598.983 1656.28 597.196 1659.12 595.345C1659.26 595.253 1659.4 595.16 1659.54 595.067C1659.68 594.974 1659.83 594.881 1659.97 594.788ZM1642.5 605.181C1642.24 604.687 1641.63 604.498 1641.13 604.759C1638.15 606.332 1635.13 607.838 1632.08 609.276C1631.57 609.514 1631.35 610.118 1631.59 610.626C1631.74 610.554 1631.9 610.483 1632.05 610.411C1632.2 610.339 1632.36 610.268 1632.51 610.196C1635.58 608.751 1638.61 607.238 1641.61 605.658C1641.75 605.579 1641.9 605.5 1642.05 605.42C1642.2 605.341 1642.35 605.261 1642.5 605.181ZM1624.15 613.915C1623.94 613.398 1623.34 613.153 1622.82 613.368C1619.71 614.657 1616.57 615.877 1613.39 617.025C1612.86 617.215 1612.59 617.796 1612.78 618.324C1612.94 618.267 1613.1 618.21 1613.26 618.153C1613.42 618.096 1613.58 618.038 1613.74 617.981C1616.93 616.827 1620.09 615.602 1623.21 614.306C1623.37 614.241 1623.53 614.176 1623.68 614.111C1623.84 614.046 1623.99 613.98 1624.15 613.915ZM1605.07 620.908C1604.9 620.373 1604.33 620.074 1603.8 620.239C1600.58 621.233 1597.34 622.155 1594.06 623.003C1593.52 623.144 1593.2 623.697 1593.33 624.239C1593.5 624.198 1593.66 624.156 1593.83 624.114C1593.99 624.072 1594.15 624.029 1594.32 623.987C1597.61 623.135 1600.87 622.209 1604.1 621.21C1604.26 621.16 1604.42 621.11 1604.58 621.059C1604.74 621.009 1604.9 620.958 1605.07 620.908ZM1585.42 626.094C1585.3 625.546 1584.76 625.196 1584.22 625.311C1580.93 626.001 1577.61 626.617 1574.27 627.158C1573.72 627.248 1573.34 627.768 1573.43 628.322C1573.6 628.295 1573.76 628.269 1573.93 628.242C1574.1 628.215 1574.27 628.189 1574.43 628.161C1577.79 627.618 1581.12 626.999 1584.42 626.305C1584.59 626.27 1584.76 626.235 1584.92 626.2C1585.09 626.165 1585.25 626.13 1585.42 626.094ZM1565.38 629.435C1565.31 628.879 1564.81 628.48 1564.25 628.544C1560.92 628.927 1557.56 629.235 1554.18 629.466C1553.62 629.504 1553.2 629.988 1553.24 630.547C1553.4 630.536 1553.57 630.525 1553.74 630.514C1553.91 630.503 1554.08 630.491 1554.25 630.48C1557.64 630.247 1561.02 629.938 1564.37 629.553C1564.54 629.534 1564.7 629.514 1564.87 629.495C1565.04 629.475 1565.21 629.455 1565.38 629.435ZM1545.11 630.917C1545.1 630.357 1544.64 629.913 1544.07 629.926C1542.39 629.965 1540.7 629.984 1539 629.984C1537.3 629.984 1535.61 629.965 1533.93 629.926C1533.36 629.913 1532.9 630.357 1532.89 630.917C1533.06 630.921 1533.22 630.926 1533.39 630.93C1533.56 630.934 1533.73 630.938 1533.9 630.942C1535.6 630.981 1537.3 631 1539 631C1540.7 631 1542.4 630.981 1544.1 630.942C1544.27 630.938 1544.44 630.934 1544.61 630.93C1544.78 630.926 1544.94 630.921 1545.11 630.917ZM1524.76 630.547C1524.8 629.988 1524.38 629.504 1523.82 629.466C1520.44 629.235 1517.08 628.927 1513.75 628.544C1513.19 628.48 1512.69 628.879 1512.62 629.435C1512.79 629.455 1512.96 629.475 1513.13 629.495C1513.3 629.514 1513.46 629.534 1513.63 629.553C1516.98 629.938 1520.36 630.247 1523.75 630.48C1523.92 630.491 1524.09 630.503 1524.26 630.514C1524.43 630.525 1524.6 630.536 1524.76 630.547ZM1504.57 628.322C1504.66 627.768 1504.28 627.248 1503.73 627.158C1500.39 626.617 1497.07 626.001 1493.78 625.311C1493.24 625.196 1492.7 625.546 1492.58 626.094C1492.75 626.13 1492.91 626.165 1493.08 626.2C1493.24 626.235 1493.41 626.27 1493.58 626.305C1496.88 626.999 1500.21 627.618 1503.57 628.161C1503.73 628.189 1503.9 628.215 1504.07 628.242C1504.24 628.269 1504.4 628.295 1504.57 628.322ZM1484.67 624.239C1484.81 623.697 1484.48 623.144 1483.94 623.003C1480.66 622.155 1477.42 621.233 1474.2 620.239C1473.67 620.074 1473.1 620.373 1472.93 620.908C1473.1 620.958 1473.26 621.009 1473.42 621.059C1473.58 621.11 1473.74 621.16 1473.9 621.21C1477.13 622.209 1480.39 623.135 1483.68 623.987C1483.85 624.029 1484.01 624.072 1484.17 624.114C1484.34 624.156 1484.5 624.198 1484.67 624.239ZM1465.22 618.324C1465.41 617.796 1465.14 617.215 1464.61 617.025C1461.43 615.877 1458.29 614.657 1455.18 613.368C1454.66 613.153 1454.06 613.398 1453.85 613.915C1454.01 613.98 1454.16 614.046 1454.32 614.111C1454.47 614.176 1454.63 614.241 1454.79 614.306C1457.91 615.602 1461.07 616.827 1464.26 617.981C1464.42 618.038 1464.58 618.096 1464.74 618.153C1464.9 618.21 1465.06 618.267 1465.22 618.324ZM1446.41 610.626C1446.65 610.118 1446.43 609.514 1445.92 609.276C1442.87 607.838 1439.85 606.332 1436.87 604.759C1436.37 604.498 1435.76 604.687 1435.5 605.181C1435.65 605.261 1435.8 605.341 1435.95 605.42C1436.1 605.5 1436.25 605.579 1436.39 605.658C1439.39 607.238 1442.42 608.751 1445.49 610.196C1445.64 610.268 1445.8 610.339 1445.95 610.411C1446.1 610.483 1446.26 610.554 1446.41 610.626ZM1428.4 601.218C1428.68 600.734 1428.52 600.113 1428.04 599.828C1425.13 598.115 1422.26 596.336 1419.44 594.494C1418.97 594.188 1418.34 594.319 1418.03 594.788C1418.17 594.881 1418.32 594.974 1418.46 595.067C1418.6 595.16 1418.74 595.253 1418.88 595.345C1421.72 597.196 1424.6 598.983 1427.52 600.704C1427.67 600.79 1427.81 600.876 1427.96 600.961C1428.1 601.047 1428.25 601.132 1428.4 601.218ZM1411.33 590.186C1411.66 589.731 1411.55 589.097 1411.1 588.769C1408.36 586.796 1405.67 584.761 1403.03 582.666C1402.59 582.318 1401.95 582.391 1401.6 582.829C1401.73 582.935 1401.87 583.041 1402 583.146C1402.13 583.252 1402.26 583.357 1402.4 583.463C1405.05 585.567 1407.75 587.611 1410.5 589.594C1410.64 589.693 1410.78 589.792 1410.92 589.89C1411.05 589.989 1411.19 590.088 1411.33 590.186ZM1395.35 577.631C1395.72 577.208 1395.67 576.567 1395.25 576.199C1392.7 573.983 1390.21 571.71 1387.77 569.381C1387.37 568.994 1386.73 569.008 1386.34 569.412C1386.46 569.53 1386.58 569.647 1386.7 569.764C1386.83 569.882 1386.95 569.999 1387.07 570.116C1389.52 572.456 1392.02 574.739 1394.58 576.965C1394.71 577.076 1394.84 577.188 1394.96 577.298C1395.09 577.409 1395.22 577.52 1395.35 577.631ZM1380.59 563.662C1380.99 563.274 1381.01 562.632 1380.62 562.227C1378.29 559.788 1376.02 557.296 1373.8 554.752C1373.43 554.329 1372.79 554.285 1372.37 554.652C1372.48 554.78 1372.59 554.908 1372.7 555.036C1372.81 555.164 1372.92 555.292 1373.03 555.419C1375.26 557.975 1377.54 560.479 1379.88 562.929C1380 563.051 1380.12 563.174 1380.24 563.296C1380.35 563.418 1380.47 563.54 1380.59 563.662ZM1367.17 548.398C1367.61 548.049 1367.68 547.411 1367.33 546.972C1365.24 544.331 1363.2 541.641 1361.23 538.903C1360.9 538.448 1360.27 538.345 1359.81 538.671C1359.91 538.809 1360.01 538.947 1360.11 539.085C1360.21 539.222 1360.31 539.36 1360.41 539.497C1362.39 542.248 1364.43 544.95 1366.54 547.604C1366.64 547.736 1366.75 547.869 1366.85 548.001C1366.96 548.134 1367.06 548.266 1367.17 548.398ZM1355.21 531.966C1355.68 531.659 1355.81 531.031 1355.51 530.561C1353.66 527.74 1351.89 524.874 1350.17 521.965C1349.89 521.482 1349.27 521.32 1348.78 521.603C1348.87 521.75 1348.95 521.896 1349.04 522.042C1349.12 522.188 1349.21 522.334 1349.3 522.48C1351.02 525.403 1352.8 528.283 1354.65 531.117C1354.75 531.259 1354.84 531.4 1354.93 531.542C1355.03 531.684 1355.12 531.825 1355.21 531.966ZM1344.82 514.502C1345.31 514.24 1345.5 513.626 1345.24 513.13C1343.67 510.153 1342.16 507.134 1340.72 504.077C1340.49 503.57 1339.88 503.352 1339.37 503.589C1339.45 503.743 1339.52 503.896 1339.59 504.05C1339.66 504.203 1339.73 504.356 1339.8 504.51C1341.25 507.581 1342.76 510.613 1344.34 513.605C1344.42 513.755 1344.5 513.904 1344.58 514.054C1344.66 514.204 1344.74 514.353 1344.82 514.502ZM1336.09 496.151C1336.6 495.935 1336.85 495.342 1336.63 494.824C1335.34 491.715 1334.12 488.57 1332.98 485.39C1332.78 484.863 1332.2 484.59 1331.68 484.779C1331.73 484.939 1331.79 485.098 1331.85 485.257C1331.9 485.417 1331.96 485.576 1332.02 485.735C1333.17 488.93 1334.4 492.09 1335.69 495.213C1335.76 495.37 1335.82 495.526 1335.89 495.682C1335.95 495.839 1336.02 495.995 1336.09 496.151ZM1329.09 477.066C1329.63 476.9 1329.93 476.331 1329.76 475.796C1328.77 472.583 1327.84 469.338 1327 466.064C1326.86 465.521 1326.3 465.195 1325.76 465.334C1325.8 465.498 1325.84 465.662 1325.89 465.827C1325.93 465.991 1325.97 466.155 1326.01 466.319C1326.87 469.608 1327.79 472.868 1328.79 476.096C1328.84 476.258 1328.89 476.42 1328.94 476.582C1328.99 476.743 1329.04 476.905 1329.09 477.066ZM1323.91 457.418C1324.45 457.302 1324.8 456.764 1324.69 456.216C1324 452.928 1323.38 449.612 1322.84 446.271C1322.75 445.718 1322.23 445.342 1321.68 445.43C1321.7 445.598 1321.73 445.765 1321.76 445.932C1321.78 446.099 1321.81 446.267 1321.84 446.434C1322.38 449.79 1323 453.121 1323.69 456.424C1323.73 456.59 1323.76 456.756 1323.8 456.922C1323.84 457.087 1323.87 457.253 1323.91 457.418ZM1320.57 437.378C1321.12 437.312 1321.52 436.809 1321.46 436.252C1321.07 432.917 1320.77 429.559 1320.53 426.18C1320.5 425.621 1320.01 425.198 1319.45 425.235C1319.46 425.404 1319.47 425.573 1319.49 425.742C1319.5 425.911 1319.51 426.08 1319.52 426.249C1319.75 429.644 1320.06 433.018 1320.45 436.368C1320.47 436.537 1320.49 436.705 1320.51 436.873C1320.53 437.041 1320.54 437.209 1320.57 437.378ZM1319.08 417.114C1319.64 417.1 1320.09 416.635 1320.07 416.075C1320.04 414.388 1320.02 412.696 1320.02 411C1320.02 409.304 1320.04 407.612 1320.07 405.925C1320.09 405.365 1319.64 404.9 1319.08 404.886C1319.08 405.055 1319.07 405.225 1319.07 405.394C1319.07 405.563 1319.06 405.733 1319.06 405.902C1319.02 407.597 1319 409.296 1319 411C1319 412.704 1319.02 414.403 1319.06 416.098C1319.06 416.267 1319.07 416.437 1319.07 416.606C1319.07 416.775 1319.08 416.945 1319.08 417.114ZM1319.45 396.765C1320.01 396.802 1320.5 396.379 1320.53 395.82C1320.77 392.441 1321.07 389.083 1321.46 385.748C1321.52 385.191 1321.12 384.688 1320.57 384.622C1320.54 384.791 1320.53 384.959 1320.51 385.127C1320.49 385.295 1320.47 385.463 1320.45 385.632C1320.06 388.982 1319.75 392.356 1319.52 395.751C1319.51 395.92 1319.5 396.089 1319.49 396.258C1319.47 396.427 1319.46 396.596 1319.45 396.765ZM1321.68 376.57C1322.23 376.658 1322.75 376.282 1322.84 375.729C1323.38 372.388 1324 369.073 1324.69 365.784C1324.8 365.236 1324.45 364.698 1323.91 364.582C1323.87 364.747 1323.84 364.913 1323.8 365.078C1323.76 365.244 1323.73 365.41 1323.69 365.576C1323 368.879 1322.38 372.21 1321.84 375.566C1321.81 375.733 1321.78 375.901 1321.76 376.068C1321.73 376.235 1321.7 376.402 1321.68 376.57ZM1325.76 356.666C1326.3 356.805 1326.86 356.479 1327 355.936C1327.84 352.662 1328.77 349.417 1329.76 346.204C1329.93 345.669 1329.63 345.1 1329.09 344.934C1329.04 345.095 1328.99 345.257 1328.94 345.418C1328.89 345.58 1328.84 345.742 1328.79 345.904C1327.79 349.132 1326.87 352.392 1326.01 355.681C1325.97 355.845 1325.93 356.009 1325.89 356.174C1325.84 356.338 1325.8 356.502 1325.76 356.666ZM1331.68 337.221C1332.2 337.41 1332.78 337.137 1332.98 336.61C1334.12 333.43 1335.34 330.285 1336.63 327.176C1336.85 326.658 1336.6 326.065 1336.09 325.849C1336.02 326.005 1335.95 326.161 1335.89 326.318C1335.82 326.474 1335.76 326.63 1335.69 326.787C1334.4 329.91 1333.17 333.07 1332.02 336.265C1331.96 336.424 1331.9 336.583 1331.85 336.743C1331.79 336.902 1331.73 337.061 1331.68 337.221ZM1339.37 318.411C1339.88 318.648 1340.49 318.43 1340.72 317.923C1342.16 314.866 1343.67 311.847 1345.24 308.87C1345.5 308.374 1345.31 307.76 1344.82 307.498C1344.74 307.647 1344.66 307.796 1344.58 307.946C1344.5 308.096 1344.42 308.245 1344.34 308.395C1342.76 311.387 1341.25 314.419 1339.8 317.49C1339.73 317.644 1339.66 317.797 1339.59 317.95C1339.52 318.104 1339.45 318.257 1339.37 318.411ZM1348.78 300.397C1349.27 300.68 1349.89 300.518 1350.17 300.035C1351.89 297.126 1353.66 294.26 1355.51 291.439C1355.81 290.969 1355.68 290.341 1355.21 290.034C1355.12 290.175 1355.03 290.316 1354.93 290.458C1354.84 290.6 1354.75 290.741 1354.65 290.883C1352.8 293.717 1351.02 296.597 1349.3 299.52C1349.21 299.666 1349.12 299.812 1349.04 299.958C1348.95 300.104 1348.87 300.25 1348.78 300.397ZM1359.81 283.329C1360.27 283.655 1360.9 283.552 1361.23 283.097C1363.2 280.359 1365.24 277.669 1367.33 275.028C1367.68 274.589 1367.61 273.951 1367.17 273.602C1367.06 273.734 1366.96 273.866 1366.85 273.999C1366.75 274.131 1366.64 274.264 1366.54 274.397C1364.43 277.05 1362.39 279.752 1360.41 282.503C1360.31 282.64 1360.21 282.778 1360.11 282.915C1360.01 283.053 1359.91 283.191 1359.81 283.329ZM1372.37 267.348C1372.79 267.715 1373.43 267.671 1373.8 267.248C1376.02 264.704 1378.29 262.212 1380.62 259.773C1381.01 259.368 1380.99 258.726 1380.59 258.338C1380.47 258.46 1380.35 258.582 1380.24 258.704C1380.12 258.826 1380 258.949 1379.88 259.071C1377.54 261.521 1375.26 264.025 1373.03 266.581C1372.92 266.708 1372.81 266.836 1372.7 266.964C1372.59 267.092 1372.48 267.22 1372.37 267.348ZM1386.34 252.588C1386.73 252.992 1387.37 253.006 1387.77 252.619C1390.21 250.29 1392.7 248.017 1395.25 245.801C1395.67 245.433 1395.72 244.792 1395.35 244.369C1395.22 244.48 1395.09 244.591 1394.96 244.702C1394.84 244.813 1394.71 244.924 1394.58 245.035C1392.02 247.261 1389.52 249.544 1387.07 251.884C1386.95 252.001 1386.83 252.118 1386.7 252.236C1386.58 252.353 1386.46 252.47 1386.34 252.588ZM1401.6 239.171C1401.95 239.609 1402.59 239.682 1403.03 239.334C1405.67 237.239 1408.36 235.204 1411.1 233.231C1411.55 232.903 1411.66 232.269 1411.33 231.814C1411.19 231.912 1411.05 232.011 1410.92 232.11C1410.78 232.208 1410.64 232.307 1410.5 232.406C1407.75 234.389 1405.05 236.433 1402.4 238.537C1402.26 238.643 1402.13 238.748 1402 238.854C1401.87 238.959 1401.73 239.065 1401.6 239.171ZM1418.03 227.212C1418.34 227.681 1418.97 227.812 1419.44 227.506C1422.26 225.664 1425.13 223.885 1428.04 222.172C1428.52 221.887 1428.68 221.266 1428.4 220.782C1428.25 220.868 1428.1 220.953 1427.96 221.039C1427.81 221.124 1427.67 221.21 1427.52 221.296C1424.6 223.017 1421.72 224.804 1418.88 226.655C1418.74 226.747 1418.6 226.84 1418.46 226.933C1418.32 227.026 1418.17 227.119 1418.03 227.212ZM1435.5 216.819C1435.76 217.313 1436.37 217.502 1436.87 217.241C1439.85 215.668 1442.87 214.162 1445.92 212.724C1446.43 212.486 1446.65 211.882 1446.41 211.374C1446.26 211.446 1446.1 211.517 1445.95 211.589C1445.8 211.661 1445.64 211.732 1445.49 211.804C1442.42 213.249 1439.39 214.762 1436.39 216.342C1436.25 216.421 1436.1 216.5 1435.95 216.58C1435.8 216.659 1435.65 216.739 1435.5 216.819ZM1453.85 208.085C1454.06 208.602 1454.66 208.847 1455.18 208.632C1458.29 207.343 1461.43 206.123 1464.61 204.975C1465.14 204.785 1465.41 204.204 1465.22 203.676C1465.06 203.733 1464.9 203.79 1464.74 203.847C1464.58 203.905 1464.42 203.962 1464.26 204.019C1461.07 205.173 1457.91 206.398 1454.79 207.694C1454.63 207.759 1454.47 207.824 1454.32 207.889C1454.16 207.954 1454.01 208.02 1453.85 208.085ZM1472.93 201.093C1473.1 201.627 1473.67 201.926 1474.2 201.761C1477.42 200.767 1480.66 199.845 1483.94 198.997C1484.48 198.856 1484.81 198.303 1484.67 197.761C1484.5 197.802 1484.34 197.844 1484.17 197.886C1484.01 197.928 1483.85 197.971 1483.68 198.013C1480.39 198.865 1477.13 199.791 1473.9 200.79C1473.74 200.84 1473.58 200.89 1473.42 200.941C1473.26 200.991 1473.1 201.042 1472.93 201.093ZM1492.58 195.906C1492.7 196.454 1493.24 196.805 1493.78 196.689C1497.07 195.999 1500.39 195.383 1503.73 194.842C1504.28 194.752 1504.66 194.232 1504.57 193.678C1504.4 193.705 1504.24 193.731 1504.07 193.758C1503.9 193.785 1503.73 193.812 1503.57 193.839C1500.21 194.382 1496.88 195.001 1493.58 195.695C1493.41 195.73 1493.24 195.765 1493.08 195.8C1492.91 195.835 1492.75 195.87 1492.58 195.906ZM1512.62 192.565C1512.69 193.121 1513.19 193.52 1513.75 193.456C1517.08 193.073 1520.44 192.765 1523.82 192.534C1524.38 192.496 1524.8 192.012 1524.76 191.453C1524.6 191.464 1524.43 191.475 1524.26 191.486C1524.09 191.497 1523.92 191.509 1523.75 191.52C1520.36 191.753 1516.98 192.062 1513.63 192.447C1513.46 192.466 1513.3 192.486 1513.13 192.505C1512.96 192.525 1512.79 192.545 1512.62 192.565ZM1532.89 191.083C1532.9 191.643 1533.36 192.087 1533.93 192.074C1535.61 192.035 1537.3 192.016 1539 192.016C1540.7 192.016 1542.39 192.035 1544.07 192.074C1544.64 192.087 1545.1 191.643 1545.11 191.083C1544.94 191.079 1544.78 191.074 1544.61 191.07C1544.44 191.066 1544.27 191.062 1544.1 191.058C1542.4 191.019 1540.7 191 1539 191C1537.3 191 1535.6 191.019 1533.9 191.058C1533.73 191.062 1533.56 191.066 1533.39 191.07C1533.22 191.074 1533.06 191.079 1532.89 191.083ZM1553.24 191.453C1553.2 192.012 1553.62 192.496 1554.18 192.534C1557.56 192.765 1560.92 193.073 1564.25 193.456C1564.81 193.52 1565.31 193.121 1565.38 192.565C1565.21 192.545 1565.04 192.525 1564.87 192.505C1564.7 192.486 1564.54 192.466 1564.37 192.447C1561.02 192.062 1557.64 191.753 1554.25 191.52C1554.08 191.509 1553.91 191.497 1553.74 191.486C1553.57 191.475 1553.4 191.464 1553.24 191.453ZM1573.43 193.678C1573.34 194.232 1573.72 194.752 1574.27 194.842C1577.61 195.383 1580.93 195.999 1584.22 196.689C1584.76 196.805 1585.3 196.454 1585.42 195.906C1585.25 195.87 1585.09 195.835 1584.92 195.8C1584.76 195.765 1584.59 195.73 1584.42 195.695C1581.12 195.001 1577.79 194.382 1574.43 193.839C1574.27 193.812 1574.1 193.785 1573.93 193.758C1573.76 193.731 1573.6 193.705 1573.43 193.678ZM1593.33 197.761C1593.2 198.303 1593.52 198.856 1594.06 198.997C1597.34 199.845 1600.58 200.767 1603.8 201.761C1604.33 201.926 1604.9 201.627 1605.07 201.093C1604.9 201.042 1604.74 200.991 1604.58 200.941C1604.42 200.89 1604.26 200.84 1604.1 200.79C1600.87 199.791 1597.61 198.865 1594.32 198.013C1594.15 197.971 1593.99 197.928 1593.83 197.886C1593.66 197.844 1593.5 197.802 1593.33 197.761ZM1612.78 203.676C1612.59 204.204 1612.86 204.785 1613.39 204.975C1616.57 206.123 1619.72 207.343 1622.82 208.632C1623.34 208.847 1623.94 208.602 1624.15 208.085C1623.99 208.02 1623.84 207.954 1623.68 207.889C1623.53 207.824 1623.37 207.759 1623.21 207.694C1620.09 206.398 1616.93 205.173 1613.74 204.019C1613.58 203.962 1613.42 203.905 1613.26 203.847C1613.1 203.79 1612.94 203.733 1612.78 203.676ZM1631.59 211.374C1631.35 211.882 1631.57 212.486 1632.08 212.724C1635.13 214.162 1638.15 215.668 1641.13 217.241C1641.63 217.502 1642.24 217.313 1642.5 216.819C1642.35 216.739 1642.2 216.659 1642.05 216.58C1641.9 216.501 1641.75 216.421 1641.61 216.342C1638.61 214.762 1635.58 213.249 1632.51 211.804C1632.36 211.732 1632.2 211.661 1632.05 211.589C1631.9 211.517 1631.74 211.446 1631.59 211.374ZM1649.6 220.782C1649.32 221.266 1649.48 221.887 1649.96 222.172C1652.87 223.885 1655.74 225.664 1658.56 227.506C1659.03 227.812 1659.66 227.681 1659.97 227.212C1659.83 227.119 1659.68 227.026 1659.54 226.933C1659.4 226.84 1659.26 226.747 1659.12 226.655C1656.28 224.804 1653.4 223.017 1650.48 221.296C1650.33 221.21 1650.19 221.124 1650.04 221.039C1649.9 220.953 1649.75 220.868 1649.6 220.782ZM1666.67 231.814C1666.34 232.269 1666.45 232.903 1666.9 233.231C1669.64 235.204 1672.33 237.239 1674.97 239.334C1675.41 239.682 1676.05 239.609 1676.4 239.171C1676.27 239.065 1676.13 238.959 1676 238.854C1675.87 238.748 1675.74 238.643 1675.6 238.537C1672.95 236.433 1670.25 234.389 1667.5 232.406C1667.36 232.307 1667.22 232.208 1667.08 232.11C1666.95 232.011 1666.81 231.912 1666.67 231.814ZM1682.65 244.369C1682.28 244.792 1682.33 245.433 1682.75 245.801C1685.3 248.017 1687.79 250.29 1690.23 252.619C1690.63 253.006 1691.27 252.992 1691.66 252.588C1691.54 252.47 1691.42 252.353 1691.3 252.236C1691.17 252.118 1691.05 252.001 1690.93 251.884C1688.48 249.544 1685.98 247.261 1683.42 245.035C1683.29 244.924 1683.16 244.813 1683.04 244.702C1682.91 244.591 1682.78 244.48 1682.65 244.369ZM1697.41 258.338C1697.01 258.726 1696.99 259.368 1697.38 259.773C1699.71 262.212 1701.98 264.704 1704.2 267.248C1704.57 267.671 1705.21 267.715 1705.63 267.348C1705.52 267.22 1705.41 267.092 1705.3 266.964C1705.19 266.836 1705.08 266.708 1704.97 266.581C1702.74 264.025 1700.46 261.521 1698.12 259.071C1698 258.949 1697.88 258.826 1697.76 258.704C1697.65 258.582 1697.53 258.46 1697.41 258.338ZM1710.83 273.602C1710.39 273.951 1710.32 274.589 1710.67 275.028C1712.76 277.669 1714.8 280.359 1716.77 283.097C1717.1 283.552 1717.73 283.655 1718.19 283.329C1718.09 283.191 1717.99 283.053 1717.89 282.915C1717.79 282.778 1717.69 282.64 1717.59 282.503C1715.61 279.752 1713.57 277.05 1711.46 274.396C1711.36 274.264 1711.25 274.131 1711.15 273.999C1711.04 273.866 1710.94 273.734 1710.83 273.602ZM1722.79 290.034C1722.32 290.341 1722.19 290.969 1722.49 291.439C1724.34 294.26 1726.12 297.126 1727.83 300.035C1728.11 300.518 1728.73 300.68 1729.22 300.397C1729.13 300.25 1729.05 300.104 1728.96 299.958C1728.88 299.812 1728.79 299.666 1728.7 299.52C1726.98 296.597 1725.2 293.717 1723.35 290.883C1723.25 290.741 1723.16 290.6 1723.07 290.458C1722.97 290.316 1722.88 290.175 1722.79 290.034ZM1733.18 307.498C1732.69 307.76 1732.5 308.374 1732.76 308.87C1734.33 311.847 1735.84 314.866 1737.28 317.923C1737.51 318.43 1738.12 318.648 1738.63 318.411C1738.55 318.257 1738.48 318.104 1738.41 317.95C1738.34 317.797 1738.27 317.644 1738.2 317.49C1736.75 314.419 1735.24 311.387 1733.66 308.395C1733.58 308.245 1733.5 308.096 1733.42 307.946C1733.34 307.796 1733.26 307.647 1733.18 307.498ZM1741.91 325.849C1741.4 326.065 1741.15 326.658 1741.37 327.176C1742.66 330.285 1743.88 333.43 1745.02 336.61C1745.22 337.137 1745.8 337.41 1746.32 337.221C1746.27 337.061 1746.21 336.902 1746.15 336.743C1746.1 336.583 1746.04 336.424 1745.98 336.265C1744.83 333.07 1743.6 329.91 1742.31 326.787C1742.24 326.63 1742.18 326.474 1742.11 326.318C1742.05 326.161 1741.98 326.005 1741.91 325.849ZM1748.91 344.934C1748.37 345.1 1748.07 345.669 1748.24 346.204C1749.23 349.417 1750.16 352.662 1751 355.936C1751.14 356.479 1751.7 356.805 1752.24 356.666C1752.2 356.502 1752.16 356.338 1752.11 356.173C1752.07 356.009 1752.03 355.845 1751.99 355.681C1751.13 352.392 1750.21 349.132 1749.21 345.904C1749.16 345.742 1749.11 345.58 1749.06 345.418C1749.01 345.257 1748.96 345.095 1748.91 344.934ZM1754.09 364.582C1753.55 364.698 1753.2 365.236 1753.31 365.784C1754 369.073 1754.62 372.388 1755.16 375.729C1755.25 376.282 1755.77 376.658 1756.32 376.57C1756.3 376.402 1756.27 376.235 1756.24 376.068C1756.22 375.901 1756.19 375.733 1756.16 375.566C1755.62 372.21 1755 368.879 1754.31 365.576C1754.27 365.41 1754.24 365.244 1754.2 365.078C1754.16 364.913 1754.13 364.747 1754.09 364.582ZM1758.55 396.765C1758.54 396.596 1758.53 396.427 1758.51 396.258C1758.5 396.089 1758.49 395.92 1758.48 395.751C1758.25 392.356 1757.94 388.982 1757.55 385.632C1757.53 385.463 1757.51 385.295 1757.49 385.127C1757.47 384.959 1757.46 384.791 1757.43 384.622C1756.88 384.688 1756.48 385.191 1756.54 385.748C1756.93 389.083 1757.23 392.441 1757.47 395.82C1757.5 396.379 1757.99 396.802 1758.55 396.765Z" fill="white" fill-opacity="0.5"/>
<path fill-rule="evenodd" clip-rule="evenodd" d="M1539 481.115C1577.72 481.115 1609.12 449.724 1609.12 411C1609.12 372.276 1577.72 340.884 1539 340.884C1500.28 340.884 1468.88 372.276 1468.88 411C1468.88 449.724 1500.28 481.115 1539 481.115ZM1539 531.924C1605.78 531.924 1659.92 477.784 1659.92 411C1659.92 344.216 1605.78 290.076 1539 290.076C1472.22 290.076 1418.08 344.216 1418.08 411C1418.08 477.784 1472.22 531.924 1539 531.924Z" fill="white" fill-opacity="0.5"/>
<defs>
<filter id="filter0_f_332_926" x="-826" y="-961" width="1695" height="1681" filterUnits="userSpaceOnUse" color-interpolation-filters="sRGB">
<feFlood flood-opacity="0" result="BackgroundImageFix"/>
<feBlend mode="normal" in="SourceGraphic" in2="BackgroundImageFix" result="shape"/>
<feGaussianBlur stdDeviation="250" result="effect1_foregroundBlur_332_926"/>
</filter>
<filter id="filter1_f_332_926" x="867" y="-150" width="1343" height="1326" filterUnits="userSpaceOnUse" color-interpolation-filters="sRGB">
<feFlood flood-opacity="0" result="BackgroundImageFix"/>
<feBlend mode="normal" in="SourceGraphic" in2="BackgroundImageFix" result="shape"/>
<feGaussianBlur stdDeviation="250" result="effect1_foregroundBlur_332_926"/>
</filter>
</defs>
</svg>
