<svg width="1050" height="201" viewBox="0 0 1050 201" fill="none" xmlns="http://www.w3.org/2000/svg">
<g clip-path="url(#clip0_2_251)">
<rect width="1050" height="201" rx="20" fill="url(#paint0_linear_2_251)"/>
<g clip-path="url(#clip1_2_251)">
<path fill-rule="evenodd" clip-rule="evenodd" d="M936.007 98.6898C935.93 97.7757 935.891 96.8508 935.891 95.9169C935.891 94.9829 935.93 94.0581 936.007 93.1439C936.059 92.5307 936.596 92.0757 937.206 92.1276C937.817 92.1796 938.27 92.7188 938.218 93.332C938.146 94.1836 938.11 95.0458 938.11 95.9169C938.11 96.788 938.146 97.6501 938.218 98.5018C938.27 99.115 937.817 99.6542 937.206 99.7061C936.596 99.758 936.059 99.303 936.007 98.6898ZM939.345 83.9325C938.788 83.6764 938.543 83.0151 938.798 82.4555C939.57 80.7619 940.483 79.1484 941.522 77.6309C941.869 77.1238 942.56 76.9953 943.065 77.3439C943.57 77.6926 943.698 78.3863 943.351 78.8934C942.384 80.3057 941.534 81.8071 940.816 83.3831C940.561 83.9427 939.902 84.1887 939.345 83.9325ZM939.345 107.901C939.902 107.645 940.561 107.891 940.816 108.451C941.534 110.027 942.384 111.528 943.351 112.94C943.698 113.447 943.57 114.141 943.065 114.49C942.56 114.838 941.869 114.71 941.522 114.203C940.483 112.685 939.57 111.072 938.798 109.378C938.543 108.819 938.788 108.157 939.345 107.901ZM948.971 71.2937C948.614 70.7933 948.729 70.0972 949.227 69.7391C950.722 68.6643 952.314 67.7185 953.986 66.918C954.54 66.6532 955.202 66.8888 955.465 67.4444C955.729 67.9999 955.494 68.6649 954.941 68.9297C953.388 69.6732 951.909 70.552 950.519 71.5512C950.02 71.9094 949.327 71.7941 948.971 71.2937ZM948.971 120.54C949.327 120.04 950.02 119.924 950.519 120.283C951.909 121.282 953.388 122.16 954.941 122.904C955.494 123.169 955.729 123.834 955.465 124.389C955.202 124.945 954.54 125.181 953.986 124.916C952.314 124.115 950.722 123.169 949.227 122.095C948.729 121.736 948.614 121.04 948.971 120.54ZM963.603 126.619C963.656 126.006 964.195 125.552 964.805 125.606C965.652 125.681 966.509 125.72 967.375 125.72C968.241 125.72 969.098 125.681 969.945 125.606C970.555 125.552 971.094 126.006 971.148 126.619C971.202 127.232 970.75 127.772 970.14 127.826C969.229 127.907 968.307 127.948 967.375 127.948C966.444 127.948 965.522 127.907 964.611 127.826C964 127.772 963.549 127.232 963.603 126.619ZM963.603 65.2152C963.549 64.6022 964 64.0614 964.611 64.0073C965.522 63.9267 966.444 63.8855 967.375 63.8855C968.307 63.8855 969.229 63.9266 970.14 64.0073C970.75 64.0614 971.202 64.6022 971.148 65.2152C971.094 65.8282 970.555 66.2814 969.945 66.2273C969.098 66.1523 968.241 66.1141 967.375 66.1141C966.509 66.1141 965.652 66.1523 964.805 66.2273C964.195 66.2814 963.656 65.8282 963.603 65.2152ZM979.285 67.4444C979.549 66.8888 980.211 66.6532 980.764 66.9179C982.437 67.7185 984.028 68.6643 985.523 69.7391C986.022 70.0972 986.137 70.7933 985.78 71.2937C985.423 71.7941 984.73 71.9094 984.232 71.5512C982.842 70.552 981.363 69.6732 979.809 68.9297C979.256 68.6649 979.021 67.9999 979.285 67.4444ZM979.285 124.389C979.021 123.834 979.256 123.169 979.809 122.904C981.363 122.16 982.842 121.282 984.232 120.282C984.73 119.924 985.423 120.04 985.78 120.54C986.137 121.04 986.022 121.736 985.523 122.095C984.028 123.169 982.437 124.115 980.764 124.916C980.211 125.181 979.549 124.945 979.285 124.389ZM991.686 77.3439C992.19 76.9953 992.881 77.1238 993.228 77.6309C994.267 79.1484 995.181 80.7619 995.953 82.4555C996.208 83.0151 995.963 83.6764 995.406 83.9325C994.848 84.1887 994.19 83.9427 993.935 83.3831C993.216 81.8071 992.367 80.3057 991.4 78.8934C991.053 78.3863 991.181 77.6926 991.686 77.3439ZM991.686 114.49C991.181 114.141 991.053 113.447 991.4 112.94C992.367 111.528 993.216 110.027 993.935 108.451C994.19 107.891 994.848 107.645 995.406 107.901C995.963 108.157 996.208 108.819 995.953 109.378C995.181 111.072 994.267 112.685 993.228 114.203C992.881 114.71 992.19 114.838 991.686 114.49ZM997.544 99.7061C996.934 99.6542 996.48 99.115 996.532 98.5018C996.604 97.6501 996.641 96.788 996.641 95.9169C996.641 95.0458 996.604 94.1836 996.532 93.332C996.48 92.7188 996.934 92.1796 997.544 92.1276C998.155 92.0757 998.692 92.5307 998.743 93.1439C998.82 94.058 998.86 94.9829 998.86 95.9169C998.86 96.8508 998.82 97.7757 998.743 98.6898C998.692 99.303 998.155 99.758 997.544 99.7061Z" fill="white" fill-opacity="0.28"/>
<path fill-rule="evenodd" clip-rule="evenodd" d="M998.147 109.052C998.147 101.463 992.103 95.3109 984.647 95.3109C977.191 95.3109 971.147 101.463 971.147 109.052C971.147 116.641 977.191 122.793 984.647 122.793C992.103 122.793 998.147 116.641 998.147 109.052ZM1018 109.052C1018 90.3027 1003.07 75.1036 984.647 75.1036C966.227 75.1036 951.294 90.3027 951.294 109.052C951.294 127.801 966.227 143 984.647 143C1003.07 143 1018 127.801 1018 109.052Z" fill="white" fill-opacity="0.26"/>
<path fill-rule="evenodd" clip-rule="evenodd" d="M201.98 108.631C201.981 108.582 201.982 108.532 201.983 108.483C201.994 107.99 202 107.496 202 107C202 106.504 201.994 106.01 201.983 105.517C201.982 105.468 201.981 105.418 201.98 105.369C201.978 105.32 201.977 105.271 201.976 105.221C201.813 105.225 201.684 105.361 201.688 105.524C201.699 106.014 201.704 106.507 201.704 107C201.704 107.493 201.699 107.986 201.688 108.476C201.684 108.639 201.813 108.775 201.976 108.779C201.977 108.729 201.978 108.68 201.98 108.631ZM201.868 111.141C201.706 111.13 201.565 111.253 201.554 111.416C201.486 112.399 201.397 113.376 201.285 114.346C201.267 114.508 201.383 114.655 201.545 114.673C201.551 114.625 201.556 114.576 201.562 114.527C201.568 114.478 201.573 114.429 201.579 114.38C201.691 113.405 201.781 112.424 201.849 111.436C201.852 111.387 201.855 111.338 201.859 111.289C201.862 111.24 201.865 111.19 201.868 111.141ZM201.221 117.016C201.06 116.99 200.908 117.1 200.882 117.261C200.725 118.233 200.546 119.197 200.345 120.154C200.311 120.313 200.413 120.47 200.573 120.504C200.583 120.455 200.593 120.407 200.604 120.359C200.614 120.311 200.624 120.263 200.634 120.214C200.836 119.253 201.016 118.284 201.174 117.308C201.182 117.259 201.19 117.211 201.198 117.162C201.205 117.113 201.213 117.065 201.221 117.016ZM200.033 122.806C199.875 122.766 199.715 122.861 199.674 123.019C199.427 123.971 199.159 124.915 198.87 125.85C198.821 126.006 198.908 126.171 199.064 126.219C199.079 126.172 199.093 126.125 199.108 126.078C199.123 126.031 199.137 125.984 199.152 125.937C199.442 124.998 199.712 124.05 199.96 123.093C199.972 123.045 199.984 122.997 199.997 122.95C200.009 122.902 200.021 122.854 200.033 122.806ZM198.312 128.463C198.159 128.408 197.99 128.487 197.935 128.641C197.6 129.566 197.246 130.481 196.871 131.385C196.808 131.536 196.879 131.708 197.03 131.771C197.049 131.726 197.068 131.68 197.087 131.635C197.106 131.589 197.125 131.544 197.144 131.498C197.52 130.59 197.877 129.67 198.213 128.741C198.229 128.695 198.246 128.649 198.263 128.602C198.279 128.556 198.296 128.509 198.312 128.463ZM196.073 133.935C195.925 133.866 195.75 133.929 195.68 134.077C195.262 134.966 194.824 135.844 194.366 136.711C194.29 136.855 194.345 137.033 194.489 137.11C194.512 137.066 194.535 137.023 194.559 136.979C194.582 136.936 194.605 136.892 194.628 136.849C195.087 135.978 195.528 135.096 195.948 134.203C195.969 134.158 195.99 134.114 196.011 134.069C196.031 134.024 196.052 133.98 196.073 133.935ZM193.336 139.176C193.195 139.093 193.015 139.14 192.932 139.281C192.433 140.127 191.916 140.961 191.38 141.781C191.291 141.918 191.329 142.101 191.466 142.19C191.493 142.149 191.52 142.108 191.547 142.067C191.574 142.026 191.601 141.984 191.628 141.943C192.166 141.119 192.686 140.281 193.187 139.431C193.212 139.388 193.237 139.346 193.261 139.303C193.286 139.261 193.311 139.218 193.336 139.176ZM190.127 144.141C189.994 144.046 189.81 144.076 189.715 144.208C189.141 145.005 188.549 145.787 187.939 146.555C187.838 146.683 187.859 146.869 187.987 146.97C188.017 146.932 188.048 146.893 188.079 146.855C188.11 146.816 188.14 146.778 188.171 146.739C188.783 145.967 189.378 145.181 189.955 144.381C189.983 144.341 190.012 144.301 190.041 144.261C190.07 144.221 190.098 144.181 190.127 144.141ZM186.474 148.79C186.351 148.683 186.165 148.696 186.058 148.819C185.413 149.559 184.752 150.284 184.074 150.993C183.962 151.111 183.966 151.298 184.084 151.411C184.118 151.375 184.152 151.34 184.186 151.304C184.22 151.269 184.254 151.233 184.288 151.197C184.969 150.485 185.633 149.756 186.281 149.013C186.313 148.976 186.345 148.939 186.378 148.901C186.41 148.864 186.442 148.827 186.474 148.79ZM182.411 153.084C182.298 152.966 182.111 152.962 181.993 153.074C181.284 153.752 180.559 154.413 179.819 155.058C179.696 155.165 179.683 155.351 179.79 155.474C179.827 155.442 179.864 155.41 179.901 155.378C179.939 155.345 179.976 155.313 180.013 155.281C180.756 154.633 181.485 153.969 182.197 153.288C182.233 153.254 182.269 153.22 182.304 153.186C182.34 153.152 182.375 153.118 182.411 153.084ZM177.97 156.987C177.869 156.859 177.683 156.838 177.555 156.939C176.787 157.549 176.005 158.141 175.208 158.715C175.076 158.81 175.046 158.994 175.141 159.127C175.181 159.098 175.221 159.07 175.261 159.041C175.301 159.012 175.341 158.983 175.381 158.955C176.181 158.378 176.967 157.783 177.739 157.171C177.778 157.14 177.816 157.11 177.855 157.079C177.893 157.048 177.932 157.017 177.97 156.987ZM173.19 160.465C173.101 160.329 172.918 160.291 172.781 160.38C171.961 160.916 171.127 161.433 170.281 161.932C170.14 162.015 170.093 162.195 170.176 162.336C170.218 162.311 170.261 162.286 170.303 162.261C170.346 162.237 170.388 162.212 170.431 162.187C171.281 161.686 172.119 161.166 172.943 160.628C172.984 160.601 173.026 160.574 173.067 160.547C173.108 160.52 173.149 160.493 173.19 160.465ZM168.11 163.489C168.033 163.345 167.855 163.29 167.711 163.366C166.844 163.824 165.966 164.262 165.077 164.68C164.929 164.75 164.866 164.925 164.935 165.073C164.98 165.052 165.024 165.031 165.069 165.011C165.114 164.99 165.158 164.969 165.203 164.948C166.096 164.528 166.978 164.087 167.849 163.628C167.892 163.605 167.936 163.582 167.979 163.559C168.023 163.535 168.066 163.512 168.11 163.489ZM162.771 166.03C162.708 165.879 162.536 165.808 162.385 165.871C161.481 166.246 160.566 166.6 159.641 166.935C159.487 166.99 159.408 167.159 159.463 167.312C159.509 167.296 159.556 167.279 159.602 167.263C159.649 167.246 159.695 167.229 159.741 167.213C160.67 166.877 161.59 166.52 162.498 166.144C162.544 166.125 162.589 166.106 162.635 166.087C162.68 166.068 162.726 166.049 162.771 166.03ZM157.219 168.064C157.171 167.908 157.006 167.821 156.85 167.87C155.915 168.159 154.971 168.427 154.019 168.674C153.861 168.715 153.766 168.875 153.806 169.033C153.854 169.021 153.902 169.009 153.95 168.997C153.997 168.984 154.045 168.972 154.093 168.96C155.05 168.712 155.998 168.442 156.937 168.152C156.984 168.137 157.031 168.123 157.078 168.108C157.125 168.093 157.172 168.079 157.219 168.064ZM151.504 169.573C151.47 169.413 151.313 169.311 151.154 169.345C150.197 169.546 149.233 169.725 148.261 169.882C148.1 169.908 147.99 170.06 148.016 170.221C148.065 170.213 148.113 170.205 148.162 170.198C148.211 170.19 148.259 170.182 148.308 170.174C149.284 170.016 150.253 169.836 151.214 169.634C151.263 169.624 151.311 169.614 151.359 169.604C151.407 169.593 151.455 169.583 151.504 169.573ZM145.673 170.545C145.655 170.383 145.508 170.267 145.346 170.285C144.376 170.397 143.399 170.486 142.416 170.554C142.253 170.565 142.13 170.706 142.141 170.868C142.19 170.865 142.24 170.862 142.289 170.859C142.338 170.855 142.387 170.852 142.436 170.849C143.424 170.781 144.405 170.691 145.38 170.579C145.429 170.573 145.478 170.568 145.527 170.562C145.576 170.556 145.625 170.551 145.673 170.545ZM139.779 170.976C139.775 170.813 139.639 170.684 139.476 170.688C138.986 170.699 138.493 170.704 138 170.704C137.507 170.704 137.014 170.699 136.524 170.688C136.361 170.684 136.225 170.813 136.221 170.976C136.271 170.977 136.32 170.978 136.369 170.98C136.418 170.981 136.468 170.982 136.517 170.983C137.01 170.994 137.504 171 138 171C138.496 171 138.99 170.994 139.483 170.983C139.532 170.982 139.582 170.981 139.631 170.98C139.68 170.978 139.729 170.977 139.779 170.976ZM133.859 170.868C133.87 170.706 133.747 170.565 133.584 170.554C132.601 170.486 131.624 170.397 130.654 170.285C130.492 170.267 130.345 170.383 130.327 170.545C130.375 170.551 130.424 170.556 130.473 170.562C130.522 170.568 130.571 170.573 130.62 170.579C131.595 170.691 132.576 170.781 133.564 170.849C133.613 170.852 133.662 170.855 133.711 170.859C133.76 170.862 133.81 170.865 133.859 170.868ZM127.984 170.221C128.01 170.06 127.9 169.908 127.739 169.882C126.767 169.725 125.803 169.546 124.846 169.345C124.687 169.311 124.53 169.413 124.496 169.573C124.545 169.583 124.593 169.593 124.641 169.604C124.689 169.614 124.737 169.624 124.786 169.634C125.747 169.836 126.716 170.016 127.692 170.174C127.741 170.182 127.789 170.19 127.838 170.198C127.887 170.205 127.935 170.213 127.984 170.221ZM122.194 169.033C122.234 168.875 122.139 168.715 121.981 168.674C121.029 168.427 120.085 168.159 119.15 167.87C118.994 167.821 118.829 167.908 118.781 168.064C118.828 168.079 118.875 168.093 118.922 168.108C118.969 168.123 119.016 168.137 119.063 168.152C120.002 168.442 120.95 168.712 121.907 168.96C121.955 168.972 122.003 168.984 122.05 168.997C122.098 169.009 122.146 169.021 122.194 169.033ZM116.537 167.312C116.592 167.159 116.513 166.99 116.359 166.935C115.434 166.6 114.519 166.246 113.615 165.871C113.464 165.808 113.292 165.879 113.229 166.03C113.274 166.049 113.32 166.068 113.365 166.087C113.411 166.106 113.456 166.125 113.502 166.144C114.41 166.52 115.33 166.877 116.259 167.213C116.305 167.229 116.351 167.246 116.398 167.263C116.444 167.279 116.491 167.296 116.537 167.312ZM111.065 165.073C111.134 164.925 111.071 164.75 110.923 164.68C110.034 164.262 109.156 163.824 108.289 163.366C108.145 163.29 107.967 163.345 107.89 163.489C107.934 163.512 107.977 163.535 108.021 163.559C108.064 163.582 108.108 163.605 108.151 163.628C109.022 164.087 109.904 164.528 110.797 164.948C110.842 164.969 110.886 164.99 110.931 165.011C110.976 165.031 111.02 165.052 111.065 165.073ZM105.824 162.336C105.907 162.195 105.86 162.015 105.719 161.932C104.873 161.433 104.039 160.916 103.219 160.38C103.082 160.291 102.899 160.329 102.81 160.465C102.851 160.493 102.892 160.52 102.933 160.547C102.974 160.574 103.016 160.601 103.057 160.628C103.881 161.166 104.719 161.686 105.569 162.187C105.612 162.212 105.654 162.237 105.697 162.261C105.739 162.286 105.782 162.311 105.824 162.336ZM100.859 159.127C100.954 158.994 100.924 158.81 100.792 158.715C99.9954 158.141 99.2128 157.549 98.4445 156.939C98.3168 156.838 98.1312 156.859 98.0296 156.987C98.0681 157.017 98.1066 157.048 98.1451 157.079C98.1836 157.11 98.2222 157.14 98.2608 157.171C99.0326 157.783 99.8189 158.378 100.619 158.955C100.659 158.983 100.699 159.012 100.739 159.041C100.779 159.07 100.819 159.098 100.859 159.127ZM96.2104 155.474C96.3172 155.351 96.3042 155.165 96.1812 155.058C95.4412 154.413 94.7161 153.752 94.0067 153.074C93.8888 152.962 93.7021 152.966 93.5892 153.084C93.6247 153.118 93.6602 153.152 93.6958 153.186C93.7313 153.22 93.7669 153.254 93.8025 153.288C94.5152 153.969 95.2436 154.633 95.9871 155.281C96.0242 155.313 96.0614 155.345 96.0986 155.378C96.1359 155.41 96.1731 155.442 96.2104 155.474ZM91.9165 151.411C92.034 151.298 92.0382 151.111 91.9256 150.993C91.248 150.284 90.5867 149.559 89.9421 148.819C89.8351 148.696 89.6487 148.683 89.5256 148.79C89.5578 148.827 89.59 148.864 89.6223 148.901C89.6545 148.939 89.6869 148.976 89.7192 149.013C90.3667 149.756 91.0311 150.485 91.7118 151.197C91.7458 151.233 91.7799 151.269 91.814 151.304C91.8481 151.34 91.8823 151.375 91.9165 151.411ZM88.0133 146.97C88.1407 146.869 88.162 146.683 88.0607 146.555C87.4513 145.787 86.8593 145.005 86.2853 144.208C86.19 144.076 86.0056 144.046 85.8732 144.141C85.9018 144.181 85.9305 144.221 85.9592 144.261C85.9879 144.301 86.0167 144.341 86.0455 144.381C86.6222 145.181 87.2169 145.967 87.8291 146.739C87.8597 146.778 87.8904 146.816 87.9211 146.855C87.9518 146.893 87.9825 146.932 88.0133 146.97ZM84.5345 142.19C84.6707 142.101 84.709 141.918 84.6198 141.781C84.084 140.961 83.5666 140.127 83.0681 139.281C82.9854 139.14 82.8046 139.093 82.664 139.176C82.6888 139.218 82.7136 139.261 82.7385 139.303C82.7634 139.346 82.7884 139.388 82.8134 139.431C83.3141 140.281 83.834 141.119 84.3723 141.943C84.3993 141.984 84.4262 142.026 84.4533 142.067C84.4803 142.108 84.5074 142.149 84.5345 142.19ZM81.5109 137.11C81.6548 137.033 81.7098 136.855 81.6336 136.711C81.1761 135.844 80.7379 134.966 80.3197 134.077C80.2503 133.929 80.0747 133.866 79.927 133.935C79.9478 133.98 79.9686 134.024 79.9895 134.069C80.0103 134.114 80.0312 134.158 80.0522 134.203C80.4724 135.096 80.9126 135.978 81.3723 136.849C81.3953 136.892 81.4183 136.936 81.4414 136.979C81.4646 137.023 81.4877 137.066 81.5109 137.11ZM78.9702 131.771C79.1206 131.708 79.1919 131.536 79.1294 131.385C78.7544 130.481 78.3995 129.566 78.0655 128.641C78.0101 128.487 77.8411 128.408 77.6877 128.463C77.7042 128.509 77.7208 128.556 77.7374 128.602C77.754 128.649 77.7707 128.695 77.7875 128.741C78.123 129.67 78.4795 130.59 78.8564 131.498C78.8752 131.544 78.8942 131.589 78.9131 131.635C78.9321 131.68 78.9511 131.726 78.9702 131.771ZM76.936 126.219C77.0916 126.171 77.1786 126.006 77.1304 125.85C76.8413 124.915 76.5731 123.971 76.3264 123.019C76.2855 122.861 76.1246 122.766 75.9668 122.806C75.9789 122.854 75.9911 122.902 76.0033 122.95C76.0156 122.997 76.0279 123.045 76.0402 123.093C76.2881 124.05 76.5575 124.998 76.848 125.937C76.8626 125.984 76.8772 126.031 76.8918 126.078C76.9065 126.125 76.9212 126.172 76.936 126.219ZM75.4272 120.504C75.5866 120.47 75.6886 120.313 75.6551 120.154C75.4543 119.197 75.2749 118.233 75.1176 117.261C75.0915 117.1 74.9401 116.99 74.7792 117.016C74.7868 117.065 74.7946 117.113 74.8023 117.162C74.8101 117.211 74.8179 117.259 74.8258 117.308C74.9839 118.284 75.164 119.253 75.3658 120.214C75.3759 120.263 75.3861 120.311 75.3963 120.359C75.4066 120.407 75.4168 120.455 75.4272 120.504ZM74.4553 114.673C74.6171 114.655 74.7332 114.508 74.7146 114.346C74.6032 113.376 74.5136 112.399 74.4463 111.416C74.4351 111.253 74.2944 111.13 74.1318 111.141C74.135 111.19 74.1382 111.24 74.1414 111.289C74.1447 111.338 74.148 111.387 74.1513 111.436C74.219 112.424 74.309 113.405 74.4209 114.38C74.4265 114.429 74.4322 114.478 74.4379 114.527C74.4436 114.576 74.4494 114.625 74.4553 114.673ZM74.0242 108.779C74.1871 108.775 74.3161 108.639 74.3124 108.476C74.3012 107.986 74.2956 107.493 74.2956 107C74.2956 106.507 74.3012 106.014 74.3124 105.524C74.3161 105.361 74.1871 105.225 74.0242 105.221C74.0229 105.271 74.0216 105.32 74.0204 105.369C74.0191 105.418 74.018 105.468 74.0168 105.517C74.0056 106.01 74 106.504 74 107C74 107.496 74.0056 107.99 74.0168 108.483C74.018 108.532 74.0191 108.582 74.0204 108.631C74.0216 108.68 74.0229 108.729 74.0242 108.779ZM74.1318 102.859C74.2944 102.87 74.4351 102.747 74.4463 102.584C74.5136 101.601 74.6032 100.624 74.7146 99.6539C74.7332 99.4919 74.6171 99.3455 74.4553 99.3265C74.4494 99.3755 74.4436 99.4244 74.4379 99.4733C74.4322 99.5222 74.4265 99.5712 74.4209 99.6201C74.309 100.595 74.219 101.576 74.1513 102.564C74.148 102.613 74.1447 102.662 74.1414 102.711C74.1382 102.76 74.135 102.81 74.1318 102.859ZM74.7792 96.9839C74.9401 97.0096 75.0915 96.9002 75.1176 96.7392C75.2749 95.7674 75.4543 94.8029 75.6551 93.8463C75.6886 93.6868 75.5866 93.5303 75.4272 93.4965C75.4168 93.5446 75.4066 93.5928 75.3963 93.641C75.3861 93.6892 75.3759 93.7374 75.3658 93.7856C75.164 94.7466 74.9839 95.7156 74.8258 96.692C74.8179 96.7406 74.8101 96.7892 74.8023 96.8379C74.7946 96.8866 74.7868 96.9352 74.7792 96.9839ZM75.9668 91.1937C76.1246 91.2342 76.2855 91.1393 76.3264 90.9815C76.5731 90.0289 76.8413 89.085 77.1304 88.1502C77.1786 87.9945 77.0916 87.8292 76.936 87.7807C76.9212 87.8277 76.9065 87.8747 76.8918 87.9217C76.8772 87.9688 76.8626 88.0158 76.848 88.0629C76.5575 89.002 76.2881 89.9503 76.0402 90.9073C76.0279 90.955 76.0156 91.0027 76.0033 91.0505C75.9911 91.0982 75.9789 91.1459 75.9668 91.1937ZM77.6877 85.537C77.8411 85.592 78.0101 85.5125 78.0655 85.3592C78.3995 84.4343 78.7544 83.5193 79.1294 82.6148C79.1919 82.4642 79.1206 82.2915 78.9702 82.2288C78.9511 82.2742 78.9321 82.3196 78.9131 82.3651C78.8942 82.4106 78.8752 82.4561 78.8564 82.5016C78.4795 83.4103 78.1231 84.3295 77.7875 85.2588C77.7707 85.3051 77.754 85.3515 77.7374 85.3978C77.7208 85.4442 77.7042 85.4906 77.6877 85.537ZM79.927 80.065C80.0747 80.134 80.2503 80.0705 80.3197 79.923C80.7379 79.0337 81.1761 78.1556 81.6336 77.2893C81.7098 77.1452 81.6548 76.9666 81.5109 76.8902C81.4877 76.9337 81.4646 76.9771 81.4414 77.0207C81.4183 77.0642 81.3953 77.1077 81.3723 77.1513C80.9126 78.0216 80.4724 78.9037 80.0522 79.7972C80.0313 79.8418 80.0103 79.8864 79.9895 79.931C79.9686 79.9756 79.9478 80.0203 79.927 80.065ZM82.664 74.8245C82.8046 74.9068 82.9854 74.8599 83.0681 74.7194C83.5666 73.8731 84.084 73.0392 84.6198 72.2185C84.709 72.082 84.6707 71.8992 84.5345 71.8098C84.5074 71.8509 84.4803 71.8921 84.4533 71.9332C84.4262 71.9744 84.3993 72.0157 84.3723 72.0569C83.834 72.8814 83.3141 73.7191 82.8134 74.5694C82.7884 74.6118 82.7634 74.6543 82.7385 74.6968C82.7136 74.7394 82.6888 74.7819 82.664 74.8245ZM85.8732 69.8593C86.0056 69.9542 86.1899 69.9242 86.2853 69.7919C86.8593 68.9954 87.4513 68.2128 88.0607 67.4445C88.162 67.3168 88.1407 67.1312 88.0133 67.0296C87.9825 67.0681 87.9518 67.1066 87.9211 67.1451C87.8904 67.1836 87.8597 67.2222 87.8291 67.2608C87.2169 68.0326 86.6222 68.8189 86.0455 69.619C86.0167 69.659 85.9879 69.699 85.9592 69.739C85.9305 69.7791 85.9018 69.8192 85.8732 69.8593ZM89.5256 65.2104C89.6487 65.3172 89.8351 65.3042 89.9421 65.1812C90.5867 64.4412 91.248 63.7161 91.9256 63.0067C92.0382 62.8888 92.034 62.7021 91.9165 62.5892C91.8823 62.6247 91.8481 62.6602 91.814 62.6958C91.7799 62.7313 91.7458 62.7669 91.7118 62.8025C91.0311 63.5152 90.3667 64.2436 89.7192 64.9871C89.6869 65.0242 89.6545 65.0614 89.6223 65.0986C89.59 65.1359 89.5578 65.1731 89.5256 65.2104ZM93.5892 60.9165C93.702 61.034 93.8888 61.0382 94.0067 60.9256C94.7161 60.248 95.4412 59.5867 96.1812 58.9421C96.3042 58.8351 96.3172 58.6487 96.2104 58.5256C96.1731 58.5578 96.1359 58.59 96.0986 58.6223C96.0614 58.6545 96.0242 58.6869 95.9871 58.7192C95.2436 59.3667 94.5152 60.0311 93.8025 60.7118C93.7669 60.7458 93.7313 60.7799 93.6958 60.814C93.6602 60.8481 93.6247 60.8823 93.5892 60.9165ZM98.0296 57.0133C98.1312 57.1407 98.3168 57.162 98.4445 57.0607C99.2128 56.4513 99.9954 55.8593 100.792 55.2853C100.924 55.19 100.954 55.0056 100.859 54.8732C100.819 54.9018 100.779 54.9305 100.739 54.9592C100.699 54.9879 100.659 55.0167 100.619 55.0455C99.8189 55.6222 99.0326 56.2169 98.2608 56.8291C98.2222 56.8597 98.1836 56.8904 98.1451 56.9211C98.1066 56.9518 98.0681 56.9825 98.0296 57.0133ZM102.81 53.5345C102.899 53.6707 103.082 53.709 103.219 53.6198C104.039 53.084 104.873 52.5666 105.719 52.0681C105.86 51.9854 105.907 51.8046 105.824 51.664C105.782 51.6888 105.739 51.7136 105.697 51.7385C105.654 51.7634 105.612 51.7884 105.569 51.8134C104.719 52.3141 103.881 52.834 103.057 53.3723C103.016 53.3993 102.974 53.4262 102.933 53.4533C102.892 53.4803 102.851 53.5074 102.81 53.5345ZM107.89 50.5109C107.967 50.6548 108.145 50.7098 108.289 50.6336C109.156 50.1761 110.034 49.7379 110.923 49.3197C111.071 49.2503 111.134 49.0747 111.065 48.927C111.02 48.9478 110.976 48.9686 110.931 48.9895C110.886 49.0103 110.842 49.0312 110.797 49.0522C109.904 49.4724 109.022 49.9126 108.151 50.3723C108.108 50.3953 108.064 50.4183 108.021 50.4414C107.977 50.4645 107.934 50.4877 107.89 50.5109ZM113.229 47.9702C113.292 48.1206 113.464 48.1919 113.615 48.1294C114.519 47.7544 115.434 47.3995 116.359 47.0655C116.513 47.0101 116.592 46.8411 116.537 46.6877C116.491 46.7042 116.444 46.7208 116.398 46.7374C116.351 46.754 116.305 46.7707 116.259 46.7875C115.33 47.123 114.41 47.4795 113.502 47.8564C113.456 47.8752 113.411 47.8942 113.365 47.9131C113.32 47.9321 113.274 47.9511 113.229 47.9702ZM118.781 45.936C118.829 46.0916 118.994 46.1786 119.15 46.1304C120.085 45.8413 121.029 45.5731 121.981 45.3264C122.139 45.2855 122.234 45.1246 122.194 44.9668C122.146 44.9789 122.098 44.9911 122.05 45.0033C122.003 45.0156 121.955 45.0279 121.907 45.0402C120.95 45.2881 120.002 45.5575 119.063 45.848C119.016 45.8626 118.969 45.8772 118.922 45.8918C118.875 45.9065 118.828 45.9212 118.781 45.936ZM124.496 44.4272C124.53 44.5866 124.687 44.6886 124.846 44.6551C125.803 44.4543 126.767 44.2749 127.739 44.1176C127.9 44.0915 128.01 43.9401 127.984 43.7792C127.935 43.7868 127.887 43.7946 127.838 43.8023C127.789 43.8101 127.741 43.8179 127.692 43.8258C126.716 43.9839 125.747 44.164 124.786 44.3658C124.737 44.3759 124.689 44.3861 124.641 44.3963C124.593 44.4066 124.545 44.4168 124.496 44.4272ZM130.327 43.4553C130.345 43.6171 130.492 43.7332 130.654 43.7146C131.624 43.6032 132.601 43.5136 133.584 43.4463C133.747 43.4351 133.87 43.2944 133.859 43.1318C133.81 43.135 133.76 43.1382 133.711 43.1414C133.662 43.1447 133.613 43.148 133.564 43.1513C132.576 43.219 131.595 43.309 130.62 43.4209C130.571 43.4265 130.522 43.4322 130.473 43.4379C130.424 43.4436 130.375 43.4494 130.327 43.4553ZM136.221 43.0242C136.225 43.1871 136.361 43.3161 136.524 43.3124C137.014 43.3012 137.507 43.2956 138 43.2956C138.493 43.2956 138.986 43.3012 139.476 43.3124C139.639 43.3161 139.775 43.1871 139.779 43.0242C139.729 43.0229 139.68 43.0216 139.631 43.0204C139.582 43.0191 139.532 43.018 139.483 43.0168C138.99 43.0056 138.496 43 138 43C137.504 43 137.01 43.0056 136.517 43.0168C136.468 43.018 136.418 43.0191 136.369 43.0204C136.32 43.0216 136.271 43.0229 136.221 43.0242ZM142.141 43.1318C142.13 43.2944 142.253 43.4351 142.416 43.4463C143.399 43.5136 144.376 43.6032 145.346 43.7146C145.508 43.7332 145.655 43.6171 145.673 43.4553C145.625 43.4494 145.576 43.4436 145.527 43.4379C145.478 43.4322 145.429 43.4265 145.38 43.4209C144.405 43.309 143.424 43.219 142.436 43.1513C142.387 43.148 142.338 43.1447 142.289 43.1414C142.24 43.1382 142.19 43.135 142.141 43.1318ZM148.016 43.7792C147.99 43.9401 148.1 44.0915 148.261 44.1176C149.233 44.2749 150.197 44.4543 151.154 44.6551C151.313 44.6886 151.47 44.5866 151.504 44.4272C151.455 44.4168 151.407 44.4066 151.359 44.3963C151.311 44.3861 151.263 44.3759 151.214 44.3658C150.253 44.164 149.284 43.9839 148.308 43.8258C148.259 43.8179 148.211 43.8101 148.162 43.8023C148.113 43.7946 148.065 43.7868 148.016 43.7792ZM153.806 44.9668C153.766 45.1246 153.861 45.2855 154.019 45.3264C154.971 45.5731 155.915 45.8413 156.85 46.1304C157.006 46.1786 157.171 46.0916 157.219 45.936C157.172 45.9212 157.125 45.9065 157.078 45.8918C157.031 45.8772 156.984 45.8626 156.937 45.848C155.998 45.5575 155.05 45.2881 154.093 45.0402C154.045 45.0279 153.997 45.0156 153.95 45.0033C153.902 44.9911 153.854 44.9789 153.806 44.9668ZM159.463 46.6877C159.408 46.8411 159.487 47.0101 159.641 47.0655C160.566 47.3995 161.481 47.7544 162.385 48.1294C162.536 48.1919 162.708 48.1206 162.771 47.9702C162.726 47.9511 162.68 47.9321 162.635 47.9131C162.589 47.8942 162.544 47.8752 162.498 47.8564C161.59 47.4795 160.67 47.123 159.741 46.7875C159.695 46.7707 159.649 46.754 159.602 46.7374C159.556 46.7208 159.509 46.7042 159.463 46.6877ZM164.935 48.927C164.866 49.0747 164.929 49.2503 165.077 49.3197C165.966 49.7379 166.844 50.1761 167.711 50.6336C167.855 50.7098 168.033 50.6548 168.11 50.5109C168.066 50.4877 168.023 50.4646 167.979 50.4414C167.936 50.4183 167.892 50.3953 167.849 50.3723C166.978 49.9126 166.096 49.4724 165.203 49.0522C165.158 49.0312 165.114 49.0103 165.069 48.9895C165.024 48.9686 164.98 48.9478 164.935 48.927ZM170.176 51.664C170.093 51.8046 170.14 51.9854 170.281 52.0681C171.127 52.5666 171.961 53.084 172.781 53.6198C172.918 53.709 173.101 53.6707 173.19 53.5345C173.149 53.5074 173.108 53.4803 173.067 53.4533C173.026 53.4262 172.984 53.3993 172.943 53.3723C172.119 52.834 171.281 52.3141 170.431 51.8134C170.388 51.7884 170.346 51.7634 170.303 51.7385C170.261 51.7136 170.218 51.6888 170.176 51.664ZM175.141 54.8732C175.046 55.0056 175.076 55.1899 175.208 55.2853C176.005 55.8593 176.787 56.4513 177.555 57.0607C177.683 57.162 177.869 57.1407 177.97 57.0133C177.932 56.9825 177.893 56.9518 177.855 56.9211C177.816 56.8904 177.778 56.8597 177.739 56.8291C176.967 56.2169 176.181 55.6222 175.381 55.0455C175.341 55.0167 175.301 54.9879 175.261 54.9592C175.221 54.9305 175.181 54.9018 175.141 54.8732ZM179.79 58.5256C179.683 58.6487 179.696 58.8351 179.819 58.9421C180.559 59.5867 181.284 60.248 181.993 60.9256C182.111 61.0382 182.298 61.034 182.411 60.9165C182.375 60.8823 182.34 60.8481 182.304 60.814C182.269 60.7799 182.233 60.7458 182.197 60.7118C181.485 60.0311 180.756 59.3667 180.013 58.7192C179.976 58.6869 179.939 58.6545 179.901 58.6223C179.864 58.59 179.827 58.5578 179.79 58.5256ZM184.084 62.5892C183.966 62.7021 183.962 62.8888 184.074 63.0067C184.752 63.7161 185.413 64.4412 186.058 65.1812C186.165 65.3042 186.351 65.3172 186.474 65.2104C186.442 65.1731 186.41 65.1359 186.378 65.0986C186.345 65.0614 186.313 65.0242 186.281 64.9871C185.633 64.2436 184.969 63.5152 184.288 62.8025C184.254 62.7669 184.22 62.7313 184.186 62.6958C184.152 62.6602 184.118 62.6247 184.084 62.5892ZM187.987 67.0296C187.859 67.1312 187.838 67.3168 187.939 67.4445C188.549 68.2128 189.141 68.9954 189.715 69.7919C189.81 69.9241 189.994 69.9542 190.127 69.8593C190.098 69.8191 190.07 69.7791 190.041 69.739C190.012 69.699 189.983 69.659 189.955 69.619C189.378 68.8189 188.783 68.0326 188.171 67.2608C188.14 67.2222 188.11 67.1836 188.079 67.1451C188.048 67.1066 188.017 67.0681 187.987 67.0296ZM191.465 71.8098C191.329 71.8992 191.291 72.082 191.38 72.2185C191.916 73.0392 192.433 73.8731 192.932 74.7194C193.015 74.8599 193.195 74.9068 193.336 74.8245C193.311 74.7819 193.286 74.7394 193.261 74.6968C193.237 74.6543 193.212 74.6118 193.187 74.5694C192.686 73.7191 192.166 72.8814 191.628 72.0569C191.601 72.0157 191.574 71.9744 191.547 71.9332C191.52 71.8921 191.493 71.8509 191.465 71.8098ZM194.489 76.8902C194.345 76.9666 194.29 77.1452 194.366 77.2893C194.824 78.1556 195.262 79.0337 195.68 79.923C195.75 80.0705 195.925 80.134 196.073 80.065C196.052 80.0203 196.031 79.9756 196.011 79.931C195.99 79.8864 195.969 79.8418 195.948 79.7972C195.528 78.9037 195.087 78.0216 194.628 77.1513C194.605 77.1077 194.582 77.0642 194.559 77.0207C194.535 76.9771 194.512 76.9337 194.489 76.8902ZM197.03 82.2288C196.879 82.2915 196.808 82.4642 196.871 82.6148C197.246 83.5193 197.6 84.4343 197.935 85.3592C197.99 85.5125 198.159 85.592 198.312 85.537C198.296 85.4906 198.279 85.4442 198.263 85.3978C198.246 85.3515 198.229 85.3051 198.213 85.2588C197.877 84.3295 197.52 83.4103 197.144 82.5016C197.125 82.4561 197.106 82.4106 197.087 82.3651C197.068 82.3196 197.049 82.2742 197.03 82.2288ZM199.064 87.7807C198.908 87.8292 198.821 87.9945 198.87 88.1502C199.159 89.085 199.427 90.0289 199.674 90.9815C199.715 91.1393 199.875 91.2342 200.033 91.1937C200.021 91.1459 200.009 91.0982 199.997 91.0505C199.984 91.0027 199.972 90.955 199.96 90.9073C199.712 89.9503 199.442 89.002 199.152 88.0629C199.137 88.0158 199.123 87.9688 199.108 87.9217C199.093 87.8747 199.079 87.8277 199.064 87.7807ZM200.573 93.4965C200.413 93.5303 200.311 93.6868 200.345 93.8463C200.546 94.8029 200.725 95.7674 200.882 96.7392C200.908 96.9002 201.06 97.0096 201.221 96.9839C201.213 96.9352 201.205 96.8866 201.198 96.8379C201.19 96.7892 201.182 96.7406 201.174 96.692C201.016 95.7156 200.836 94.7466 200.634 93.7856C200.624 93.7374 200.614 93.6892 200.604 93.641C200.593 93.5928 200.583 93.5446 200.573 93.4965ZM201.868 102.859C201.865 102.81 201.862 102.76 201.859 102.711C201.855 102.662 201.852 102.613 201.849 102.564C201.781 101.576 201.691 100.595 201.579 99.6201C201.573 99.5712 201.568 99.5222 201.562 99.4733C201.556 99.4244 201.551 99.3754 201.545 99.3265C201.383 99.3455 201.267 99.4919 201.285 99.6539C201.397 100.624 201.486 101.601 201.554 102.584C201.565 102.747 201.706 102.87 201.868 102.859Z" fill="white" fill-opacity="0.5"/>
<path fill-rule="evenodd" clip-rule="evenodd" d="M138 127.397C149.265 127.397 158.397 118.265 158.397 107C158.397 95.735 149.265 86.6029 138 86.6029C126.735 86.6029 117.603 95.735 117.603 107C117.603 118.265 126.735 127.397 138 127.397ZM138 142.178C157.428 142.178 173.178 126.428 173.178 107C173.178 87.5719 157.428 71.8223 138 71.8223C118.572 71.8223 102.822 87.5719 102.822 107C102.822 126.428 118.572 142.178 138 142.178Z" fill="white" fill-opacity="0.5"/>
<path d="M384.047 271C384.573 271 385 270.573 385 270.046C385 269.519 384.573 269.092 384.047 269.092C383.52 269.092 383.093 269.519 383.093 270.046C383.093 270.573 383.52 271 384.047 271Z" fill="white" fill-opacity="0.5"/>
<path d="M369.48 271C370.006 271 370.433 270.573 370.433 270.046C370.433 269.519 370.006 269.092 369.48 269.092C368.953 269.092 368.527 269.519 368.527 270.046C368.527 270.573 368.953 271 369.48 271Z" fill="white" fill-opacity="0.5"/>
<path d="M355.867 270.046C355.867 270.573 355.44 271 354.913 271C354.387 271 353.96 270.573 353.96 270.046C353.96 269.519 354.387 269.092 354.913 269.092C355.44 269.092 355.867 269.519 355.867 270.046Z" fill="white" fill-opacity="0.5"/>
<path d="M341.303 270.046C341.303 270.573 340.877 271 340.35 271C339.824 271 339.397 270.573 339.397 270.046C339.397 269.519 339.824 269.092 340.35 269.092C340.877 269.092 341.303 269.519 341.303 270.046Z" fill="white" fill-opacity="0.5"/>
<path d="M326.737 270.046C326.737 270.573 326.31 271 325.783 271C325.257 271 324.83 270.573 324.83 270.046C324.83 269.519 325.257 269.092 325.783 269.092C326.31 269.092 326.737 269.519 326.737 270.046Z" fill="white" fill-opacity="0.5"/>
<path d="M311.217 271C311.743 271 312.17 270.573 312.17 270.046C312.17 269.519 311.743 269.092 311.217 269.092C310.69 269.092 310.263 269.519 310.263 270.046C310.263 270.573 310.69 271 311.217 271Z" fill="white" fill-opacity="0.5"/>
<path d="M296.653 271C297.18 271 297.607 270.573 297.607 270.046C297.607 269.519 297.18 269.092 296.653 269.092C296.127 269.092 295.7 269.519 295.7 270.046C295.7 270.573 296.127 271 296.653 271Z" fill="white" fill-opacity="0.5"/>
<path d="M283.04 270.046C283.04 270.573 282.613 271 282.087 271C281.56 271 281.133 270.573 281.133 270.046C281.133 269.519 281.56 269.092 282.087 269.092C282.613 269.092 283.04 269.519 283.04 270.046Z" fill="white" fill-opacity="0.5"/>
<path d="M268.473 270.046C268.473 270.573 268.047 271 267.52 271C266.994 271 266.567 270.573 266.567 270.046C266.567 269.519 266.994 269.092 267.52 269.092C268.047 269.092 268.473 269.519 268.473 270.046Z" fill="white" fill-opacity="0.5"/>
<path d="M253.907 270.046C253.907 270.573 253.48 271 252.953 271C252.427 271 252 270.573 252 270.046C252 269.519 252.427 269.092 252.953 269.092C253.48 269.092 253.907 269.519 253.907 270.046Z" fill="white" fill-opacity="0.5"/>
<path d="M385 259.311C385 259.838 384.573 260.265 384.047 260.265C383.52 260.265 383.093 259.838 383.093 259.311C383.093 258.784 383.52 258.357 384.047 258.357C384.573 258.357 385 258.784 385 259.311Z" fill="white" fill-opacity="0.5"/>
<path d="M370.433 259.311C370.433 259.838 370.006 260.265 369.48 260.265C368.953 260.265 368.527 259.838 368.527 259.311C368.527 258.784 368.953 258.357 369.48 258.357C370.006 258.357 370.433 258.784 370.433 259.311Z" fill="white" fill-opacity="0.5"/>
<path d="M355.867 259.311C355.867 259.838 355.44 260.265 354.913 260.265C354.387 260.265 353.96 259.838 353.96 259.311C353.96 258.784 354.387 258.357 354.913 258.357C355.44 258.357 355.867 258.784 355.867 259.311Z" fill="white" fill-opacity="0.5"/>
<path d="M341.303 259.311C341.303 259.838 340.877 260.265 340.35 260.265C339.824 260.265 339.397 259.838 339.397 259.311C339.397 258.784 339.824 258.357 340.35 258.357C340.877 258.357 341.303 258.784 341.303 259.311Z" fill="white" fill-opacity="0.5"/>
<path d="M326.737 259.311C326.737 259.838 326.31 260.265 325.783 260.265C325.257 260.265 324.83 259.838 324.83 259.311C324.83 258.784 325.257 258.357 325.783 258.357C326.31 258.357 326.737 258.784 326.737 259.311Z" fill="white" fill-opacity="0.5"/>
<path d="M312.17 259.311C312.17 259.838 311.743 260.265 311.217 260.265C310.69 260.265 310.263 259.838 310.263 259.311C310.263 258.784 310.69 258.357 311.217 258.357C311.743 258.357 312.17 258.784 312.17 259.311Z" fill="white" fill-opacity="0.5"/>
<path d="M297.603 259.311C297.603 259.838 297.176 260.265 296.65 260.265C296.123 260.265 295.697 259.838 295.697 259.311C295.697 258.784 296.123 258.357 296.65 258.357C297.176 258.357 297.603 258.784 297.603 259.311Z" fill="white" fill-opacity="0.5"/>
<path d="M283.04 259.311C283.04 259.838 282.613 260.265 282.087 260.265C281.56 260.265 281.133 259.838 281.133 259.311C281.133 258.784 281.56 258.357 282.087 258.357C282.613 258.357 283.04 258.784 283.04 259.311Z" fill="white" fill-opacity="0.5"/>
<path d="M268.473 259.311C268.473 259.838 268.047 260.265 267.52 260.265C266.994 260.265 266.567 259.838 266.567 259.311C266.567 258.784 266.994 258.357 267.52 258.357C268.047 258.357 268.473 258.784 268.473 259.311Z" fill="white" fill-opacity="0.5"/>
<path d="M253.907 259.311C253.907 259.838 253.48 260.265 252.953 260.265C252.427 260.265 252 259.838 252 259.311C252 258.784 252.427 258.357 252.953 258.357C253.48 258.357 253.907 258.784 253.907 259.311Z" fill="white" fill-opacity="0.5"/>
<path d="M385 248.576C385 249.103 384.573 249.53 384.047 249.53C383.52 249.53 383.093 249.103 383.093 248.576C383.093 248.049 383.52 247.622 384.047 247.622C384.573 247.622 385 248.049 385 248.576Z" fill="white" fill-opacity="0.5"/>
<path d="M370.433 248.576C370.433 249.103 370.006 249.53 369.48 249.53C368.953 249.53 368.527 249.103 368.527 248.576C368.527 248.049 368.953 247.622 369.48 247.622C370.006 247.622 370.433 248.049 370.433 248.576Z" fill="white" fill-opacity="0.5"/>
<path d="M355.867 248.576C355.867 249.103 355.44 249.53 354.913 249.53C354.387 249.53 353.96 249.103 353.96 248.576C353.96 248.049 354.387 247.622 354.913 247.622C355.44 247.622 355.867 248.049 355.867 248.576Z" fill="white" fill-opacity="0.5"/>
<path d="M341.303 248.576C341.303 249.103 340.877 249.53 340.35 249.53C339.824 249.53 339.397 249.103 339.397 248.576C339.397 248.049 339.824 247.622 340.35 247.622C340.877 247.622 341.303 248.049 341.303 248.576Z" fill="white" fill-opacity="0.5"/>
<path d="M326.737 248.576C326.737 249.103 326.31 249.53 325.783 249.53C325.257 249.53 324.83 249.103 324.83 248.576C324.83 248.049 325.257 247.622 325.783 247.622C326.31 247.622 326.737 248.049 326.737 248.576Z" fill="white" fill-opacity="0.5"/>
<path d="M312.17 248.576C312.17 249.103 311.743 249.53 311.217 249.53C310.69 249.53 310.263 249.103 310.263 248.576C310.263 248.049 310.69 247.622 311.217 247.622C311.743 247.622 312.17 248.049 312.17 248.576Z" fill="white" fill-opacity="0.5"/>
<path d="M297.603 248.576C297.603 249.103 297.176 249.53 296.65 249.53C296.123 249.53 295.697 249.103 295.697 248.576C295.697 248.049 296.123 247.622 296.65 247.622C297.176 247.622 297.603 248.049 297.603 248.576Z" fill="white" fill-opacity="0.5"/>
<path d="M283.04 248.576C283.04 249.103 282.613 249.53 282.087 249.53C281.56 249.53 281.133 249.103 281.133 248.576C281.133 248.049 281.56 247.622 282.087 247.622C282.613 247.622 283.04 248.049 283.04 248.576Z" fill="white" fill-opacity="0.5"/>
<path d="M268.473 248.576C268.473 249.103 268.047 249.53 267.52 249.53C266.994 249.53 266.567 249.103 266.567 248.576C266.567 248.049 266.994 247.622 267.52 247.622C268.047 247.622 268.473 248.049 268.473 248.576Z" fill="white" fill-opacity="0.5"/>
<path d="M253.907 248.576C253.907 249.103 253.48 249.53 252.953 249.53C252.427 249.53 252 249.103 252 248.576C252 248.049 252.427 247.622 252.953 247.622C253.48 247.622 253.907 248.049 253.907 248.576Z" fill="white" fill-opacity="0.5"/>
<path d="M384.047 238.795C384.573 238.795 385 238.368 385 237.841C385 237.314 384.573 236.887 384.047 236.887C383.52 236.887 383.093 237.314 383.093 237.841C383.093 238.368 383.52 238.795 384.047 238.795Z" fill="white" fill-opacity="0.5"/>
<path d="M369.48 238.795C370.006 238.795 370.433 238.368 370.433 237.841C370.433 237.314 370.006 236.887 369.48 236.887C368.953 236.887 368.527 237.314 368.527 237.841C368.527 238.368 368.953 238.795 369.48 238.795Z" fill="white" fill-opacity="0.5"/>
<path d="M355.867 237.841C355.867 238.368 355.44 238.795 354.913 238.795C354.387 238.795 353.96 238.368 353.96 237.841C353.96 237.314 354.387 236.887 354.913 236.887C355.44 236.887 355.867 237.314 355.867 237.841Z" fill="white" fill-opacity="0.5"/>
<path d="M341.303 237.841C341.303 238.368 340.877 238.795 340.35 238.795C339.824 238.795 339.397 238.368 339.397 237.841C339.397 237.314 339.824 236.887 340.35 236.887C340.877 236.887 341.303 237.314 341.303 237.841Z" fill="white" fill-opacity="0.5"/>
<path d="M326.737 237.841C326.737 238.368 326.31 238.795 325.783 238.795C325.257 238.795 324.83 238.368 324.83 237.841C324.83 237.314 325.257 236.887 325.783 236.887C326.31 236.887 326.737 237.314 326.737 237.841Z" fill="white" fill-opacity="0.5"/>
<path d="M311.217 238.795C311.743 238.795 312.17 238.368 312.17 237.841C312.17 237.314 311.743 236.887 311.217 236.887C310.69 236.887 310.263 237.314 310.263 237.841C310.263 238.368 310.69 238.795 311.217 238.795Z" fill="white" fill-opacity="0.5"/>
<path d="M296.653 238.795C297.18 238.795 297.607 238.368 297.607 237.841C297.607 237.314 297.18 236.887 296.653 236.887C296.127 236.887 295.7 237.314 295.7 237.841C295.7 238.368 296.127 238.795 296.653 238.795Z" fill="white" fill-opacity="0.5"/>
<path d="M283.04 237.841C283.04 238.368 282.613 238.795 282.087 238.795C281.56 238.795 281.133 238.368 281.133 237.841C281.133 237.314 281.56 236.887 282.087 236.887C282.613 236.887 283.04 237.314 283.04 237.841Z" fill="white" fill-opacity="0.5"/>
<path d="M268.473 237.841C268.473 238.368 268.047 238.795 267.52 238.795C266.994 238.795 266.567 238.368 266.567 237.841C266.567 237.314 266.994 236.887 267.52 236.887C268.047 236.887 268.473 237.314 268.473 237.841Z" fill="white" fill-opacity="0.5"/>
<path d="M253.907 237.841C253.907 238.368 253.48 238.795 252.953 238.795C252.427 238.795 252 238.368 252 237.841C252 237.314 252.427 236.887 252.953 236.887C253.48 236.887 253.907 237.314 253.907 237.841Z" fill="white" fill-opacity="0.5"/>
<path d="M384.047 228.057C384.573 228.057 385 227.629 385 227.102C385 226.575 384.573 226.148 384.047 226.148C383.52 226.148 383.093 226.575 383.093 227.102C383.093 227.629 383.52 228.057 384.047 228.057Z" fill="white" fill-opacity="0.5"/>
<path d="M369.48 228.057C370.006 228.057 370.433 227.629 370.433 227.102C370.433 226.575 370.006 226.148 369.48 226.148C368.953 226.148 368.527 226.575 368.527 227.102C368.527 227.629 368.953 228.057 369.48 228.057Z" fill="white" fill-opacity="0.5"/>
<path d="M355.867 227.102C355.867 227.629 355.44 228.057 354.913 228.057C354.387 228.057 353.96 227.629 353.96 227.102C353.96 226.575 354.387 226.148 354.913 226.148C355.44 226.152 355.867 226.579 355.867 227.102Z" fill="white" fill-opacity="0.5"/>
<path d="M341.303 227.102C341.303 227.629 340.877 228.057 340.35 228.057C339.824 228.057 339.397 227.629 339.397 227.102C339.397 226.575 339.824 226.148 340.35 226.148C340.877 226.152 341.303 226.579 341.303 227.102Z" fill="white" fill-opacity="0.5"/>
<path d="M326.737 227.102C326.737 227.629 326.31 228.057 325.783 228.057C325.257 228.057 324.83 227.629 324.83 227.102C324.83 226.575 325.257 226.148 325.783 226.148C326.31 226.152 326.737 226.579 326.737 227.102Z" fill="white" fill-opacity="0.5"/>
<path d="M311.217 228.057C311.743 228.057 312.17 227.629 312.17 227.102C312.17 226.575 311.743 226.148 311.217 226.148C310.69 226.148 310.263 226.575 310.263 227.102C310.263 227.629 310.69 228.057 311.217 228.057Z" fill="white" fill-opacity="0.5"/>
<path d="M296.653 228.057C297.18 228.057 297.607 227.629 297.607 227.102C297.607 226.575 297.18 226.148 296.653 226.148C296.127 226.148 295.7 226.575 295.7 227.102C295.7 227.629 296.127 228.057 296.653 228.057Z" fill="white" fill-opacity="0.5"/>
<path d="M283.04 227.102C283.04 227.629 282.613 228.057 282.087 228.057C281.56 228.057 281.133 227.629 281.133 227.102C281.133 226.575 281.56 226.148 282.087 226.148C282.613 226.148 283.04 226.579 283.04 227.102Z" fill="white" fill-opacity="0.5"/>
<path d="M268.473 227.102C268.473 227.629 268.047 228.057 267.52 228.057C266.994 228.057 266.567 227.629 266.567 227.102C266.567 226.575 266.994 226.148 267.52 226.148C268.047 226.152 268.473 226.579 268.473 227.102Z" fill="white" fill-opacity="0.5"/>
<path d="M253.907 227.102C253.907 227.629 253.48 228.057 252.953 228.057C252.427 228.057 252 227.629 252 227.102C252 226.575 252.427 226.148 252.953 226.148C253.48 226.152 253.907 226.579 253.907 227.102Z" fill="white" fill-opacity="0.5"/>
<path d="M385 216.367C385 216.894 384.573 217.322 384.047 217.322C383.52 217.322 383.093 216.894 383.093 216.367C383.093 215.841 383.52 215.413 384.047 215.413C384.573 215.413 385 215.841 385 216.367Z" fill="white" fill-opacity="0.5"/>
<path d="M370.433 216.367C370.433 216.894 370.006 217.322 369.48 217.322C368.953 217.322 368.527 216.894 368.527 216.367C368.527 215.841 368.953 215.413 369.48 215.413C370.006 215.413 370.433 215.841 370.433 216.367Z" fill="white" fill-opacity="0.5"/>
<path d="M355.867 216.367C355.867 216.894 355.44 217.322 354.913 217.322C354.387 217.322 353.96 216.894 353.96 216.367C353.96 215.841 354.387 215.413 354.913 215.413C355.44 215.413 355.867 215.841 355.867 216.367Z" fill="white" fill-opacity="0.5"/>
<path d="M341.303 216.367C341.303 216.894 340.877 217.322 340.35 217.322C339.824 217.322 339.397 216.894 339.397 216.367C339.397 215.841 339.824 215.413 340.35 215.413C340.877 215.413 341.303 215.841 341.303 216.367Z" fill="white" fill-opacity="0.5"/>
<path d="M326.737 216.367C326.737 216.894 326.31 217.322 325.783 217.322C325.257 217.322 324.83 216.894 324.83 216.367C324.83 215.841 325.257 215.413 325.783 215.413C326.31 215.413 326.737 215.841 326.737 216.367Z" fill="white" fill-opacity="0.5"/>
<path d="M312.17 216.367C312.17 216.894 311.743 217.322 311.217 217.322C310.69 217.322 310.263 216.894 310.263 216.367C310.263 215.841 310.69 215.413 311.217 215.413C311.743 215.413 312.17 215.841 312.17 216.367Z" fill="white" fill-opacity="0.5"/>
<path d="M297.603 216.367C297.603 216.894 297.176 217.322 296.65 217.322C296.123 217.322 295.697 216.894 295.697 216.367C295.697 215.841 296.123 215.413 296.65 215.413C297.176 215.413 297.603 215.841 297.603 216.367Z" fill="white" fill-opacity="0.5"/>
<path d="M283.04 216.367C283.04 216.894 282.613 217.322 282.087 217.322C281.56 217.322 281.133 216.894 281.133 216.367C281.133 215.841 281.56 215.413 282.087 215.413C282.613 215.413 283.04 215.841 283.04 216.367Z" fill="white" fill-opacity="0.5"/>
<path d="M268.473 216.367C268.473 216.894 268.047 217.322 267.52 217.322C266.994 217.322 266.567 216.894 266.567 216.367C266.567 215.841 266.994 215.413 267.52 215.413C268.047 215.413 268.473 215.841 268.473 216.367Z" fill="white" fill-opacity="0.5"/>
<path d="M253.907 216.367C253.907 216.894 253.48 217.322 252.953 217.322C252.427 217.322 252 216.894 252 216.367C252 215.841 252.427 215.413 252.953 215.413C253.48 215.413 253.907 215.841 253.907 216.367Z" fill="white" fill-opacity="0.5"/>
<path d="M385 205.633C385 206.159 384.573 206.587 384.047 206.587C383.52 206.587 383.093 206.159 383.093 205.633C383.093 205.106 383.52 204.678 384.047 204.678C384.573 204.678 385 205.106 385 205.633Z" fill="white" fill-opacity="0.5"/>
<path d="M370.433 205.633C370.433 206.159 370.006 206.587 369.48 206.587C368.953 206.587 368.527 206.159 368.527 205.633C368.527 205.106 368.953 204.678 369.48 204.678C370.006 204.678 370.433 205.106 370.433 205.633Z" fill="white" fill-opacity="0.5"/>
<path d="M355.867 205.633C355.867 206.159 355.44 206.587 354.913 206.587C354.387 206.587 353.96 206.159 353.96 205.633C353.96 205.106 354.387 204.678 354.913 204.678C355.44 204.678 355.867 205.106 355.867 205.633Z" fill="white" fill-opacity="0.5"/>
<path d="M341.303 205.633C341.303 206.159 340.877 206.587 340.35 206.587C339.824 206.587 339.397 206.159 339.397 205.633C339.397 205.106 339.824 204.678 340.35 204.678C340.877 204.678 341.303 205.106 341.303 205.633Z" fill="white" fill-opacity="0.5"/>
<path d="M326.737 205.633C326.737 206.159 326.31 206.587 325.783 206.587C325.257 206.587 324.83 206.159 324.83 205.633C324.83 205.106 325.257 204.678 325.783 204.678C326.31 204.678 326.737 205.106 326.737 205.633Z" fill="white" fill-opacity="0.5"/>
<path d="M312.17 205.633C312.17 206.159 311.743 206.587 311.217 206.587C310.69 206.587 310.263 206.159 310.263 205.633C310.263 205.106 310.69 204.678 311.217 204.678C311.743 204.678 312.17 205.106 312.17 205.633Z" fill="white" fill-opacity="0.5"/>
<path d="M297.603 205.633C297.603 206.159 297.176 206.587 296.65 206.587C296.123 206.587 295.697 206.159 295.697 205.633C295.697 205.106 296.123 204.678 296.65 204.678C297.176 204.678 297.603 205.106 297.603 205.633Z" fill="white" fill-opacity="0.5"/>
<path d="M283.04 205.633C283.04 206.159 282.613 206.587 282.087 206.587C281.56 206.587 281.133 206.159 281.133 205.633C281.133 205.106 281.56 204.678 282.087 204.678C282.613 204.678 283.04 205.106 283.04 205.633Z" fill="white" fill-opacity="0.5"/>
<path d="M268.473 205.633C268.473 206.159 268.047 206.587 267.52 206.587C266.994 206.587 266.567 206.159 266.567 205.633C266.567 205.106 266.994 204.678 267.52 204.678C268.047 204.678 268.473 205.106 268.473 205.633Z" fill="white" fill-opacity="0.5"/>
<path d="M253.907 205.633C253.907 206.159 253.48 206.587 252.953 206.587C252.427 206.587 252 206.159 252 205.633C252 205.106 252.427 204.678 252.953 204.678C253.48 204.678 253.907 205.106 253.907 205.633Z" fill="white" fill-opacity="0.5"/>
<path d="M384.047 195.852C384.573 195.852 385 195.425 385 194.898C385 194.371 384.573 193.943 384.047 193.943C383.52 193.943 383.093 194.371 383.093 194.898C383.093 195.425 383.52 195.852 384.047 195.852Z" fill="white" fill-opacity="0.5"/>
<path d="M369.48 195.852C370.006 195.852 370.433 195.425 370.433 194.898C370.433 194.371 370.006 193.943 369.48 193.943C368.953 193.943 368.527 194.371 368.527 194.898C368.527 195.425 368.953 195.852 369.48 195.852Z" fill="white" fill-opacity="0.5"/>
<path d="M355.867 194.898C355.867 195.425 355.44 195.852 354.913 195.852C354.387 195.852 353.96 195.425 353.96 194.898C353.96 194.371 354.387 193.943 354.913 193.943C355.44 193.943 355.867 194.371 355.867 194.898Z" fill="white" fill-opacity="0.5"/>
<path d="M341.303 194.898C341.303 195.425 340.877 195.852 340.35 195.852C339.824 195.852 339.397 195.425 339.397 194.898C339.397 194.371 339.824 193.943 340.35 193.943C340.877 193.943 341.303 194.371 341.303 194.898Z" fill="white" fill-opacity="0.5"/>
<path d="M326.737 194.898C326.737 195.425 326.31 195.852 325.783 195.852C325.257 195.852 324.83 195.425 324.83 194.898C324.83 194.371 325.257 193.943 325.783 193.943C326.31 193.943 326.737 194.371 326.737 194.898Z" fill="white" fill-opacity="0.5"/>
<path d="M311.217 195.852C311.743 195.852 312.17 195.425 312.17 194.898C312.17 194.371 311.743 193.943 311.217 193.943C310.69 193.943 310.263 194.371 310.263 194.898C310.263 195.425 310.69 195.852 311.217 195.852Z" fill="white" fill-opacity="0.5"/>
<path d="M296.653 195.852C297.18 195.852 297.607 195.425 297.607 194.898C297.607 194.371 297.18 193.943 296.653 193.943C296.127 193.943 295.7 194.371 295.7 194.898C295.7 195.425 296.127 195.852 296.653 195.852Z" fill="white" fill-opacity="0.5"/>
<path d="M283.04 194.898C283.04 195.425 282.613 195.852 282.087 195.852C281.56 195.852 281.133 195.425 281.133 194.898C281.133 194.371 281.56 193.943 282.087 193.943C282.613 193.943 283.04 194.371 283.04 194.898Z" fill="white" fill-opacity="0.5"/>
<path d="M268.473 194.898C268.473 195.425 268.047 195.852 267.52 195.852C266.994 195.852 266.567 195.425 266.567 194.898C266.567 194.371 266.994 193.943 267.52 193.943C268.047 193.943 268.473 194.371 268.473 194.898Z" fill="white" fill-opacity="0.5"/>
<path d="M253.907 194.898C253.907 195.425 253.48 195.852 252.953 195.852C252.427 195.852 252 195.425 252 194.898C252 194.371 252.427 193.943 252.953 193.943C253.48 193.943 253.907 194.371 253.907 194.898Z" fill="white" fill-opacity="0.5"/>
<path d="M385 184.163C385 184.69 384.573 185.117 384.047 185.117C383.52 185.117 383.093 184.69 383.093 184.163C383.093 183.636 383.52 183.208 384.047 183.208C384.573 183.208 385 183.636 385 184.163Z" fill="white" fill-opacity="0.5"/>
<path d="M370.433 184.163C370.433 184.69 370.006 185.117 369.48 185.117C368.953 185.117 368.527 184.69 368.527 184.163C368.527 183.636 368.953 183.208 369.48 183.208C370.006 183.208 370.433 183.636 370.433 184.163Z" fill="white" fill-opacity="0.5"/>
<path d="M355.867 184.163C355.867 184.69 355.44 185.117 354.913 185.117C354.387 185.117 353.96 184.69 353.96 184.163C353.96 183.636 354.387 183.208 354.913 183.208C355.44 183.208 355.867 183.636 355.867 184.163Z" fill="white" fill-opacity="0.5"/>
<path d="M341.303 184.163C341.303 184.69 340.877 185.117 340.35 185.117C339.824 185.117 339.397 184.69 339.397 184.163C339.397 183.636 339.824 183.208 340.35 183.208C340.877 183.208 341.303 183.636 341.303 184.163Z" fill="white" fill-opacity="0.5"/>
<path d="M326.737 184.163C326.737 184.69 326.31 185.117 325.783 185.117C325.257 185.117 324.83 184.69 324.83 184.163C324.83 183.636 325.257 183.208 325.783 183.208C326.31 183.208 326.737 183.636 326.737 184.163Z" fill="white" fill-opacity="0.5"/>
<path d="M312.17 184.163C312.17 184.69 311.743 185.117 311.217 185.117C310.69 185.117 310.263 184.69 310.263 184.163C310.263 183.636 310.69 183.208 311.217 183.208C311.743 183.208 312.17 183.636 312.17 184.163Z" fill="white" fill-opacity="0.5"/>
<path d="M297.603 184.163C297.603 184.69 297.176 185.117 296.65 185.117C296.123 185.117 295.697 184.69 295.697 184.163C295.697 183.636 296.123 183.208 296.65 183.208C297.176 183.208 297.603 183.636 297.603 184.163Z" fill="white" fill-opacity="0.5"/>
<path d="M283.04 184.163C283.04 184.69 282.613 185.117 282.087 185.117C281.56 185.117 281.133 184.69 281.133 184.163C281.133 183.636 281.56 183.208 282.087 183.208C282.613 183.208 283.04 183.636 283.04 184.163Z" fill="white" fill-opacity="0.5"/>
<path d="M268.473 184.163C268.473 184.69 268.047 185.117 267.52 185.117C266.994 185.117 266.567 184.69 266.567 184.163C266.567 183.636 266.994 183.208 267.52 183.208C268.047 183.208 268.473 183.636 268.473 184.163Z" fill="white" fill-opacity="0.5"/>
<path d="M253.907 184.163C253.907 184.69 253.48 185.117 252.953 185.117C252.427 185.117 252 184.69 252 184.163C252 183.636 252.427 183.208 252.953 183.208C253.48 183.208 253.907 183.636 253.907 184.163Z" fill="white" fill-opacity="0.5"/>
<path d="M385 173.428C385 173.955 384.573 174.382 384.047 174.382C383.52 174.382 383.093 173.955 383.093 173.428C383.093 172.901 383.52 172.473 384.047 172.473C384.573 172.473 385 172.901 385 173.428Z" fill="white" fill-opacity="0.5"/>
<path d="M370.433 173.428C370.433 173.955 370.006 174.382 369.48 174.382C368.953 174.382 368.527 173.955 368.527 173.428C368.527 172.901 368.953 172.473 369.48 172.473C370.006 172.473 370.433 172.901 370.433 173.428Z" fill="white" fill-opacity="0.5"/>
<path d="M355.867 173.428C355.867 173.955 355.44 174.382 354.913 174.382C354.387 174.382 353.96 173.955 353.96 173.428C353.96 172.901 354.387 172.473 354.913 172.473C355.44 172.473 355.867 172.901 355.867 173.428Z" fill="white" fill-opacity="0.5"/>
<path d="M341.303 173.428C341.303 173.955 340.877 174.382 340.35 174.382C339.824 174.382 339.397 173.955 339.397 173.428C339.397 172.901 339.824 172.473 340.35 172.473C340.877 172.473 341.303 172.901 341.303 173.428Z" fill="white" fill-opacity="0.5"/>
<path d="M326.737 173.428C326.737 173.955 326.31 174.382 325.783 174.382C325.257 174.382 324.83 173.955 324.83 173.428C324.83 172.901 325.257 172.473 325.783 172.473C326.31 172.473 326.737 172.901 326.737 173.428Z" fill="white" fill-opacity="0.5"/>
<path d="M312.17 173.428C312.17 173.955 311.743 174.382 311.217 174.382C310.69 174.382 310.263 173.955 310.263 173.428C310.263 172.901 310.69 172.473 311.217 172.473C311.743 172.473 312.17 172.901 312.17 173.428Z" fill="white" fill-opacity="0.5"/>
<path d="M297.603 173.428C297.603 173.955 297.176 174.382 296.65 174.382C296.123 174.382 295.697 173.955 295.697 173.428C295.697 172.901 296.123 172.473 296.65 172.473C297.176 172.473 297.603 172.901 297.603 173.428Z" fill="white" fill-opacity="0.5"/>
<path d="M283.04 173.428C283.04 173.955 282.613 174.382 282.087 174.382C281.56 174.382 281.133 173.955 281.133 173.428C281.133 172.901 281.56 172.473 282.087 172.473C282.613 172.473 283.04 172.901 283.04 173.428Z" fill="white" fill-opacity="0.5"/>
<path d="M268.473 173.428C268.473 173.955 268.047 174.382 267.52 174.382C266.994 174.382 266.567 173.955 266.567 173.428C266.567 172.901 266.994 172.473 267.52 172.473C268.047 172.473 268.473 172.901 268.473 173.428Z" fill="white" fill-opacity="0.5"/>
<path d="M253.907 173.428C253.907 173.955 253.48 174.382 252.953 174.382C252.427 174.382 252 173.955 252 173.428C252 172.901 252.427 172.473 252.953 172.473C253.48 172.473 253.907 172.901 253.907 173.428Z" fill="white" fill-opacity="0.5"/>
<path d="M385 162.693C385 163.22 384.573 163.647 384.047 163.647C383.52 163.647 383.093 163.22 383.093 162.693C383.093 162.166 383.52 161.739 384.047 161.739C384.573 161.739 385 162.166 385 162.693Z" fill="white" fill-opacity="0.5"/>
<path d="M370.433 162.693C370.433 163.22 370.006 163.647 369.48 163.647C368.953 163.647 368.527 163.22 368.527 162.693C368.527 162.166 368.953 161.739 369.48 161.739C370.006 161.739 370.433 162.166 370.433 162.693Z" fill="white" fill-opacity="0.5"/>
<path d="M355.867 162.693C355.867 163.22 355.44 163.647 354.913 163.647C354.387 163.647 353.96 163.22 353.96 162.693C353.96 162.166 354.387 161.739 354.913 161.739C355.44 161.739 355.867 162.166 355.867 162.693Z" fill="white" fill-opacity="0.5"/>
<path d="M341.303 162.693C341.303 163.22 340.877 163.647 340.35 163.647C339.824 163.647 339.397 163.22 339.397 162.693C339.397 162.166 339.824 161.739 340.35 161.739C340.877 161.739 341.303 162.166 341.303 162.693Z" fill="white" fill-opacity="0.5"/>
<path d="M326.737 162.693C326.737 163.22 326.31 163.647 325.783 163.647C325.257 163.647 324.83 163.22 324.83 162.693C324.83 162.166 325.257 161.739 325.783 161.739C326.31 161.739 326.737 162.166 326.737 162.693Z" fill="white" fill-opacity="0.5"/>
<path d="M312.17 162.693C312.17 163.22 311.743 163.647 311.217 163.647C310.69 163.647 310.263 163.22 310.263 162.693C310.263 162.166 310.69 161.739 311.217 161.739C311.743 161.739 312.17 162.166 312.17 162.693Z" fill="white" fill-opacity="0.5"/>
<path d="M297.603 162.693C297.603 163.22 297.176 163.647 296.65 163.647C296.123 163.647 295.697 163.22 295.697 162.693C295.697 162.166 296.123 161.739 296.65 161.739C297.176 161.739 297.603 162.166 297.603 162.693Z" fill="white" fill-opacity="0.5"/>
<path d="M283.04 162.693C283.04 163.22 282.613 163.647 282.087 163.647C281.56 163.647 281.133 163.22 281.133 162.693C281.133 162.166 281.56 161.739 282.087 161.739C282.613 161.739 283.04 162.166 283.04 162.693Z" fill="white" fill-opacity="0.5"/>
<path d="M268.473 162.693C268.473 163.22 268.047 163.647 267.52 163.647C266.994 163.647 266.567 163.22 266.567 162.693C266.567 162.166 266.994 161.739 267.52 161.739C268.047 161.739 268.473 162.166 268.473 162.693Z" fill="white" fill-opacity="0.5"/>
<path d="M253.907 162.693C253.907 163.22 253.48 163.647 252.953 163.647C252.427 163.647 252 163.22 252 162.693C252 162.166 252.427 161.739 252.953 161.739C253.48 161.739 253.907 162.166 253.907 162.693Z" fill="white" fill-opacity="0.5"/>
<path d="M384.047 152.908C384.573 152.908 385 152.481 385 151.954C385 151.427 384.573 151 384.047 151C383.52 151 383.093 151.427 383.093 151.954C383.093 152.481 383.52 152.908 384.047 152.908Z" fill="white" fill-opacity="0.5"/>
<path d="M369.48 152.908C370.006 152.908 370.433 152.481 370.433 151.954C370.433 151.427 370.006 151 369.48 151C368.953 151 368.527 151.427 368.527 151.954C368.527 152.481 368.953 152.908 369.48 152.908Z" fill="white" fill-opacity="0.5"/>
<path d="M355.867 151.954C355.867 152.481 355.44 152.908 354.913 152.908C354.387 152.908 353.96 152.481 353.96 151.954C353.96 151.427 354.387 151 354.913 151C355.44 151.004 355.867 151.427 355.867 151.954Z" fill="white" fill-opacity="0.5"/>
<path d="M341.303 151.954C341.303 152.481 340.877 152.908 340.35 152.908C339.824 152.908 339.397 152.481 339.397 151.954C339.397 151.427 339.824 151 340.35 151C340.877 151.004 341.303 151.427 341.303 151.954Z" fill="white" fill-opacity="0.5"/>
<path d="M326.737 151.954C326.737 152.481 326.31 152.908 325.783 152.908C325.257 152.908 324.83 152.481 324.83 151.954C324.83 151.427 325.257 151 325.783 151C326.31 151.004 326.737 151.427 326.737 151.954Z" fill="white" fill-opacity="0.5"/>
<path d="M311.217 152.908C311.743 152.908 312.17 152.481 312.17 151.954C312.17 151.427 311.743 151 311.217 151C310.69 151 310.263 151.427 310.263 151.954C310.263 152.481 310.69 152.908 311.217 152.908Z" fill="white" fill-opacity="0.5"/>
<path d="M296.653 152.908C297.18 152.908 297.607 152.481 297.607 151.954C297.607 151.427 297.18 151 296.653 151C296.127 151 295.7 151.427 295.7 151.954C295.7 152.481 296.127 152.908 296.653 152.908Z" fill="white" fill-opacity="0.5"/>
<path d="M283.04 151.954C283.04 152.481 282.613 152.908 282.087 152.908C281.56 152.908 281.133 152.481 281.133 151.954C281.133 151.427 281.56 151 282.087 151C282.613 151 283.04 151.427 283.04 151.954Z" fill="white" fill-opacity="0.5"/>
<path d="M268.473 151.954C268.473 152.481 268.047 152.908 267.52 152.908C266.994 152.908 266.567 152.481 266.567 151.954C266.567 151.427 266.994 151 267.52 151C268.047 151.004 268.473 151.427 268.473 151.954Z" fill="white" fill-opacity="0.5"/>
<path d="M253.907 151.954C253.907 152.481 253.48 152.908 252.953 152.908C252.427 152.908 252 152.481 252 151.954C252 151.427 252.427 151 252.953 151C253.48 151.004 253.907 151.427 253.907 151.954Z" fill="white" fill-opacity="0.5"/>
<path d="M886.217 84C886.743 84 887.17 83.5728 887.17 83.0458C887.17 82.5188 886.743 82.0915 886.217 82.0915C885.69 82.0915 885.263 82.5188 885.263 83.0458C885.263 83.5728 885.69 84 886.217 84Z" fill="white" fill-opacity="0.5"/>
<path d="M871.653 84C872.18 84 872.607 83.5728 872.607 83.0458C872.607 82.5188 872.18 82.0915 871.653 82.0915C871.127 82.0915 870.7 82.5188 870.7 83.0458C870.7 83.5728 871.127 84 871.653 84Z" fill="white" fill-opacity="0.5"/>
<path d="M858.04 83.0458C858.04 83.5727 857.613 84 857.087 84C856.56 84 856.133 83.5727 856.133 83.0458C856.133 82.5188 856.56 82.0915 857.087 82.0915C857.613 82.0915 858.04 82.5188 858.04 83.0458Z" fill="white" fill-opacity="0.5"/>
<path d="M843.473 83.0458C843.473 83.5727 843.047 84 842.52 84C841.994 84 841.567 83.5727 841.567 83.0458C841.567 82.5188 841.994 82.0915 842.52 82.0915C843.047 82.0915 843.473 82.5188 843.473 83.0458Z" fill="white" fill-opacity="0.5"/>
<path d="M828.907 83.0458C828.907 83.5727 828.48 84 827.953 84C827.427 84 827 83.5727 827 83.0458C827 82.5188 827.427 82.0915 827.953 82.0915C828.48 82.0915 828.907 82.5188 828.907 83.0458Z" fill="white" fill-opacity="0.5"/>
<path d="M887.17 72.3108C887.17 72.8378 886.743 73.265 886.217 73.265C885.69 73.265 885.263 72.8378 885.263 72.3108C885.263 71.7839 885.69 71.3566 886.217 71.3566C886.743 71.3566 887.17 71.7839 887.17 72.3108Z" fill="white" fill-opacity="0.5"/>
<path d="M872.603 72.3108C872.603 72.8378 872.176 73.265 871.65 73.265C871.123 73.265 870.697 72.8378 870.697 72.3108C870.697 71.7839 871.123 71.3566 871.65 71.3566C872.176 71.3566 872.603 71.7839 872.603 72.3108Z" fill="white" fill-opacity="0.5"/>
<path d="M858.04 72.3108C858.04 72.8378 857.613 73.265 857.087 73.265C856.56 73.265 856.133 72.8378 856.133 72.3108C856.133 71.7839 856.56 71.3566 857.087 71.3566C857.613 71.3566 858.04 71.7839 858.04 72.3108Z" fill="white" fill-opacity="0.5"/>
<path d="M843.473 72.3108C843.473 72.8378 843.047 73.265 842.52 73.265C841.994 73.265 841.567 72.8378 841.567 72.3108C841.567 71.7839 841.994 71.3566 842.52 71.3566C843.047 71.3566 843.473 71.7839 843.473 72.3108Z" fill="white" fill-opacity="0.5"/>
<path d="M828.907 72.3108C828.907 72.8378 828.48 73.265 827.953 73.265C827.427 73.265 827 72.8378 827 72.3108C827 71.7839 827.427 71.3566 827.953 71.3566C828.48 71.3566 828.907 71.7839 828.907 72.3108Z" fill="white" fill-opacity="0.5"/>
<path d="M887.17 61.5759C887.17 62.1028 886.743 62.5301 886.217 62.5301C885.69 62.5301 885.263 62.1028 885.263 61.5759C885.263 61.0489 885.69 60.6216 886.217 60.6216C886.743 60.6216 887.17 61.0489 887.17 61.5759Z" fill="white" fill-opacity="0.5"/>
<path d="M872.603 61.5759C872.603 62.1028 872.176 62.5301 871.65 62.5301C871.123 62.5301 870.697 62.1028 870.697 61.5759C870.697 61.0489 871.123 60.6216 871.65 60.6216C872.176 60.6216 872.603 61.0489 872.603 61.5759Z" fill="white" fill-opacity="0.5"/>
<path d="M858.04 61.5759C858.04 62.1028 857.613 62.5301 857.087 62.5301C856.56 62.5301 856.133 62.1028 856.133 61.5759C856.133 61.0489 856.56 60.6216 857.087 60.6216C857.613 60.6216 858.04 61.0489 858.04 61.5759Z" fill="white" fill-opacity="0.5"/>
<path d="M843.473 61.5759C843.473 62.1028 843.047 62.5301 842.52 62.5301C841.994 62.5301 841.567 62.1028 841.567 61.5759C841.567 61.0489 841.994 60.6217 842.52 60.6217C843.047 60.6217 843.473 61.0489 843.473 61.5759Z" fill="white" fill-opacity="0.5"/>
<path d="M828.907 61.5759C828.907 62.1028 828.48 62.5301 827.953 62.5301C827.427 62.5301 827 62.1028 827 61.5759C827 61.0489 827.427 60.6217 827.953 60.6217C828.48 60.6217 828.907 61.0489 828.907 61.5759Z" fill="white" fill-opacity="0.5"/>
<path d="M886.217 51.7952C886.743 51.7952 887.17 51.3679 887.17 50.8409C887.17 50.3139 886.743 49.8867 886.217 49.8867C885.69 49.8867 885.263 50.3139 885.263 50.8409C885.263 51.3679 885.69 51.7952 886.217 51.7952Z" fill="white" fill-opacity="0.5"/>
<path d="M871.653 51.7952C872.18 51.7952 872.607 51.3679 872.607 50.8409C872.607 50.3139 872.18 49.8867 871.653 49.8867C871.127 49.8867 870.7 50.3139 870.7 50.8409C870.7 51.3679 871.127 51.7952 871.653 51.7952Z" fill="white" fill-opacity="0.5"/>
<path d="M858.04 50.8409C858.04 51.3679 857.613 51.7952 857.087 51.7952C856.56 51.7952 856.133 51.3679 856.133 50.8409C856.133 50.314 856.56 49.8867 857.087 49.8867C857.613 49.8867 858.04 50.314 858.04 50.8409Z" fill="white" fill-opacity="0.5"/>
<path d="M843.473 50.8409C843.473 51.3679 843.047 51.7952 842.52 51.7952C841.994 51.7952 841.567 51.3679 841.567 50.8409C841.567 50.314 841.994 49.8867 842.52 49.8867C843.047 49.8867 843.473 50.314 843.473 50.8409Z" fill="white" fill-opacity="0.5"/>
<path d="M828.907 50.8409C828.907 51.3679 828.48 51.7952 827.953 51.7952C827.427 51.7952 827 51.3679 827 50.8409C827 50.314 827.427 49.8867 827.953 49.8867C828.48 49.8867 828.907 50.314 828.907 50.8409Z" fill="white" fill-opacity="0.5"/>
<path d="M886.217 41.0566C886.743 41.0566 887.17 40.6294 887.17 40.1024C887.17 39.5754 886.743 39.1482 886.217 39.1482C885.69 39.1482 885.263 39.5754 885.263 40.1024C885.263 40.6294 885.69 41.0566 886.217 41.0566Z" fill="white" fill-opacity="0.5"/>
<path d="M871.653 41.0566C872.18 41.0566 872.607 40.6294 872.607 40.1024C872.607 39.5754 872.18 39.1482 871.653 39.1482C871.127 39.1482 870.7 39.5754 870.7 40.1024C870.7 40.6294 871.127 41.0566 871.653 41.0566Z" fill="white" fill-opacity="0.5"/>
<path d="M858.04 40.1024C858.04 40.6294 857.613 41.0566 857.087 41.0566C856.56 41.0566 856.133 40.6294 856.133 40.1024C856.133 39.5755 856.56 39.1482 857.087 39.1482C857.613 39.1482 858.04 39.579 858.04 40.1024Z" fill="white" fill-opacity="0.5"/>
<path d="M843.473 40.1024C843.473 40.6294 843.047 41.0566 842.52 41.0566C841.994 41.0566 841.567 40.6294 841.567 40.1024C841.567 39.5755 841.994 39.1482 842.52 39.1482C843.047 39.1518 843.473 39.579 843.473 40.1024Z" fill="white" fill-opacity="0.5"/>
<path d="M828.907 40.1024C828.907 40.6294 828.48 41.0566 827.953 41.0566C827.427 41.0566 827 40.6294 827 40.1024C827 39.5755 827.427 39.1482 827.953 39.1482C828.48 39.1518 828.907 39.579 828.907 40.1024Z" fill="white" fill-opacity="0.5"/>
<path d="M887.17 29.3675C887.17 29.8944 886.743 30.3217 886.217 30.3217C885.69 30.3217 885.263 29.8944 885.263 29.3675C885.263 28.8405 885.69 28.4132 886.217 28.4132C886.743 28.4132 887.17 28.8405 887.17 29.3675Z" fill="white" fill-opacity="0.5"/>
<path d="M872.603 29.3675C872.603 29.8944 872.176 30.3217 871.65 30.3217C871.123 30.3217 870.697 29.8944 870.697 29.3675C870.697 28.8405 871.123 28.4132 871.65 28.4132C872.176 28.4132 872.603 28.8405 872.603 29.3675Z" fill="white" fill-opacity="0.5"/>
<path d="M858.04 29.3675C858.04 29.8944 857.613 30.3217 857.087 30.3217C856.56 30.3217 856.133 29.8944 856.133 29.3675C856.133 28.8405 856.56 28.4132 857.087 28.4132C857.613 28.4132 858.04 28.8405 858.04 29.3675Z" fill="white" fill-opacity="0.5"/>
<path d="M843.473 29.3675C843.473 29.8944 843.047 30.3217 842.52 30.3217C841.994 30.3217 841.567 29.8944 841.567 29.3675C841.567 28.8405 841.994 28.4132 842.52 28.4132C843.047 28.4132 843.473 28.8405 843.473 29.3675Z" fill="white" fill-opacity="0.5"/>
<path d="M828.907 29.3675C828.907 29.8944 828.48 30.3217 827.953 30.3217C827.427 30.3217 827 29.8944 827 29.3675C827 28.8405 827.427 28.4132 827.953 28.4132C828.48 28.4132 828.907 28.8405 828.907 29.3675Z" fill="white" fill-opacity="0.5"/>
<path d="M887.17 18.6325C887.17 19.1595 886.743 19.5868 886.217 19.5868C885.69 19.5868 885.263 19.1595 885.263 18.6325C885.263 18.1056 885.69 17.6783 886.217 17.6783C886.743 17.6783 887.17 18.1056 887.17 18.6325Z" fill="white" fill-opacity="0.5"/>
<path d="M872.603 18.6325C872.603 19.1595 872.176 19.5868 871.65 19.5868C871.123 19.5868 870.697 19.1595 870.697 18.6325C870.697 18.1056 871.123 17.6783 871.65 17.6783C872.176 17.6783 872.603 18.1056 872.603 18.6325Z" fill="white" fill-opacity="0.5"/>
<path d="M858.04 18.6325C858.04 19.1595 857.613 19.5868 857.087 19.5868C856.56 19.5868 856.133 19.1595 856.133 18.6325C856.133 18.1056 856.56 17.6783 857.087 17.6783C857.613 17.6783 858.04 18.1056 858.04 18.6325Z" fill="white" fill-opacity="0.5"/>
<path d="M843.473 18.6325C843.473 19.1595 843.047 19.5868 842.52 19.5868C841.994 19.5868 841.567 19.1595 841.567 18.6325C841.567 18.1056 841.994 17.6783 842.52 17.6783C843.047 17.6783 843.473 18.1056 843.473 18.6325Z" fill="white" fill-opacity="0.5"/>
<path d="M828.907 18.6325C828.907 19.1595 828.48 19.5868 827.953 19.5868C827.427 19.5868 827 19.1595 827 18.6325C827 18.1056 827.427 17.6783 827.953 17.6783C828.48 17.6783 828.907 18.1056 828.907 18.6325Z" fill="white" fill-opacity="0.5"/>
<path d="M886.217 8.85178C886.743 8.85178 887.17 8.42456 887.17 7.89756C887.17 7.37056 886.743 6.94335 886.217 6.94335C885.69 6.94335 885.263 7.37056 885.263 7.89756C885.263 8.42456 885.69 8.85178 886.217 8.85178Z" fill="white" fill-opacity="0.5"/>
<path d="M871.653 8.85178C872.18 8.85178 872.607 8.42456 872.607 7.89756C872.607 7.37056 872.18 6.94335 871.653 6.94335C871.127 6.94335 870.7 7.37056 870.7 7.89756C870.7 8.42456 871.127 8.85178 871.653 8.85178Z" fill="white" fill-opacity="0.5"/>
<path d="M858.04 7.89756C858.04 8.42452 857.613 8.85178 857.087 8.85178C856.56 8.85178 856.133 8.42452 856.133 7.89756C856.133 7.37061 856.56 6.94335 857.087 6.94335C857.613 6.94335 858.04 7.37061 858.04 7.89756Z" fill="white" fill-opacity="0.5"/>
<path d="M843.473 7.89756C843.473 8.42452 843.047 8.85178 842.52 8.85178C841.994 8.85178 841.567 8.42452 841.567 7.89756C841.567 7.37061 841.994 6.94335 842.52 6.94335C843.047 6.94335 843.473 7.37061 843.473 7.89756Z" fill="white" fill-opacity="0.5"/>
<path d="M828.907 7.89756C828.907 8.42452 828.48 8.85178 827.953 8.85178C827.427 8.85178 827 8.42452 827 7.89756C827 7.37061 827.427 6.94335 827.953 6.94335C828.48 6.94335 828.907 7.37061 828.907 7.89756Z" fill="white" fill-opacity="0.5"/>
<path d="M887.17 -2.83738C887.17 -2.31042 886.743 -1.88317 886.217 -1.88317C885.69 -1.88317 885.263 -2.31042 885.263 -2.83738C885.263 -3.36433 885.69 -3.7916 886.217 -3.7916C886.743 -3.7916 887.17 -3.36433 887.17 -2.83738Z" fill="white" fill-opacity="0.5"/>
<path d="M872.603 -2.83738C872.603 -2.31042 872.176 -1.88317 871.65 -1.88317C871.123 -1.88317 870.697 -2.31042 870.697 -2.83738C870.697 -3.36433 871.123 -3.7916 871.65 -3.7916C872.176 -3.7916 872.603 -3.36433 872.603 -2.83738Z" fill="white" fill-opacity="0.5"/>
<path d="M858.04 -2.83738C858.04 -2.31042 857.613 -1.88317 857.087 -1.88317C856.56 -1.88317 856.133 -2.31042 856.133 -2.83738C856.133 -3.36433 856.56 -3.7916 857.087 -3.7916C857.613 -3.7916 858.04 -3.36433 858.04 -2.83738Z" fill="white" fill-opacity="0.5"/>
<path d="M843.473 -2.83738C843.473 -2.31042 843.047 -1.88317 842.52 -1.88317C841.994 -1.88317 841.567 -2.31042 841.567 -2.83738C841.567 -3.36433 841.994 -3.7916 842.52 -3.7916C843.047 -3.7916 843.473 -3.36433 843.473 -2.83738Z" fill="white" fill-opacity="0.5"/>
<path d="M828.907 -2.83738C828.907 -2.31042 828.48 -1.88317 827.953 -1.88317C827.427 -1.88317 827 -2.31042 827 -2.83738C827 -3.36433 827.427 -3.7916 827.953 -3.7916C828.48 -3.7916 828.907 -3.36433 828.907 -2.83738Z" fill="white" fill-opacity="0.5"/>
<path d="M887.17 -13.5723C887.17 -13.0454 886.743 -12.6181 886.217 -12.6181C885.69 -12.6181 885.263 -13.0454 885.263 -13.5723C885.263 -14.0993 885.69 -14.5265 886.217 -14.5265C886.743 -14.5265 887.17 -14.0993 887.17 -13.5723Z" fill="white" fill-opacity="0.5"/>
<path d="M872.603 -13.5723C872.603 -13.0454 872.176 -12.6181 871.65 -12.6181C871.123 -12.6181 870.697 -13.0454 870.697 -13.5723C870.697 -14.0993 871.123 -14.5265 871.65 -14.5265C872.176 -14.5265 872.603 -14.0993 872.603 -13.5723Z" fill="white" fill-opacity="0.5"/>
<path d="M858.04 -13.5723C858.04 -13.0454 857.613 -12.6181 857.087 -12.6181C856.56 -12.6181 856.133 -13.0454 856.133 -13.5723C856.133 -14.0993 856.56 -14.5265 857.087 -14.5265C857.613 -14.5265 858.04 -14.0993 858.04 -13.5723Z" fill="white" fill-opacity="0.5"/>
<path d="M843.473 -13.5723C843.473 -13.0454 843.047 -12.6181 842.52 -12.6181C841.994 -12.6181 841.567 -13.0454 841.567 -13.5723C841.567 -14.0993 841.994 -14.5265 842.52 -14.5265C843.047 -14.5265 843.473 -14.0993 843.473 -13.5723Z" fill="white" fill-opacity="0.5"/>
<path d="M828.907 -13.5723C828.907 -13.0454 828.48 -12.6181 827.953 -12.6181C827.427 -12.6181 827 -13.0454 827 -13.5723C827 -14.0993 827.427 -14.5265 827.953 -14.5265C828.48 -14.5265 828.907 -14.0993 828.907 -13.5723Z" fill="white" fill-opacity="0.5"/>
<path d="M887.17 -24.3073C887.17 -23.7803 886.743 -23.3531 886.217 -23.3531C885.69 -23.3531 885.263 -23.7803 885.263 -24.3073C885.263 -24.8342 885.69 -25.2615 886.217 -25.2615C886.743 -25.2615 887.17 -24.8342 887.17 -24.3073Z" fill="white" fill-opacity="0.5"/>
<path d="M872.603 -24.3073C872.603 -23.7803 872.176 -23.3531 871.65 -23.3531C871.123 -23.3531 870.697 -23.7803 870.697 -24.3073C870.697 -24.8342 871.123 -25.2615 871.65 -25.2615C872.176 -25.2615 872.603 -24.8342 872.603 -24.3073Z" fill="white" fill-opacity="0.5"/>
<path d="M858.04 -24.3073C858.04 -23.7803 857.613 -23.3531 857.087 -23.3531C856.56 -23.3531 856.133 -23.7803 856.133 -24.3073C856.133 -24.8342 856.56 -25.2615 857.087 -25.2615C857.613 -25.2615 858.04 -24.8342 858.04 -24.3073Z" fill="white" fill-opacity="0.5"/>
<path d="M843.473 -24.3073C843.473 -23.7803 843.047 -23.3531 842.52 -23.3531C841.994 -23.3531 841.567 -23.7803 841.567 -24.3073C841.567 -24.8342 841.994 -25.2615 842.52 -25.2615C843.047 -25.2615 843.473 -24.8342 843.473 -24.3073Z" fill="white" fill-opacity="0.5"/>
<path d="M828.907 -24.3073C828.907 -23.7803 828.48 -23.3531 827.953 -23.3531C827.427 -23.3531 827 -23.7803 827 -24.3073C827 -24.8342 827.427 -25.2615 827.953 -25.2615C828.48 -25.2615 828.907 -24.8342 828.907 -24.3073Z" fill="white" fill-opacity="0.5"/>
<path d="M886.217 -34.0915C886.743 -34.0915 887.17 -34.5188 887.17 -35.0458C887.17 -35.5728 886.743 -36 886.217 -36C885.69 -36 885.263 -35.5728 885.263 -35.0458C885.263 -34.5188 885.69 -34.0915 886.217 -34.0915Z" fill="white" fill-opacity="0.5"/>
<path d="M871.653 -34.0915C872.18 -34.0915 872.607 -34.5188 872.607 -35.0458C872.607 -35.5728 872.18 -36 871.653 -36C871.127 -36 870.7 -35.5728 870.7 -35.0458C870.7 -34.5188 871.127 -34.0915 871.653 -34.0915Z" fill="white" fill-opacity="0.5"/>
<path d="M858.04 -35.0458C858.04 -34.5188 857.613 -34.0915 857.087 -34.0915C856.56 -34.0915 856.133 -34.5188 856.133 -35.0458C856.133 -35.5727 856.56 -36 857.087 -36C857.613 -36 858.04 -35.5727 858.04 -35.0458Z" fill="white" fill-opacity="0.5"/>
<path d="M843.473 -35.0458C843.473 -34.5188 843.047 -34.0915 842.52 -34.0915C841.994 -34.0915 841.567 -34.5188 841.567 -35.0458C841.567 -35.5727 841.994 -36 842.52 -36C843.047 -35.9964 843.473 -35.5727 843.473 -35.0458Z" fill="white" fill-opacity="0.5"/>
<path d="M828.907 -35.0458C828.907 -34.5188 828.48 -34.0915 827.953 -34.0915C827.427 -34.0915 827 -34.5188 827 -35.0458C827 -35.5727 827.427 -36 827.953 -36C828.48 -35.9964 828.907 -35.5727 828.907 -35.0458Z" fill="white" fill-opacity="0.5"/>
</g>
</g>
<defs>
<linearGradient id="paint0_linear_2_251" x1="75.4688" y1="167.5" x2="1155.31" y2="-237.612" gradientUnits="userSpaceOnUse">
<stop stop-color="#49478C"/>
<stop offset="1" stop-color="#9756FF"/>
</linearGradient>
<clipPath id="clip0_2_251">
<rect width="1050" height="201" rx="20" fill="white"/>
</clipPath>
<clipPath id="clip1_2_251">
<rect width="1050" height="201" fill="white"/>
</clipPath>
</defs>
</svg>
