<svg width="332" height="158" viewBox="0 0 332 158" fill="none" xmlns="http://www.w3.org/2000/svg">
<rect width="332" height="158" rx="20" fill="#7851D1"/>
<mask id="mask0_334_927" style="mask-type:alpha" maskUnits="userSpaceOnUse" x="0" y="0" width="332" height="158">
<rect width="332" height="158" rx="20" fill="#D9D9D9"/>
</mask>
<g mask="url(#mask0_334_927)">
<path fill-rule="evenodd" clip-rule="evenodd" d="M88.9796 28.6308C88.9809 28.5816 88.982 28.5323 88.9832 28.4831C88.9944 27.9901 89 27.4957 89 27C89 26.5043 88.9944 26.0099 88.9832 25.5169C88.982 25.4677 88.9809 25.4184 88.9796 25.3692C88.9784 25.3199 88.9771 25.2706 88.9758 25.2214C88.8129 25.2255 88.6839 25.3607 88.6876 25.5236C88.6988 26.0144 88.7044 26.5065 88.7044 27C88.7044 27.4934 88.6988 27.9856 88.6876 28.4763C88.6839 28.6393 88.8129 28.7745 88.9758 28.7786C88.9771 28.7293 88.9784 28.6801 88.9796 28.6308ZM88.8682 31.1412C88.7056 31.1304 88.5649 31.2533 88.5537 31.4159C88.4864 32.399 88.3968 33.3759 88.2854 34.3461C88.2668 34.5081 88.3829 34.6545 88.5447 34.6735C88.5506 34.6245 88.5563 34.5756 88.5621 34.5267C88.5678 34.4778 88.5735 34.4288 88.5791 34.3798C88.691 33.4051 88.781 32.4237 88.8487 31.4361C88.852 31.387 88.8553 31.3378 88.8586 31.2887C88.8618 31.2395 88.865 31.1904 88.8682 31.1412ZM88.2208 37.0161C88.0599 36.9904 87.9085 37.0998 87.8824 37.2608C87.7251 38.2326 87.5457 39.1971 87.3449 40.1537C87.3114 40.3132 87.4134 40.4697 87.5728 40.5035C87.5832 40.4554 87.5934 40.4072 87.6037 40.359C87.6139 40.3108 87.6241 40.2626 87.6342 40.2144C87.836 39.2534 88.0161 38.2844 88.1742 37.308C88.1821 37.2594 88.1899 37.2108 88.1977 37.1621C88.2054 37.1134 88.2132 37.0648 88.2208 37.0161ZM87.0332 42.8063C86.8754 42.7658 86.7145 42.8607 86.6736 43.0185C86.4269 43.9711 86.1587 44.915 85.8696 45.8498C85.8214 46.0055 85.9084 46.1708 86.064 46.2193C86.0788 46.1723 86.0935 46.1253 86.1082 46.0783C86.1228 46.0312 86.1374 45.9842 86.152 45.9371C86.4425 44.998 86.7119 44.0497 86.9598 43.0927C86.9722 43.045 86.9844 42.9973 86.9967 42.9495C87.0089 42.9018 87.0211 42.8541 87.0332 42.8063ZM85.3123 48.463C85.1589 48.408 84.9899 48.4875 84.9345 48.6408C84.6005 49.5657 84.2456 50.4807 83.8706 51.3852C83.8081 51.5358 83.8794 51.7085 84.0298 51.7712C84.0488 51.7258 84.0679 51.6804 84.0869 51.6349C84.1058 51.5894 84.1248 51.5439 84.1436 51.4984C84.5205 50.5897 84.8769 49.6705 85.2125 48.7412C85.2293 48.6949 85.246 48.6485 85.2626 48.6022C85.2792 48.5558 85.2958 48.5094 85.3123 48.463ZM83.073 53.935C82.9253 53.866 82.7496 53.9295 82.6803 54.077C82.2621 54.9663 81.8239 55.8444 81.3664 56.7107C81.2902 56.8548 81.3452 57.0334 81.4891 57.1098C81.5123 57.0663 81.5354 57.0229 81.5586 56.9793C81.5817 56.9358 81.6047 56.8923 81.6277 56.8487C82.0874 55.9784 82.5276 55.0963 82.9478 54.2028C82.9687 54.1582 82.9897 54.1136 83.0105 54.069C83.0314 54.0244 83.0522 53.9797 83.073 53.935ZM80.336 59.1755C80.1954 59.0932 80.0146 59.1401 79.9319 59.2806C79.4334 60.1269 78.916 60.9608 78.3802 61.7815C78.291 61.918 78.3293 62.1008 78.4655 62.1902C78.4926 62.1491 78.5197 62.1079 78.5467 62.0667C78.5738 62.0256 78.6007 61.9843 78.6277 61.9431C79.166 61.1186 79.6858 60.2809 80.1866 59.4306C80.2116 59.3881 80.2365 59.3457 80.2615 59.3032C80.2864 59.2606 80.3112 59.2181 80.336 59.1755ZM77.1268 64.1408C76.9944 64.0458 76.81 64.0758 76.7147 64.2081C76.1407 65.0046 75.5487 65.7872 74.9393 66.5555C74.838 66.6832 74.8593 66.8688 74.9867 66.9704C75.0175 66.9319 75.0482 66.8934 75.0789 66.8549C75.1096 66.8164 75.1403 66.7778 75.1709 66.7392C75.7831 65.9674 76.3778 65.1811 76.9545 64.381C76.9833 64.341 77.0121 64.301 77.0408 64.261C77.0695 64.2209 77.0982 64.1809 77.1268 64.1408ZM73.4744 68.7896C73.3513 68.6828 73.1649 68.6958 73.0579 68.8188C72.4133 69.5588 71.752 70.2839 71.0744 70.9933C70.9618 71.1112 70.966 71.2979 71.0835 71.4108C71.1177 71.3753 71.1519 71.3398 71.186 71.3042C71.2201 71.2687 71.2542 71.2331 71.2882 71.1975C71.9689 70.4848 72.6333 69.7564 73.2808 69.0129C73.3131 68.9758 73.3455 68.9386 73.3777 68.9014C73.41 68.8641 73.4422 68.8269 73.4744 68.7896ZM69.4108 73.0835C69.298 72.966 69.1112 72.9618 68.9933 73.0744C68.2839 73.752 67.5588 74.4133 66.8188 75.0579C66.6958 75.1649 66.6828 75.3513 66.7896 75.4744C66.8269 75.4422 66.8641 75.41 66.9014 75.3777C66.9386 75.3455 66.9758 75.3131 67.0129 75.2808C67.7564 74.6333 68.4848 73.9689 69.1975 73.2882C69.2331 73.2542 69.2687 73.2201 69.3042 73.186C69.3398 73.1519 69.3753 73.1177 69.4108 73.0835ZM64.9704 76.9867C64.8688 76.8592 64.6832 76.838 64.5555 76.9393C63.7872 77.5487 63.0046 78.1407 62.2081 78.7147C62.0759 78.81 62.0458 78.9944 62.1408 79.1268C62.1809 79.0982 62.2209 79.0695 62.261 79.0408C62.301 79.0121 62.341 78.9833 62.381 78.9545C63.1811 78.3778 63.9674 77.7831 64.7392 77.1709C64.7778 77.1403 64.8164 77.1096 64.8549 77.0789C64.8934 77.0482 64.9319 77.0175 64.9704 76.9867ZM60.1902 80.4655C60.1008 80.3293 59.918 80.291 59.7815 80.3802C58.9608 80.916 58.1269 81.4334 57.2806 81.9319C57.1401 82.0146 57.0932 82.1954 57.1755 82.336C57.2181 82.3112 57.2606 82.2864 57.3032 82.2615C57.3457 82.2365 57.3882 82.2116 57.4306 82.1866C58.2809 81.6858 59.1186 81.166 59.9431 80.6277C59.9843 80.6007 60.0256 80.5738 60.0667 80.5467C60.1079 80.5197 60.1491 80.4926 60.1902 80.4655ZM55.1098 83.4891C55.0334 83.3452 54.8548 83.2902 54.7107 83.3664C53.8444 83.8239 52.9663 84.2621 52.077 84.6803C51.9295 84.7497 51.866 84.9253 51.935 85.073C51.9797 85.0522 52.0244 85.0314 52.069 85.0105C52.1136 84.9897 52.1582 84.9687 52.2028 84.9478C53.0963 84.5276 53.9784 84.0874 54.8487 83.6277C54.8923 83.6047 54.9358 83.5817 54.9793 83.5586C55.0229 83.5355 55.0663 83.5123 55.1098 83.4891ZM49.7712 86.0298C49.7085 85.8794 49.5358 85.8081 49.3852 85.8706C48.4807 86.2457 47.5657 86.6005 46.6408 86.9345C46.4875 86.9899 46.408 87.1589 46.463 87.3123C46.5094 87.2958 46.5558 87.2792 46.6022 87.2626C46.6485 87.246 46.6949 87.2293 46.7412 87.2125C47.6705 86.8769 48.5897 86.5205 49.4984 86.1436C49.5439 86.1248 49.5894 86.1058 49.6349 86.0869C49.6804 86.0679 49.7258 86.0488 49.7712 86.0298ZM44.2193 88.064C44.1708 87.9084 44.0055 87.8214 43.8498 87.8696C42.915 88.1587 41.9711 88.4269 41.0185 88.6736C40.8607 88.7145 40.7658 88.8754 40.8063 89.0332C40.8541 89.0211 40.9018 89.0089 40.9495 88.9967C40.9973 88.9844 41.045 88.9722 41.0927 88.9598C42.0497 88.7119 42.998 88.4425 43.9371 88.152C43.9842 88.1374 44.0312 88.1228 44.0783 88.1082C44.1253 88.0935 44.1723 88.0788 44.2193 88.064ZM38.5035 89.5728C38.4697 89.4134 38.3132 89.3114 38.1537 89.3449C37.1971 89.5457 36.2326 89.7251 35.2608 89.8824C35.0998 89.9085 34.9904 90.0599 35.0161 90.2208C35.0648 90.2132 35.1134 90.2054 35.1621 90.1977C35.2108 90.1899 35.2594 90.1821 35.308 90.1742C36.2844 90.0161 37.2534 89.836 38.2144 89.6342C38.2626 89.6241 38.3108 89.6139 38.359 89.6037C38.4072 89.5934 38.4554 89.5832 38.5035 89.5728ZM32.6735 90.5447C32.6545 90.3829 32.5081 90.2668 32.3461 90.2854C31.3759 90.3968 30.399 90.4864 29.416 90.5537C29.2533 90.5649 29.1304 90.7056 29.1412 90.8682C29.1904 90.865 29.2395 90.8618 29.2887 90.8586C29.3378 90.8553 29.387 90.852 29.4362 90.8487C30.4237 90.781 31.4051 90.691 32.3799 90.5791C32.4288 90.5735 32.4778 90.5678 32.5267 90.5621C32.5756 90.5563 32.6246 90.5506 32.6735 90.5447ZM26.7786 90.9758C26.7745 90.8129 26.6393 90.6839 26.4764 90.6876C25.9856 90.6988 25.4935 90.7044 25 90.7044C24.5066 90.7044 24.0144 90.6988 23.5237 90.6876C23.3607 90.6839 23.2255 90.8129 23.2214 90.9758C23.2707 90.9771 23.3199 90.9784 23.3692 90.9796C23.4184 90.9809 23.4677 90.982 23.5169 90.9832C24.0099 90.9944 24.5043 91 25 91C25.4957 91 25.9901 90.9944 26.4831 90.9832C26.5323 90.982 26.5816 90.9809 26.6308 90.9796C26.6801 90.9784 26.7294 90.9771 26.7786 90.9758ZM20.8588 90.8682C20.8696 90.7056 20.7467 90.5649 20.5841 90.5537C19.601 90.4864 18.6241 90.3968 17.6539 90.2854C17.4919 90.2668 17.3455 90.3829 17.3265 90.5447C17.3755 90.5506 17.4244 90.5563 17.4733 90.5621C17.5222 90.5678 17.5712 90.5735 17.6202 90.5791C18.5949 90.691 19.5763 90.781 20.5639 90.8487C20.613 90.852 20.6622 90.8553 20.7113 90.8586C20.7605 90.8618 20.8096 90.865 20.8588 90.8682ZM14.9839 90.2208C15.0096 90.0599 14.9002 89.9085 14.7392 89.8824C13.7674 89.7251 12.8029 89.5457 11.8463 89.3449C11.6868 89.3114 11.5303 89.4134 11.4965 89.5728C11.5446 89.5832 11.5928 89.5934 11.641 89.6037C11.6892 89.6139 11.7374 89.6241 11.7856 89.6342C12.7466 89.836 13.7156 90.0161 14.692 90.1742C14.7406 90.1821 14.7892 90.1899 14.8379 90.1977C14.8866 90.2054 14.9352 90.2132 14.9839 90.2208ZM9.19368 89.0332C9.23418 88.8754 9.13929 88.7145 8.98146 88.6736C8.02889 88.4269 7.08497 88.1587 6.15025 87.8696C5.9945 87.8214 5.82919 87.9084 5.78069 88.064C5.82768 88.0788 5.87469 88.0935 5.92173 88.1082C5.96876 88.1228 6.01581 88.1374 6.06289 88.152C7.00198 88.4425 7.95031 88.7119 8.90734 88.9598C8.95503 88.9722 9.00274 88.9844 9.05047 88.9967C9.09818 89.0089 9.14592 89.0211 9.19368 89.0332ZM3.53703 87.3123C3.59203 87.1589 3.51251 86.9899 3.35917 86.9345C2.43425 86.6005 1.51927 86.2456 0.614806 85.8706C0.464212 85.8081 0.291534 85.8794 0.228772 86.0298C0.274191 86.0488 0.319636 86.0679 0.365108 86.0869C0.410571 86.1058 0.456057 86.1248 0.501569 86.1436C1.41026 86.5205 2.32952 86.8769 3.25876 87.2125C3.3051 87.2293 3.35145 87.246 3.39784 87.2626C3.44421 87.2792 3.49061 87.2958 3.53703 87.3123ZM-1.93503 85.073C-1.86602 84.9253 -1.92949 84.7496 -2.07703 84.6803C-2.96634 84.2621 -3.84441 83.8239 -4.71067 83.3664C-4.85483 83.2902 -5.03337 83.3452 -5.1098 83.4891C-5.06635 83.5123 -5.02286 83.5354 -4.97935 83.5586C-4.93584 83.5817 -4.8923 83.6047 -4.84873 83.6277C-3.97845 84.0874 -3.09629 84.5276 -2.20283 84.9478C-2.15824 84.9687 -2.11364 84.9897 -2.069 85.0105C-2.02437 85.0314 -1.97971 85.0522 -1.93503 85.073ZM-7.17554 82.336C-7.09317 82.1954 -7.14011 82.0146 -7.28059 81.9319C-8.12694 81.4334 -8.96076 80.916 -9.78147 80.3802C-9.91798 80.291 -10.1008 80.3293 -10.1902 80.4655C-10.1491 80.4926 -10.1079 80.5197 -10.0667 80.5467C-10.0256 80.5738 -9.98434 80.6007 -9.94308 80.6277C-9.11857 81.166 -8.28088 81.6858 -7.43061 82.1866C-7.38815 82.2116 -7.34567 82.2365 -7.30316 82.2615C-7.26065 82.2864 -7.21811 82.3112 -7.17554 82.336ZM-12.1407 79.1268C-12.0458 78.9944 -12.0758 78.81 -12.2081 78.7147C-13.0046 78.1407 -13.7872 77.5487 -14.5555 76.9393C-14.6832 76.838 -14.8688 76.8593 -14.9704 76.9867C-14.9319 77.0175 -14.8934 77.0482 -14.8549 77.0789C-14.8164 77.1096 -14.7778 77.1403 -14.7392 77.1709C-13.9674 77.7831 -13.1811 78.3778 -12.381 78.9545C-12.341 78.9833 -12.301 79.0121 -12.261 79.0408C-12.2209 79.0695 -12.1808 79.0982 -12.1407 79.1268ZM-16.7896 75.4744C-16.6828 75.3513 -16.6958 75.1649 -16.8188 75.0579C-17.5588 74.4133 -18.2839 73.752 -18.9933 73.0744C-19.1112 72.9618 -19.2979 72.966 -19.4108 73.0835C-19.3753 73.1177 -19.3398 73.1519 -19.3042 73.186C-19.2687 73.2201 -19.2331 73.2542 -19.1975 73.2882C-18.4848 73.9689 -17.7564 74.6333 -17.0129 75.2808C-16.9758 75.3131 -16.9386 75.3455 -16.9014 75.3777C-16.8641 75.41 -16.8269 75.4422 -16.7896 75.4744ZM-21.0835 71.4108C-20.966 71.298 -20.9618 71.1112 -21.0744 70.9933C-21.752 70.2839 -22.4133 69.5588 -23.0579 68.8188C-23.1649 68.6958 -23.3513 68.6828 -23.4744 68.7896C-23.4422 68.8269 -23.41 68.8641 -23.3777 68.9014C-23.3455 68.9386 -23.3131 68.9758 -23.2808 69.0129C-22.6333 69.7564 -21.9689 70.4848 -21.2882 71.1975C-21.2542 71.2331 -21.2201 71.2687 -21.186 71.3042C-21.1519 71.3398 -21.1177 71.3753 -21.0835 71.4108ZM-24.9867 66.9704C-24.8593 66.8688 -24.838 66.6832 -24.9393 66.5555C-25.5487 65.7872 -26.1407 65.0046 -26.7147 64.2081C-26.81 64.0759 -26.9944 64.0458 -27.1268 64.1408C-27.0982 64.1809 -27.0695 64.2209 -27.0408 64.261C-27.0121 64.301 -26.9833 64.341 -26.9545 64.381C-26.3778 65.1811 -25.7831 65.9674 -25.1709 66.7392C-25.1403 66.7778 -25.1096 66.8164 -25.0789 66.8549C-25.0482 66.8934 -25.0175 66.9319 -24.9867 66.9704ZM-28.4655 62.1902C-28.3293 62.1008 -28.291 61.918 -28.3802 61.7815C-28.916 60.9608 -29.4334 60.1269 -29.9319 59.2806C-30.0146 59.1401 -30.1954 59.0932 -30.336 59.1755C-30.3112 59.2181 -30.2864 59.2606 -30.2615 59.3032C-30.2366 59.3457 -30.2116 59.3882 -30.1866 59.4306C-29.6859 60.2809 -29.166 61.1186 -28.6277 61.9431C-28.6007 61.9843 -28.5738 62.0256 -28.5467 62.0668C-28.5197 62.1079 -28.4926 62.1491 -28.4655 62.1902ZM-31.4891 57.1098C-31.3452 57.0334 -31.2902 56.8548 -31.3664 56.7107C-31.8239 55.8444 -32.2621 54.9663 -32.6803 54.077C-32.7497 53.9295 -32.9253 53.866 -33.073 53.935C-33.0522 53.9797 -33.0314 54.0244 -33.0105 54.069C-32.9897 54.1136 -32.9688 54.1582 -32.9478 54.2028C-32.5276 55.0963 -32.0874 55.9784 -31.6277 56.8487C-31.6047 56.8923 -31.5817 56.9358 -31.5586 56.9793C-31.5354 57.0229 -31.5123 57.0663 -31.4891 57.1098ZM-34.0298 51.7712C-33.8794 51.7085 -33.8081 51.5358 -33.8706 51.3852C-34.2456 50.4807 -34.6005 49.5657 -34.9345 48.6408C-34.9899 48.4875 -35.1589 48.408 -35.3123 48.463C-35.2958 48.5094 -35.2792 48.5558 -35.2626 48.6022C-35.246 48.6485 -35.2293 48.6949 -35.2125 48.7412C-34.877 49.6705 -34.5205 50.5897 -34.1436 51.4984C-34.1248 51.5439 -34.1058 51.5894 -34.0869 51.6349C-34.0679 51.6804 -34.0489 51.7258 -34.0298 51.7712ZM-36.064 46.2193C-35.9084 46.1708 -35.8214 46.0055 -35.8696 45.8498C-36.1587 44.915 -36.4269 43.9711 -36.6736 43.0185C-36.7145 42.8607 -36.8754 42.7658 -37.0332 42.8063C-37.0211 42.8541 -37.0089 42.9018 -36.9967 42.9495C-36.9844 42.9973 -36.9721 43.045 -36.9598 43.0927C-36.7119 44.0497 -36.4425 44.998 -36.152 45.9371C-36.1374 45.9842 -36.1228 46.0312 -36.1082 46.0783C-36.0935 46.1253 -36.0788 46.1723 -36.064 46.2193ZM-37.5728 40.5035C-37.4134 40.4697 -37.3114 40.3132 -37.3449 40.1537C-37.5457 39.1971 -37.7251 38.2326 -37.8824 37.2608C-37.9085 37.0998 -38.0599 36.9904 -38.2208 37.0161C-38.2132 37.0648 -38.2054 37.1134 -38.1977 37.1621C-38.1899 37.2108 -38.1821 37.2594 -38.1742 37.308C-38.0161 38.2844 -37.836 39.2534 -37.6342 40.2144C-37.6241 40.2626 -37.6139 40.3108 -37.6037 40.359C-37.5934 40.4072 -37.5832 40.4554 -37.5728 40.5035ZM-38.5447 34.6735C-38.3829 34.6545 -38.2668 34.5081 -38.2854 34.3461C-38.3968 33.3759 -38.4864 32.399 -38.5537 31.416C-38.5649 31.2533 -38.7056 31.1304 -38.8682 31.1412C-38.865 31.1904 -38.8618 31.2395 -38.8586 31.2887C-38.8553 31.3378 -38.852 31.387 -38.8487 31.4362C-38.781 32.4237 -38.691 33.4051 -38.5791 34.3799C-38.5735 34.4288 -38.5678 34.4778 -38.5621 34.5267C-38.5564 34.5756 -38.5506 34.6246 -38.5447 34.6735ZM-38.9758 28.7786C-38.8129 28.7745 -38.6839 28.6393 -38.6876 28.4764C-38.6988 27.9856 -38.7044 27.4935 -38.7044 27C-38.7044 26.5066 -38.6988 26.0144 -38.6876 25.5237C-38.6839 25.3607 -38.8129 25.2255 -38.9758 25.2214C-38.9771 25.2707 -38.9784 25.3199 -38.9796 25.3692C-38.9809 25.4184 -38.982 25.4677 -38.9832 25.5169C-38.9944 26.0099 -39 26.5043 -39 27C-39 27.4957 -38.9944 27.9901 -38.9832 28.4831C-38.982 28.5323 -38.9809 28.5816 -38.9796 28.6308C-38.9784 28.6801 -38.9771 28.7294 -38.9758 28.7786ZM-38.8682 22.8588C-38.7056 22.8696 -38.5649 22.7467 -38.5537 22.5841C-38.4864 21.601 -38.3968 20.6241 -38.2854 19.6539C-38.2668 19.4919 -38.3829 19.3455 -38.5447 19.3265C-38.5506 19.3755 -38.5564 19.4244 -38.5621 19.4733C-38.5678 19.5222 -38.5735 19.5712 -38.5791 19.6201C-38.691 20.5949 -38.781 21.5763 -38.8487 22.5639C-38.852 22.613 -38.8553 22.6622 -38.8586 22.7113C-38.8618 22.7605 -38.865 22.8096 -38.8682 22.8588ZM-38.2208 16.9839C-38.0599 17.0096 -37.9085 16.9002 -37.8824 16.7392C-37.7251 15.7674 -37.5457 14.8029 -37.3449 13.8463C-37.3114 13.6868 -37.4134 13.5303 -37.5728 13.4965C-37.5832 13.5446 -37.5934 13.5928 -37.6037 13.641C-37.6139 13.6892 -37.6241 13.7374 -37.6342 13.7856C-37.836 14.7466 -38.0161 15.7156 -38.1742 16.692C-38.1821 16.7406 -38.1899 16.7892 -38.1977 16.8379C-38.2054 16.8866 -38.2132 16.9352 -38.2208 16.9839ZM-37.0332 11.1937C-36.8754 11.2342 -36.7145 11.1393 -36.6736 10.9815C-36.4269 10.0289 -36.1587 9.08497 -35.8696 8.15025C-35.8214 7.9945 -35.9084 7.82919 -36.064 7.78068C-36.0788 7.82768 -36.0935 7.87469 -36.1082 7.92173C-36.1228 7.96876 -36.1374 8.01581 -36.152 8.06289C-36.4425 9.00198 -36.7119 9.95031 -36.9598 10.9073C-36.9721 10.955 -36.9844 11.0027 -36.9967 11.0505C-37.0089 11.0982 -37.0211 11.1459 -37.0332 11.1937ZM-35.3123 5.53703C-35.1589 5.59203 -34.9899 5.51251 -34.9345 5.35917C-34.6005 4.43425 -34.2456 3.51927 -33.8706 2.61481C-33.8081 2.46421 -33.8794 2.29153 -34.0298 2.22877C-34.0489 2.27419 -34.0679 2.31964 -34.0869 2.36511C-34.1058 2.41057 -34.1248 2.45606 -34.1436 2.50157C-34.5205 3.41026 -34.8769 4.32952 -35.2125 5.25876C-35.2293 5.3051 -35.246 5.35145 -35.2626 5.39784C-35.2792 5.44421 -35.2958 5.49061 -35.3123 5.53703ZM-33.073 0.0649739C-32.9253 0.133981 -32.7497 0.0705062 -32.6803 -0.0770291C-32.2621 -0.966342 -31.8239 -1.84441 -31.3664 -2.71067C-31.2902 -2.85483 -31.3452 -3.03337 -31.4891 -3.1098C-31.5123 -3.06635 -31.5354 -3.02286 -31.5586 -2.97935C-31.5817 -2.93584 -31.6047 -2.8923 -31.6277 -2.84873C-32.0874 -1.97845 -32.5276 -1.09629 -32.9478 -0.202825C-32.9687 -0.158244 -32.9897 -0.113636 -33.0105 -0.0689979C-33.0314 -0.0243692 -33.0522 0.0202888 -33.073 0.0649739ZM-30.336 -5.17554C-30.1954 -5.09317 -30.0146 -5.14011 -29.9319 -5.28059C-29.4334 -6.12694 -28.916 -6.96076 -28.3802 -7.78147C-28.291 -7.91798 -28.3293 -8.10084 -28.4655 -8.19023C-28.4926 -8.1491 -28.5197 -8.10795 -28.5467 -8.06675C-28.5738 -8.02556 -28.6007 -7.98434 -28.6277 -7.94308C-29.166 -7.11857 -29.6859 -6.28088 -30.1866 -5.43061C-30.2116 -5.38816 -30.2366 -5.34567 -30.2615 -5.30316C-30.2864 -5.26065 -30.3112 -5.21811 -30.336 -5.17554ZM-27.1268 -10.1407C-26.9944 -10.0458 -26.8101 -10.0758 -26.7147 -10.2081C-26.1407 -11.0046 -25.5487 -11.7872 -24.9393 -12.5555C-24.838 -12.6832 -24.8593 -12.8688 -24.9867 -12.9704C-25.0175 -12.9319 -25.0482 -12.8934 -25.0789 -12.8549C-25.1096 -12.8164 -25.1403 -12.7778 -25.1709 -12.7392C-25.7831 -11.9674 -26.3778 -11.1811 -26.9545 -10.381C-26.9833 -10.341 -27.0121 -10.301 -27.0408 -10.261C-27.0695 -10.2209 -27.0982 -10.1808 -27.1268 -10.1407ZM-23.4744 -14.7896C-23.3513 -14.6828 -23.1649 -14.6958 -23.0579 -14.8188C-22.4133 -15.5588 -21.752 -16.2839 -21.0744 -16.9933C-20.9618 -17.1112 -20.966 -17.2979 -21.0835 -17.4108C-21.1177 -17.3753 -21.1519 -17.3398 -21.186 -17.3042C-21.2201 -17.2687 -21.2542 -17.2331 -21.2882 -17.1975C-21.9689 -16.4848 -22.6333 -15.7564 -23.2808 -15.0129C-23.3131 -14.9758 -23.3455 -14.9386 -23.3777 -14.9014C-23.41 -14.8641 -23.4422 -14.8269 -23.4744 -14.7896ZM-19.4108 -19.0835C-19.298 -18.966 -19.1112 -18.9618 -18.9933 -19.0744C-18.2839 -19.752 -17.5588 -20.4133 -16.8188 -21.0579C-16.6958 -21.1649 -16.6828 -21.3513 -16.7896 -21.4744C-16.8269 -21.4422 -16.8641 -21.41 -16.9014 -21.3777C-16.9386 -21.3455 -16.9758 -21.3131 -17.0129 -21.2808C-17.7564 -20.6333 -18.4848 -19.9689 -19.1975 -19.2882C-19.2331 -19.2542 -19.2687 -19.2201 -19.3042 -19.186C-19.3398 -19.1519 -19.3753 -19.1177 -19.4108 -19.0835ZM-14.9704 -22.9867C-14.8688 -22.8593 -14.6832 -22.838 -14.5555 -22.9393C-13.7872 -23.5487 -13.0046 -24.1407 -12.2081 -24.7147C-12.0759 -24.81 -12.0458 -24.9944 -12.1407 -25.1268C-12.1809 -25.0982 -12.2209 -25.0695 -12.261 -25.0408C-12.301 -25.0121 -12.341 -24.9833 -12.381 -24.9545C-13.1811 -24.3778 -13.9674 -23.7831 -14.7392 -23.1709C-14.7778 -23.1403 -14.8164 -23.1096 -14.8549 -23.0789C-14.8934 -23.0482 -14.9319 -23.0175 -14.9704 -22.9867ZM-10.1902 -26.4655C-10.1008 -26.3293 -9.91799 -26.291 -9.78147 -26.3802C-8.96076 -26.916 -8.12694 -27.4334 -7.2806 -27.9319C-7.14011 -28.0146 -7.09317 -28.1954 -7.17554 -28.336C-7.21811 -28.3112 -7.26065 -28.2864 -7.30316 -28.2615C-7.34567 -28.2366 -7.38816 -28.2116 -7.43061 -28.1866C-8.28088 -27.6859 -9.11857 -27.166 -9.94308 -26.6277C-9.98434 -26.6007 -10.0256 -26.5738 -10.0668 -26.5467C-10.1079 -26.5197 -10.1491 -26.4926 -10.1902 -26.4655ZM-5.1098 -29.4891C-5.03337 -29.3452 -4.85483 -29.2902 -4.71066 -29.3664C-3.84441 -29.8239 -2.96634 -30.2621 -2.07703 -30.6803C-1.92949 -30.7497 -1.86601 -30.9253 -1.93502 -31.073C-1.97971 -31.0522 -2.02436 -31.0314 -2.069 -31.0105C-2.11363 -30.9897 -2.15824 -30.9688 -2.20282 -30.9478C-3.09628 -30.5276 -3.97844 -30.0874 -4.84873 -29.6277C-4.8923 -29.6047 -4.93584 -29.5817 -4.97935 -29.5586C-5.02286 -29.5355 -5.06634 -29.5123 -5.1098 -29.4891ZM0.228777 -32.0298C0.291539 -31.8794 0.464212 -31.8081 0.61481 -31.8706C1.51928 -32.2456 2.43425 -32.6005 3.35917 -32.9345C3.51251 -32.9899 3.59204 -33.1589 3.53704 -33.3123C3.49061 -33.2958 3.44422 -33.2792 3.39784 -33.2626C3.35146 -33.246 3.3051 -33.2293 3.25876 -33.2125C2.32952 -32.877 1.41026 -32.5205 0.501574 -32.1436C0.456061 -32.1248 0.410575 -32.1058 0.365112 -32.0869C0.31964 -32.0679 0.274195 -32.0489 0.228777 -32.0298ZM5.78068 -34.064C5.82919 -33.9084 5.9945 -33.8214 6.15025 -33.8696C7.08497 -34.1587 8.02889 -34.4269 8.98146 -34.6736C9.13929 -34.7145 9.23418 -34.8754 9.19368 -35.0332C9.14592 -35.0211 9.09819 -35.0089 9.05047 -34.9967C9.00274 -34.9844 8.95503 -34.9721 8.90734 -34.9598C7.95031 -34.7119 7.00198 -34.4425 6.06289 -34.152C6.01581 -34.1374 5.96876 -34.1228 5.92173 -34.1082C5.87469 -34.0935 5.82768 -34.0788 5.78068 -34.064ZM11.4964 -35.5728C11.5303 -35.4134 11.6868 -35.3114 11.8463 -35.3449C12.8029 -35.5457 13.7674 -35.7251 14.7392 -35.8824C14.9002 -35.9085 15.0096 -36.0599 14.9839 -36.2208C14.9352 -36.2132 14.8866 -36.2054 14.8379 -36.1977C14.7892 -36.1899 14.7406 -36.1821 14.692 -36.1742C13.7156 -36.0161 12.7466 -35.836 11.7856 -35.6342C11.7374 -35.6241 11.6892 -35.6139 11.641 -35.6037C11.5928 -35.5934 11.5446 -35.5832 11.4964 -35.5728ZM17.3265 -36.5447C17.3455 -36.3829 17.4919 -36.2668 17.6539 -36.2854C18.6241 -36.3968 19.601 -36.4864 20.584 -36.5537C20.7467 -36.5649 20.8696 -36.7056 20.8588 -36.8682C20.8096 -36.865 20.7605 -36.8618 20.7113 -36.8586C20.6621 -36.8553 20.613 -36.852 20.5638 -36.8487C19.5763 -36.781 18.5949 -36.691 17.6201 -36.5791C17.5712 -36.5735 17.5222 -36.5678 17.4733 -36.5621C17.4244 -36.5564 17.3754 -36.5506 17.3265 -36.5447ZM23.2214 -36.9758C23.2255 -36.8129 23.3607 -36.6839 23.5236 -36.6876C24.0144 -36.6988 24.5065 -36.7044 25 -36.7044C25.4934 -36.7044 25.9856 -36.6988 26.4763 -36.6876C26.6393 -36.6839 26.7745 -36.8129 26.7786 -36.9758C26.7293 -36.9771 26.6801 -36.9784 26.6308 -36.9796C26.5816 -36.9809 26.5323 -36.982 26.4831 -36.9832C25.9901 -36.9944 25.4957 -37 25 -37C24.5043 -37 24.0099 -36.9944 23.5169 -36.9832C23.4677 -36.982 23.4184 -36.9809 23.3692 -36.9796C23.3199 -36.9784 23.2706 -36.9771 23.2214 -36.9758ZM29.1412 -36.8682C29.1304 -36.7056 29.2533 -36.5649 29.4159 -36.5537C30.399 -36.4864 31.3759 -36.3968 32.3461 -36.2854C32.5081 -36.2668 32.6545 -36.3829 32.6735 -36.5447C32.6245 -36.5506 32.5756 -36.5564 32.5267 -36.5621C32.4778 -36.5678 32.4288 -36.5735 32.3798 -36.5791C31.4051 -36.691 30.4237 -36.781 29.4361 -36.8487C29.387 -36.852 29.3378 -36.8553 29.2887 -36.8586C29.2395 -36.8618 29.1904 -36.865 29.1412 -36.8682ZM35.0161 -36.2208C34.9904 -36.0599 35.0998 -35.9085 35.2608 -35.8824C36.2326 -35.7251 37.1971 -35.5457 38.1537 -35.3449C38.3132 -35.3114 38.4697 -35.4134 38.5035 -35.5728C38.4554 -35.5832 38.4072 -35.5934 38.359 -35.6037C38.3108 -35.6139 38.2626 -35.6241 38.2144 -35.6342C37.2534 -35.836 36.2844 -36.0161 35.308 -36.1742C35.2594 -36.1821 35.2108 -36.1899 35.1621 -36.1977C35.1134 -36.2054 35.0648 -36.2132 35.0161 -36.2208ZM40.8063 -35.0332C40.7658 -34.8754 40.8607 -34.7145 41.0185 -34.6736C41.9711 -34.4269 42.915 -34.1587 43.8498 -33.8696C44.0055 -33.8214 44.1708 -33.9084 44.2193 -34.064C44.1723 -34.0788 44.1253 -34.0935 44.0783 -34.1082C44.0312 -34.1228 43.9842 -34.1374 43.9371 -34.152C42.998 -34.4425 42.0497 -34.7119 41.0927 -34.9598C41.045 -34.9721 40.9973 -34.9844 40.9495 -34.9967C40.9018 -35.0089 40.8541 -35.0211 40.8063 -35.0332ZM46.463 -33.3123C46.408 -33.1589 46.4875 -32.9899 46.6408 -32.9345C47.5657 -32.6005 48.4807 -32.2456 49.3852 -31.8706C49.5358 -31.8081 49.7085 -31.8794 49.7712 -32.0298C49.7258 -32.0489 49.6804 -32.0679 49.6349 -32.0869C49.5894 -32.1058 49.5439 -32.1248 49.4984 -32.1436C48.5897 -32.5205 47.6705 -32.877 46.7412 -33.2125C46.6949 -33.2293 46.6485 -33.246 46.6022 -33.2626C46.5558 -33.2792 46.5094 -33.2958 46.463 -33.3123ZM51.935 -31.073C51.866 -30.9253 51.9295 -30.7497 52.077 -30.6803C52.9663 -30.2621 53.8444 -29.8239 54.7107 -29.3664C54.8548 -29.2902 55.0334 -29.3452 55.1098 -29.4891C55.0663 -29.5123 55.0229 -29.5354 54.9793 -29.5586C54.9358 -29.5817 54.8923 -29.6047 54.8487 -29.6277C53.9784 -30.0874 53.0963 -30.5276 52.2028 -30.9478C52.1582 -30.9688 52.1136 -30.9897 52.069 -31.0105C52.0244 -31.0314 51.9797 -31.0522 51.935 -31.073ZM57.1755 -28.336C57.0932 -28.1954 57.1401 -28.0146 57.2806 -27.9319C58.1269 -27.4334 58.9608 -26.916 59.7815 -26.3802C59.918 -26.291 60.1008 -26.3293 60.1902 -26.4655C60.1491 -26.4926 60.1079 -26.5197 60.0668 -26.5467C60.0256 -26.5738 59.9843 -26.6007 59.9431 -26.6277C59.1186 -27.166 58.2809 -27.6859 57.4306 -28.1866C57.3882 -28.2116 57.3457 -28.2366 57.3032 -28.2615C57.2606 -28.2864 57.2181 -28.3112 57.1755 -28.336ZM62.1408 -25.1268C62.0458 -24.9944 62.0758 -24.8101 62.2081 -24.7147C63.0046 -24.1407 63.7872 -23.5487 64.5555 -22.9393C64.6832 -22.838 64.8688 -22.8593 64.9704 -22.9867C64.9319 -23.0175 64.8934 -23.0482 64.8549 -23.0789C64.8164 -23.1096 64.7778 -23.1403 64.7392 -23.1709C63.9674 -23.7831 63.1811 -24.3778 62.381 -24.9545C62.341 -24.9833 62.301 -25.0121 62.261 -25.0408C62.2209 -25.0695 62.1809 -25.0982 62.1408 -25.1268ZM66.7896 -21.4744C66.6828 -21.3513 66.6958 -21.1649 66.8188 -21.0579C67.5588 -20.4133 68.2839 -19.752 68.9933 -19.0744C69.1112 -18.9618 69.2979 -18.966 69.4108 -19.0835C69.3753 -19.1177 69.3398 -19.1519 69.3042 -19.186C69.2687 -19.2201 69.2331 -19.2542 69.1975 -19.2882C68.4848 -19.9689 67.7564 -20.6333 67.0129 -21.2808C66.9758 -21.3131 66.9386 -21.3455 66.9014 -21.3777C66.8641 -21.41 66.8269 -21.4422 66.7896 -21.4744ZM71.0835 -17.4108C70.966 -17.2979 70.9618 -17.1112 71.0744 -16.9933C71.752 -16.2839 72.4133 -15.5588 73.0579 -14.8188C73.1649 -14.6958 73.3513 -14.6828 73.4744 -14.7896C73.4422 -14.8269 73.41 -14.8641 73.3777 -14.9014C73.3455 -14.9386 73.3131 -14.9758 73.2808 -15.0129C72.6333 -15.7564 71.9689 -16.4848 71.2882 -17.1975C71.2542 -17.2331 71.2201 -17.2687 71.186 -17.3042C71.1519 -17.3398 71.1177 -17.3753 71.0835 -17.4108ZM74.9867 -12.9704C74.8592 -12.8688 74.838 -12.6832 74.9393 -12.5555C75.5487 -11.7872 76.1407 -11.0046 76.7147 -10.2081C76.81 -10.0759 76.9944 -10.0458 77.1268 -10.1407C77.0982 -10.1809 77.0695 -10.2209 77.0408 -10.261C77.0121 -10.301 76.9833 -10.341 76.9545 -10.381C76.3778 -11.1811 75.7831 -11.9674 75.1709 -12.7392C75.1403 -12.7778 75.1096 -12.8164 75.0789 -12.8549C75.0482 -12.8934 75.0175 -12.9319 74.9867 -12.9704ZM78.4655 -8.19024C78.3293 -8.10085 78.291 -7.91799 78.3802 -7.78147C78.916 -6.96076 79.4334 -6.12694 79.9319 -5.2806C80.0146 -5.14011 80.1954 -5.09317 80.336 -5.17554C80.3112 -5.21811 80.2864 -5.26065 80.2615 -5.30316C80.2365 -5.34567 80.2116 -5.38816 80.1866 -5.43061C79.6858 -6.28088 79.166 -7.11857 78.6277 -7.94309C78.6007 -7.98434 78.5738 -8.02556 78.5467 -8.06675C78.5197 -8.10795 78.4926 -8.14911 78.4655 -8.19024ZM81.4891 -3.1098C81.3452 -3.03337 81.2902 -2.85483 81.3664 -2.71066C81.8239 -1.84441 82.2621 -0.966339 82.6803 -0.0770269C82.7497 0.0705085 82.9253 0.133985 83.073 0.0649806C83.0522 0.0202933 83.0314 -0.0243647 83.0105 -0.0689956C82.9897 -0.113631 82.9687 -0.158244 82.9478 -0.202825C82.5276 -1.09629 82.0874 -1.97844 81.6277 -2.84873C81.6047 -2.8923 81.5817 -2.93584 81.5586 -2.97935C81.5354 -3.02286 81.5123 -3.06634 81.4891 -3.1098ZM84.0298 2.22878C83.8794 2.29154 83.8081 2.46421 83.8706 2.61481C84.2457 3.51928 84.6005 4.43425 84.9345 5.35917C84.9899 5.51251 85.1589 5.59204 85.3123 5.53704C85.2958 5.49061 85.2792 5.44422 85.2626 5.39784C85.246 5.35146 85.2293 5.3051 85.2125 5.25876C84.8769 4.32952 84.5205 3.41026 84.1436 2.50157C84.1248 2.45606 84.1058 2.41058 84.0869 2.36511C84.0679 2.31964 84.0489 2.2742 84.0298 2.22878ZM86.064 7.78069C85.9084 7.82919 85.8214 7.9945 85.8696 8.15025C86.1587 9.08497 86.4269 10.0289 86.6736 10.9815C86.7145 11.1393 86.8754 11.2342 87.0332 11.1937C87.0211 11.1459 87.0089 11.0982 86.9967 11.0505C86.9844 11.0027 86.9722 10.955 86.9598 10.9073C86.7119 9.95031 86.4425 9.00198 86.152 8.06289C86.1374 8.01581 86.1228 7.96876 86.1082 7.92173C86.0935 7.87469 86.0788 7.82768 86.064 7.78069ZM87.5728 13.4965C87.4134 13.5303 87.3114 13.6868 87.3449 13.8463C87.5457 14.8029 87.7251 15.7674 87.8824 16.7392C87.9085 16.9002 88.0599 17.0096 88.2208 16.9839C88.2132 16.9352 88.2054 16.8866 88.1977 16.8379C88.1899 16.7892 88.1821 16.7406 88.1742 16.692C88.0161 15.7156 87.836 14.7466 87.6342 13.7856C87.6241 13.7374 87.6139 13.6892 87.6037 13.641C87.5934 13.5928 87.5832 13.5446 87.5728 13.4965ZM88.8682 22.8588C88.865 22.8096 88.8618 22.7605 88.8586 22.7113C88.8553 22.6621 88.852 22.613 88.8487 22.5638C88.781 21.5763 88.691 20.5949 88.5791 19.6201C88.5735 19.5712 88.5678 19.5222 88.5621 19.4733C88.5563 19.4244 88.5506 19.3754 88.5447 19.3265C88.3829 19.3455 88.2668 19.4919 88.2854 19.6539C88.3968 20.6241 88.4864 21.601 88.5537 22.584C88.5649 22.7467 88.7056 22.8696 88.8682 22.8588Z" fill="white" fill-opacity="0.5"/>
<path fill-rule="evenodd" clip-rule="evenodd" d="M25.0001 47.3973C36.2652 47.3973 45.3973 38.2652 45.3973 27.0001C45.3973 15.735 36.2652 6.60287 25.0001 6.60287C13.735 6.60287 4.60287 15.735 4.60287 27.0001C4.60287 38.2652 13.735 47.3973 25.0001 47.3973ZM25.0001 62.1779C44.4283 62.1779 60.1779 46.4283 60.1779 27.0001C60.1779 7.57192 44.4283 -8.17773 25.0001 -8.17773C5.57192 -8.17773 -10.1777 7.57192 -10.1777 27.0001C-10.1777 46.4283 5.57192 62.1779 25.0001 62.1779Z" fill="white" fill-opacity="0.5"/>
<path d="M331.047 241C331.573 241 332 240.573 332 240.046C332 239.519 331.573 239.092 331.047 239.092C330.52 239.092 330.093 239.519 330.093 240.046C330.093 240.573 330.52 241 331.047 241Z" fill="white" fill-opacity="0.5"/>
<path d="M316.48 241C317.006 241 317.433 240.573 317.433 240.046C317.433 239.519 317.006 239.092 316.48 239.092C315.953 239.092 315.527 239.519 315.527 240.046C315.527 240.573 315.953 241 316.48 241Z" fill="white" fill-opacity="0.5"/>
<path d="M302.867 240.046C302.867 240.573 302.44 241 301.913 241C301.387 241 300.96 240.573 300.96 240.046C300.96 239.519 301.387 239.092 301.913 239.092C302.44 239.092 302.867 239.519 302.867 240.046Z" fill="white" fill-opacity="0.5"/>
<path d="M288.303 240.046C288.303 240.573 287.877 241 287.35 241C286.824 241 286.397 240.573 286.397 240.046C286.397 239.519 286.824 239.092 287.35 239.092C287.877 239.092 288.303 239.519 288.303 240.046Z" fill="white" fill-opacity="0.5"/>
<path d="M273.737 240.046C273.737 240.573 273.31 241 272.783 241C272.257 241 271.83 240.573 271.83 240.046C271.83 239.519 272.257 239.092 272.783 239.092C273.31 239.092 273.737 239.519 273.737 240.046Z" fill="white" fill-opacity="0.5"/>
<path d="M258.217 241C258.743 241 259.17 240.573 259.17 240.046C259.17 239.519 258.743 239.092 258.217 239.092C257.69 239.092 257.263 239.519 257.263 240.046C257.263 240.573 257.69 241 258.217 241Z" fill="white" fill-opacity="0.5"/>
<path d="M243.653 241C244.18 241 244.607 240.573 244.607 240.046C244.607 239.519 244.18 239.092 243.653 239.092C243.127 239.092 242.7 239.519 242.7 240.046C242.7 240.573 243.127 241 243.653 241Z" fill="white" fill-opacity="0.5"/>
<path d="M230.04 240.046C230.04 240.573 229.613 241 229.087 241C228.56 241 228.133 240.573 228.133 240.046C228.133 239.519 228.56 239.092 229.087 239.092C229.613 239.092 230.04 239.519 230.04 240.046Z" fill="white" fill-opacity="0.5"/>
<path d="M215.473 240.046C215.473 240.573 215.047 241 214.52 241C213.994 241 213.567 240.573 213.567 240.046C213.567 239.519 213.994 239.092 214.52 239.092C215.047 239.092 215.473 239.519 215.473 240.046Z" fill="white" fill-opacity="0.5"/>
<path d="M200.907 240.046C200.907 240.573 200.48 241 199.953 241C199.427 241 199 240.573 199 240.046C199 239.519 199.427 239.092 199.953 239.092C200.48 239.092 200.907 239.519 200.907 240.046Z" fill="white" fill-opacity="0.5"/>
<path d="M332 229.311C332 229.838 331.573 230.265 331.047 230.265C330.52 230.265 330.093 229.838 330.093 229.311C330.093 228.784 330.52 228.357 331.047 228.357C331.573 228.357 332 228.784 332 229.311Z" fill="white" fill-opacity="0.5"/>
<path d="M317.433 229.311C317.433 229.838 317.006 230.265 316.48 230.265C315.953 230.265 315.527 229.838 315.527 229.311C315.527 228.784 315.953 228.357 316.48 228.357C317.006 228.357 317.433 228.784 317.433 229.311Z" fill="white" fill-opacity="0.5"/>
<path d="M302.867 229.311C302.867 229.838 302.44 230.265 301.913 230.265C301.387 230.265 300.96 229.838 300.96 229.311C300.96 228.784 301.387 228.357 301.913 228.357C302.44 228.357 302.867 228.784 302.867 229.311Z" fill="white" fill-opacity="0.5"/>
<path d="M288.303 229.311C288.303 229.838 287.877 230.265 287.35 230.265C286.824 230.265 286.397 229.838 286.397 229.311C286.397 228.784 286.824 228.357 287.35 228.357C287.877 228.357 288.303 228.784 288.303 229.311Z" fill="white" fill-opacity="0.5"/>
<path d="M273.737 229.311C273.737 229.838 273.31 230.265 272.783 230.265C272.257 230.265 271.83 229.838 271.83 229.311C271.83 228.784 272.257 228.357 272.783 228.357C273.31 228.357 273.737 228.784 273.737 229.311Z" fill="white" fill-opacity="0.5"/>
<path d="M259.17 229.311C259.17 229.838 258.743 230.265 258.217 230.265C257.69 230.265 257.263 229.838 257.263 229.311C257.263 228.784 257.69 228.357 258.217 228.357C258.743 228.357 259.17 228.784 259.17 229.311Z" fill="white" fill-opacity="0.5"/>
<path d="M244.603 229.311C244.603 229.838 244.176 230.265 243.65 230.265C243.123 230.265 242.697 229.838 242.697 229.311C242.697 228.784 243.123 228.357 243.65 228.357C244.176 228.357 244.603 228.784 244.603 229.311Z" fill="white" fill-opacity="0.5"/>
<path d="M230.04 229.311C230.04 229.838 229.613 230.265 229.087 230.265C228.56 230.265 228.133 229.838 228.133 229.311C228.133 228.784 228.56 228.357 229.087 228.357C229.613 228.357 230.04 228.784 230.04 229.311Z" fill="white" fill-opacity="0.5"/>
<path d="M215.473 229.311C215.473 229.838 215.047 230.265 214.52 230.265C213.994 230.265 213.567 229.838 213.567 229.311C213.567 228.784 213.994 228.357 214.52 228.357C215.047 228.357 215.473 228.784 215.473 229.311Z" fill="white" fill-opacity="0.5"/>
<path d="M200.907 229.311C200.907 229.838 200.48 230.265 199.953 230.265C199.427 230.265 199 229.838 199 229.311C199 228.784 199.427 228.357 199.953 228.357C200.48 228.357 200.907 228.784 200.907 229.311Z" fill="white" fill-opacity="0.5"/>
<path d="M332 218.576C332 219.103 331.573 219.53 331.047 219.53C330.52 219.53 330.093 219.103 330.093 218.576C330.093 218.049 330.52 217.622 331.047 217.622C331.573 217.622 332 218.049 332 218.576Z" fill="white" fill-opacity="0.5"/>
<path d="M317.433 218.576C317.433 219.103 317.006 219.53 316.48 219.53C315.953 219.53 315.527 219.103 315.527 218.576C315.527 218.049 315.953 217.622 316.48 217.622C317.006 217.622 317.433 218.049 317.433 218.576Z" fill="white" fill-opacity="0.5"/>
<path d="M302.867 218.576C302.867 219.103 302.44 219.53 301.913 219.53C301.387 219.53 300.96 219.103 300.96 218.576C300.96 218.049 301.387 217.622 301.913 217.622C302.44 217.622 302.867 218.049 302.867 218.576Z" fill="white" fill-opacity="0.5"/>
<path d="M288.303 218.576C288.303 219.103 287.877 219.53 287.35 219.53C286.824 219.53 286.397 219.103 286.397 218.576C286.397 218.049 286.824 217.622 287.35 217.622C287.877 217.622 288.303 218.049 288.303 218.576Z" fill="white" fill-opacity="0.5"/>
<path d="M273.737 218.576C273.737 219.103 273.31 219.53 272.783 219.53C272.257 219.53 271.83 219.103 271.83 218.576C271.83 218.049 272.257 217.622 272.783 217.622C273.31 217.622 273.737 218.049 273.737 218.576Z" fill="white" fill-opacity="0.5"/>
<path d="M259.17 218.576C259.17 219.103 258.743 219.53 258.217 219.53C257.69 219.53 257.263 219.103 257.263 218.576C257.263 218.049 257.69 217.622 258.217 217.622C258.743 217.622 259.17 218.049 259.17 218.576Z" fill="white" fill-opacity="0.5"/>
<path d="M244.603 218.576C244.603 219.103 244.176 219.53 243.65 219.53C243.123 219.53 242.697 219.103 242.697 218.576C242.697 218.049 243.123 217.622 243.65 217.622C244.176 217.622 244.603 218.049 244.603 218.576Z" fill="white" fill-opacity="0.5"/>
<path d="M230.04 218.576C230.04 219.103 229.613 219.53 229.087 219.53C228.56 219.53 228.133 219.103 228.133 218.576C228.133 218.049 228.56 217.622 229.087 217.622C229.613 217.622 230.04 218.049 230.04 218.576Z" fill="white" fill-opacity="0.5"/>
<path d="M215.473 218.576C215.473 219.103 215.047 219.53 214.52 219.53C213.994 219.53 213.567 219.103 213.567 218.576C213.567 218.049 213.994 217.622 214.52 217.622C215.047 217.622 215.473 218.049 215.473 218.576Z" fill="white" fill-opacity="0.5"/>
<path d="M200.907 218.576C200.907 219.103 200.48 219.53 199.953 219.53C199.427 219.53 199 219.103 199 218.576C199 218.049 199.427 217.622 199.953 217.622C200.48 217.622 200.907 218.049 200.907 218.576Z" fill="white" fill-opacity="0.5"/>
<path d="M331.047 208.795C331.573 208.795 332 208.368 332 207.841C332 207.314 331.573 206.887 331.047 206.887C330.52 206.887 330.093 207.314 330.093 207.841C330.093 208.368 330.52 208.795 331.047 208.795Z" fill="white" fill-opacity="0.5"/>
<path d="M316.48 208.795C317.006 208.795 317.433 208.368 317.433 207.841C317.433 207.314 317.006 206.887 316.48 206.887C315.953 206.887 315.527 207.314 315.527 207.841C315.527 208.368 315.953 208.795 316.48 208.795Z" fill="white" fill-opacity="0.5"/>
<path d="M302.867 207.841C302.867 208.368 302.44 208.795 301.913 208.795C301.387 208.795 300.96 208.368 300.96 207.841C300.96 207.314 301.387 206.887 301.913 206.887C302.44 206.887 302.867 207.314 302.867 207.841Z" fill="white" fill-opacity="0.5"/>
<path d="M288.303 207.841C288.303 208.368 287.877 208.795 287.35 208.795C286.824 208.795 286.397 208.368 286.397 207.841C286.397 207.314 286.824 206.887 287.35 206.887C287.877 206.887 288.303 207.314 288.303 207.841Z" fill="white" fill-opacity="0.5"/>
<path d="M273.737 207.841C273.737 208.368 273.31 208.795 272.783 208.795C272.257 208.795 271.83 208.368 271.83 207.841C271.83 207.314 272.257 206.887 272.783 206.887C273.31 206.887 273.737 207.314 273.737 207.841Z" fill="white" fill-opacity="0.5"/>
<path d="M258.217 208.795C258.743 208.795 259.17 208.368 259.17 207.841C259.17 207.314 258.743 206.887 258.217 206.887C257.69 206.887 257.263 207.314 257.263 207.841C257.263 208.368 257.69 208.795 258.217 208.795Z" fill="white" fill-opacity="0.5"/>
<path d="M243.653 208.795C244.18 208.795 244.607 208.368 244.607 207.841C244.607 207.314 244.18 206.887 243.653 206.887C243.127 206.887 242.7 207.314 242.7 207.841C242.7 208.368 243.127 208.795 243.653 208.795Z" fill="white" fill-opacity="0.5"/>
<path d="M230.04 207.841C230.04 208.368 229.613 208.795 229.087 208.795C228.56 208.795 228.133 208.368 228.133 207.841C228.133 207.314 228.56 206.887 229.087 206.887C229.613 206.887 230.04 207.314 230.04 207.841Z" fill="white" fill-opacity="0.5"/>
<path d="M215.473 207.841C215.473 208.368 215.047 208.795 214.52 208.795C213.994 208.795 213.567 208.368 213.567 207.841C213.567 207.314 213.994 206.887 214.52 206.887C215.047 206.887 215.473 207.314 215.473 207.841Z" fill="white" fill-opacity="0.5"/>
<path d="M200.907 207.841C200.907 208.368 200.48 208.795 199.953 208.795C199.427 208.795 199 208.368 199 207.841C199 207.314 199.427 206.887 199.953 206.887C200.48 206.887 200.907 207.314 200.907 207.841Z" fill="white" fill-opacity="0.5"/>
<path d="M331.047 198.057C331.573 198.057 332 197.629 332 197.102C332 196.575 331.573 196.148 331.047 196.148C330.52 196.148 330.093 196.575 330.093 197.102C330.093 197.629 330.52 198.057 331.047 198.057Z" fill="white" fill-opacity="0.5"/>
<path d="M316.48 198.057C317.006 198.057 317.433 197.629 317.433 197.102C317.433 196.575 317.006 196.148 316.48 196.148C315.953 196.148 315.527 196.575 315.527 197.102C315.527 197.629 315.953 198.057 316.48 198.057Z" fill="white" fill-opacity="0.5"/>
<path d="M302.867 197.102C302.867 197.629 302.44 198.057 301.913 198.057C301.387 198.057 300.96 197.629 300.96 197.102C300.96 196.575 301.387 196.148 301.913 196.148C302.44 196.152 302.867 196.579 302.867 197.102Z" fill="white" fill-opacity="0.5"/>
<path d="M288.303 197.102C288.303 197.629 287.877 198.057 287.35 198.057C286.824 198.057 286.397 197.629 286.397 197.102C286.397 196.575 286.824 196.148 287.35 196.148C287.877 196.152 288.303 196.579 288.303 197.102Z" fill="white" fill-opacity="0.5"/>
<path d="M273.737 197.102C273.737 197.629 273.31 198.057 272.783 198.057C272.257 198.057 271.83 197.629 271.83 197.102C271.83 196.575 272.257 196.148 272.783 196.148C273.31 196.152 273.737 196.579 273.737 197.102Z" fill="white" fill-opacity="0.5"/>
<path d="M258.217 198.057C258.743 198.057 259.17 197.629 259.17 197.102C259.17 196.575 258.743 196.148 258.217 196.148C257.69 196.148 257.263 196.575 257.263 197.102C257.263 197.629 257.69 198.057 258.217 198.057Z" fill="white" fill-opacity="0.5"/>
<path d="M243.653 198.057C244.18 198.057 244.607 197.629 244.607 197.102C244.607 196.575 244.18 196.148 243.653 196.148C243.127 196.148 242.7 196.575 242.7 197.102C242.7 197.629 243.127 198.057 243.653 198.057Z" fill="white" fill-opacity="0.5"/>
<path d="M230.04 197.102C230.04 197.629 229.613 198.057 229.087 198.057C228.56 198.057 228.133 197.629 228.133 197.102C228.133 196.575 228.56 196.148 229.087 196.148C229.613 196.148 230.04 196.579 230.04 197.102Z" fill="white" fill-opacity="0.5"/>
<path d="M215.473 197.102C215.473 197.629 215.047 198.057 214.52 198.057C213.994 198.057 213.567 197.629 213.567 197.102C213.567 196.575 213.994 196.148 214.52 196.148C215.047 196.152 215.473 196.579 215.473 197.102Z" fill="white" fill-opacity="0.5"/>
<path d="M200.907 197.102C200.907 197.629 200.48 198.057 199.953 198.057C199.427 198.057 199 197.629 199 197.102C199 196.575 199.427 196.148 199.953 196.148C200.48 196.152 200.907 196.579 200.907 197.102Z" fill="white" fill-opacity="0.5"/>
<path d="M332 186.367C332 186.894 331.573 187.322 331.047 187.322C330.52 187.322 330.093 186.894 330.093 186.367C330.093 185.841 330.52 185.413 331.047 185.413C331.573 185.413 332 185.841 332 186.367Z" fill="white" fill-opacity="0.5"/>
<path d="M317.433 186.367C317.433 186.894 317.006 187.322 316.48 187.322C315.953 187.322 315.527 186.894 315.527 186.367C315.527 185.841 315.953 185.413 316.48 185.413C317.006 185.413 317.433 185.841 317.433 186.367Z" fill="white" fill-opacity="0.5"/>
<path d="M302.867 186.367C302.867 186.894 302.44 187.322 301.913 187.322C301.387 187.322 300.96 186.894 300.96 186.367C300.96 185.841 301.387 185.413 301.913 185.413C302.44 185.413 302.867 185.841 302.867 186.367Z" fill="white" fill-opacity="0.5"/>
<path d="M288.303 186.367C288.303 186.894 287.877 187.322 287.35 187.322C286.824 187.322 286.397 186.894 286.397 186.367C286.397 185.841 286.824 185.413 287.35 185.413C287.877 185.413 288.303 185.841 288.303 186.367Z" fill="white" fill-opacity="0.5"/>
<path d="M273.737 186.367C273.737 186.894 273.31 187.322 272.783 187.322C272.257 187.322 271.83 186.894 271.83 186.367C271.83 185.841 272.257 185.413 272.783 185.413C273.31 185.413 273.737 185.841 273.737 186.367Z" fill="white" fill-opacity="0.5"/>
<path d="M259.17 186.367C259.17 186.894 258.743 187.322 258.217 187.322C257.69 187.322 257.263 186.894 257.263 186.367C257.263 185.841 257.69 185.413 258.217 185.413C258.743 185.413 259.17 185.841 259.17 186.367Z" fill="white" fill-opacity="0.5"/>
<path d="M244.603 186.367C244.603 186.894 244.176 187.322 243.65 187.322C243.123 187.322 242.697 186.894 242.697 186.367C242.697 185.841 243.123 185.413 243.65 185.413C244.176 185.413 244.603 185.841 244.603 186.367Z" fill="white" fill-opacity="0.5"/>
<path d="M230.04 186.367C230.04 186.894 229.613 187.322 229.087 187.322C228.56 187.322 228.133 186.894 228.133 186.367C228.133 185.841 228.56 185.413 229.087 185.413C229.613 185.413 230.04 185.841 230.04 186.367Z" fill="white" fill-opacity="0.5"/>
<path d="M215.473 186.367C215.473 186.894 215.047 187.322 214.52 187.322C213.994 187.322 213.567 186.894 213.567 186.367C213.567 185.841 213.994 185.413 214.52 185.413C215.047 185.413 215.473 185.841 215.473 186.367Z" fill="white" fill-opacity="0.5"/>
<path d="M200.907 186.367C200.907 186.894 200.48 187.322 199.953 187.322C199.427 187.322 199 186.894 199 186.367C199 185.841 199.427 185.413 199.953 185.413C200.48 185.413 200.907 185.841 200.907 186.367Z" fill="white" fill-opacity="0.5"/>
<path d="M332 175.633C332 176.159 331.573 176.587 331.047 176.587C330.52 176.587 330.093 176.159 330.093 175.633C330.093 175.106 330.52 174.678 331.047 174.678C331.573 174.678 332 175.106 332 175.633Z" fill="white" fill-opacity="0.5"/>
<path d="M317.433 175.633C317.433 176.159 317.006 176.587 316.48 176.587C315.953 176.587 315.527 176.159 315.527 175.633C315.527 175.106 315.953 174.678 316.48 174.678C317.006 174.678 317.433 175.106 317.433 175.633Z" fill="white" fill-opacity="0.5"/>
<path d="M302.867 175.633C302.867 176.159 302.44 176.587 301.913 176.587C301.387 176.587 300.96 176.159 300.96 175.633C300.96 175.106 301.387 174.678 301.913 174.678C302.44 174.678 302.867 175.106 302.867 175.633Z" fill="white" fill-opacity="0.5"/>
<path d="M288.303 175.633C288.303 176.159 287.877 176.587 287.35 176.587C286.824 176.587 286.397 176.159 286.397 175.633C286.397 175.106 286.824 174.678 287.35 174.678C287.877 174.678 288.303 175.106 288.303 175.633Z" fill="white" fill-opacity="0.5"/>
<path d="M273.737 175.633C273.737 176.159 273.31 176.587 272.783 176.587C272.257 176.587 271.83 176.159 271.83 175.633C271.83 175.106 272.257 174.678 272.783 174.678C273.31 174.678 273.737 175.106 273.737 175.633Z" fill="white" fill-opacity="0.5"/>
<path d="M259.17 175.633C259.17 176.159 258.743 176.587 258.217 176.587C257.69 176.587 257.263 176.159 257.263 175.633C257.263 175.106 257.69 174.678 258.217 174.678C258.743 174.678 259.17 175.106 259.17 175.633Z" fill="white" fill-opacity="0.5"/>
<path d="M244.603 175.633C244.603 176.159 244.176 176.587 243.65 176.587C243.123 176.587 242.697 176.159 242.697 175.633C242.697 175.106 243.123 174.678 243.65 174.678C244.176 174.678 244.603 175.106 244.603 175.633Z" fill="white" fill-opacity="0.5"/>
<path d="M230.04 175.633C230.04 176.159 229.613 176.587 229.087 176.587C228.56 176.587 228.133 176.159 228.133 175.633C228.133 175.106 228.56 174.678 229.087 174.678C229.613 174.678 230.04 175.106 230.04 175.633Z" fill="white" fill-opacity="0.5"/>
<path d="M215.473 175.633C215.473 176.159 215.047 176.587 214.52 176.587C213.994 176.587 213.567 176.159 213.567 175.633C213.567 175.106 213.994 174.678 214.52 174.678C215.047 174.678 215.473 175.106 215.473 175.633Z" fill="white" fill-opacity="0.5"/>
<path d="M200.907 175.633C200.907 176.159 200.48 176.587 199.953 176.587C199.427 176.587 199 176.159 199 175.633C199 175.106 199.427 174.678 199.953 174.678C200.48 174.678 200.907 175.106 200.907 175.633Z" fill="white" fill-opacity="0.5"/>
<path d="M331.047 165.852C331.573 165.852 332 165.425 332 164.898C332 164.371 331.573 163.943 331.047 163.943C330.52 163.943 330.093 164.371 330.093 164.898C330.093 165.425 330.52 165.852 331.047 165.852Z" fill="white" fill-opacity="0.5"/>
<path d="M316.48 165.852C317.006 165.852 317.433 165.425 317.433 164.898C317.433 164.371 317.006 163.943 316.48 163.943C315.953 163.943 315.527 164.371 315.527 164.898C315.527 165.425 315.953 165.852 316.48 165.852Z" fill="white" fill-opacity="0.5"/>
<path d="M302.867 164.898C302.867 165.425 302.44 165.852 301.913 165.852C301.387 165.852 300.96 165.425 300.96 164.898C300.96 164.371 301.387 163.943 301.913 163.943C302.44 163.943 302.867 164.371 302.867 164.898Z" fill="white" fill-opacity="0.5"/>
<path d="M288.303 164.898C288.303 165.425 287.877 165.852 287.35 165.852C286.824 165.852 286.397 165.425 286.397 164.898C286.397 164.371 286.824 163.943 287.35 163.943C287.877 163.943 288.303 164.371 288.303 164.898Z" fill="white" fill-opacity="0.5"/>
<path d="M273.737 164.898C273.737 165.425 273.31 165.852 272.783 165.852C272.257 165.852 271.83 165.425 271.83 164.898C271.83 164.371 272.257 163.943 272.783 163.943C273.31 163.943 273.737 164.371 273.737 164.898Z" fill="white" fill-opacity="0.5"/>
<path d="M258.217 165.852C258.743 165.852 259.17 165.425 259.17 164.898C259.17 164.371 258.743 163.943 258.217 163.943C257.69 163.943 257.263 164.371 257.263 164.898C257.263 165.425 257.69 165.852 258.217 165.852Z" fill="white" fill-opacity="0.5"/>
<path d="M243.653 165.852C244.18 165.852 244.607 165.425 244.607 164.898C244.607 164.371 244.18 163.943 243.653 163.943C243.127 163.943 242.7 164.371 242.7 164.898C242.7 165.425 243.127 165.852 243.653 165.852Z" fill="white" fill-opacity="0.5"/>
<path d="M230.04 164.898C230.04 165.425 229.613 165.852 229.087 165.852C228.56 165.852 228.133 165.425 228.133 164.898C228.133 164.371 228.56 163.943 229.087 163.943C229.613 163.943 230.04 164.371 230.04 164.898Z" fill="white" fill-opacity="0.5"/>
<path d="M215.473 164.898C215.473 165.425 215.047 165.852 214.52 165.852C213.994 165.852 213.567 165.425 213.567 164.898C213.567 164.371 213.994 163.943 214.52 163.943C215.047 163.943 215.473 164.371 215.473 164.898Z" fill="white" fill-opacity="0.5"/>
<path d="M200.907 164.898C200.907 165.425 200.48 165.852 199.953 165.852C199.427 165.852 199 165.425 199 164.898C199 164.371 199.427 163.943 199.953 163.943C200.48 163.943 200.907 164.371 200.907 164.898Z" fill="white" fill-opacity="0.5"/>
<path d="M332 154.163C332 154.69 331.573 155.117 331.047 155.117C330.52 155.117 330.093 154.69 330.093 154.163C330.093 153.636 330.52 153.208 331.047 153.208C331.573 153.208 332 153.636 332 154.163Z" fill="white" fill-opacity="0.5"/>
<path d="M317.433 154.163C317.433 154.69 317.006 155.117 316.48 155.117C315.953 155.117 315.527 154.69 315.527 154.163C315.527 153.636 315.953 153.208 316.48 153.208C317.006 153.208 317.433 153.636 317.433 154.163Z" fill="white" fill-opacity="0.5"/>
<path d="M302.867 154.163C302.867 154.69 302.44 155.117 301.913 155.117C301.387 155.117 300.96 154.69 300.96 154.163C300.96 153.636 301.387 153.208 301.913 153.208C302.44 153.208 302.867 153.636 302.867 154.163Z" fill="white" fill-opacity="0.5"/>
<path d="M288.303 154.163C288.303 154.69 287.877 155.117 287.35 155.117C286.824 155.117 286.397 154.69 286.397 154.163C286.397 153.636 286.824 153.208 287.35 153.208C287.877 153.208 288.303 153.636 288.303 154.163Z" fill="white" fill-opacity="0.5"/>
<path d="M273.737 154.163C273.737 154.69 273.31 155.117 272.783 155.117C272.257 155.117 271.83 154.69 271.83 154.163C271.83 153.636 272.257 153.208 272.783 153.208C273.31 153.208 273.737 153.636 273.737 154.163Z" fill="white" fill-opacity="0.5"/>
<path d="M259.17 154.163C259.17 154.69 258.743 155.117 258.217 155.117C257.69 155.117 257.263 154.69 257.263 154.163C257.263 153.636 257.69 153.208 258.217 153.208C258.743 153.208 259.17 153.636 259.17 154.163Z" fill="white" fill-opacity="0.5"/>
<path d="M244.603 154.163C244.603 154.69 244.176 155.117 243.65 155.117C243.123 155.117 242.697 154.69 242.697 154.163C242.697 153.636 243.123 153.208 243.65 153.208C244.176 153.208 244.603 153.636 244.603 154.163Z" fill="white" fill-opacity="0.5"/>
<path d="M230.04 154.163C230.04 154.69 229.613 155.117 229.087 155.117C228.56 155.117 228.133 154.69 228.133 154.163C228.133 153.636 228.56 153.208 229.087 153.208C229.613 153.208 230.04 153.636 230.04 154.163Z" fill="white" fill-opacity="0.5"/>
<path d="M215.473 154.163C215.473 154.69 215.047 155.117 214.52 155.117C213.994 155.117 213.567 154.69 213.567 154.163C213.567 153.636 213.994 153.208 214.52 153.208C215.047 153.208 215.473 153.636 215.473 154.163Z" fill="white" fill-opacity="0.5"/>
<path d="M200.907 154.163C200.907 154.69 200.48 155.117 199.953 155.117C199.427 155.117 199 154.69 199 154.163C199 153.636 199.427 153.208 199.953 153.208C200.48 153.208 200.907 153.636 200.907 154.163Z" fill="white" fill-opacity="0.5"/>
<path d="M332 143.428C332 143.955 331.573 144.382 331.047 144.382C330.52 144.382 330.093 143.955 330.093 143.428C330.093 142.901 330.52 142.473 331.047 142.473C331.573 142.473 332 142.901 332 143.428Z" fill="white" fill-opacity="0.5"/>
<path d="M317.433 143.428C317.433 143.955 317.006 144.382 316.48 144.382C315.953 144.382 315.527 143.955 315.527 143.428C315.527 142.901 315.953 142.473 316.48 142.473C317.006 142.473 317.433 142.901 317.433 143.428Z" fill="white" fill-opacity="0.5"/>
<path d="M302.867 143.428C302.867 143.955 302.44 144.382 301.913 144.382C301.387 144.382 300.96 143.955 300.96 143.428C300.96 142.901 301.387 142.473 301.913 142.473C302.44 142.473 302.867 142.901 302.867 143.428Z" fill="white" fill-opacity="0.5"/>
<path d="M288.303 143.428C288.303 143.955 287.877 144.382 287.35 144.382C286.824 144.382 286.397 143.955 286.397 143.428C286.397 142.901 286.824 142.473 287.35 142.473C287.877 142.473 288.303 142.901 288.303 143.428Z" fill="white" fill-opacity="0.5"/>
<path d="M273.737 143.428C273.737 143.955 273.31 144.382 272.783 144.382C272.257 144.382 271.83 143.955 271.83 143.428C271.83 142.901 272.257 142.473 272.783 142.473C273.31 142.473 273.737 142.901 273.737 143.428Z" fill="white" fill-opacity="0.5"/>
<path d="M259.17 143.428C259.17 143.955 258.743 144.382 258.217 144.382C257.69 144.382 257.263 143.955 257.263 143.428C257.263 142.901 257.69 142.473 258.217 142.473C258.743 142.473 259.17 142.901 259.17 143.428Z" fill="white" fill-opacity="0.5"/>
<path d="M244.603 143.428C244.603 143.955 244.176 144.382 243.65 144.382C243.123 144.382 242.697 143.955 242.697 143.428C242.697 142.901 243.123 142.473 243.65 142.473C244.176 142.473 244.603 142.901 244.603 143.428Z" fill="white" fill-opacity="0.5"/>
<path d="M230.04 143.428C230.04 143.955 229.613 144.382 229.087 144.382C228.56 144.382 228.133 143.955 228.133 143.428C228.133 142.901 228.56 142.473 229.087 142.473C229.613 142.473 230.04 142.901 230.04 143.428Z" fill="white" fill-opacity="0.5"/>
<path d="M215.473 143.428C215.473 143.955 215.047 144.382 214.52 144.382C213.994 144.382 213.567 143.955 213.567 143.428C213.567 142.901 213.994 142.473 214.52 142.473C215.047 142.473 215.473 142.901 215.473 143.428Z" fill="white" fill-opacity="0.5"/>
<path d="M200.907 143.428C200.907 143.955 200.48 144.382 199.953 144.382C199.427 144.382 199 143.955 199 143.428C199 142.901 199.427 142.473 199.953 142.473C200.48 142.473 200.907 142.901 200.907 143.428Z" fill="white" fill-opacity="0.5"/>
<path d="M332 132.693C332 133.22 331.573 133.647 331.047 133.647C330.52 133.647 330.093 133.22 330.093 132.693C330.093 132.166 330.52 131.739 331.047 131.739C331.573 131.739 332 132.166 332 132.693Z" fill="white" fill-opacity="0.5"/>
<path d="M317.433 132.693C317.433 133.22 317.006 133.647 316.48 133.647C315.953 133.647 315.527 133.22 315.527 132.693C315.527 132.166 315.953 131.739 316.48 131.739C317.006 131.739 317.433 132.166 317.433 132.693Z" fill="white" fill-opacity="0.5"/>
<path d="M302.867 132.693C302.867 133.22 302.44 133.647 301.913 133.647C301.387 133.647 300.96 133.22 300.96 132.693C300.96 132.166 301.387 131.739 301.913 131.739C302.44 131.739 302.867 132.166 302.867 132.693Z" fill="white" fill-opacity="0.5"/>
<path d="M288.303 132.693C288.303 133.22 287.877 133.647 287.35 133.647C286.824 133.647 286.397 133.22 286.397 132.693C286.397 132.166 286.824 131.739 287.35 131.739C287.877 131.739 288.303 132.166 288.303 132.693Z" fill="white" fill-opacity="0.5"/>
<path d="M273.737 132.693C273.737 133.22 273.31 133.647 272.783 133.647C272.257 133.647 271.83 133.22 271.83 132.693C271.83 132.166 272.257 131.739 272.783 131.739C273.31 131.739 273.737 132.166 273.737 132.693Z" fill="white" fill-opacity="0.5"/>
<path d="M259.17 132.693C259.17 133.22 258.743 133.647 258.217 133.647C257.69 133.647 257.263 133.22 257.263 132.693C257.263 132.166 257.69 131.739 258.217 131.739C258.743 131.739 259.17 132.166 259.17 132.693Z" fill="white" fill-opacity="0.5"/>
<path d="M244.603 132.693C244.603 133.22 244.176 133.647 243.65 133.647C243.123 133.647 242.697 133.22 242.697 132.693C242.697 132.166 243.123 131.739 243.65 131.739C244.176 131.739 244.603 132.166 244.603 132.693Z" fill="white" fill-opacity="0.5"/>
<path d="M230.04 132.693C230.04 133.22 229.613 133.647 229.087 133.647C228.56 133.647 228.133 133.22 228.133 132.693C228.133 132.166 228.56 131.739 229.087 131.739C229.613 131.739 230.04 132.166 230.04 132.693Z" fill="white" fill-opacity="0.5"/>
<path d="M215.473 132.693C215.473 133.22 215.047 133.647 214.52 133.647C213.994 133.647 213.567 133.22 213.567 132.693C213.567 132.166 213.994 131.739 214.52 131.739C215.047 131.739 215.473 132.166 215.473 132.693Z" fill="white" fill-opacity="0.5"/>
<path d="M200.907 132.693C200.907 133.22 200.48 133.647 199.953 133.647C199.427 133.647 199 133.22 199 132.693C199 132.166 199.427 131.739 199.953 131.739C200.48 131.739 200.907 132.166 200.907 132.693Z" fill="white" fill-opacity="0.5"/>
<path d="M331.047 122.908C331.573 122.908 332 122.481 332 121.954C332 121.427 331.573 121 331.047 121C330.52 121 330.093 121.427 330.093 121.954C330.093 122.481 330.52 122.908 331.047 122.908Z" fill="white" fill-opacity="0.5"/>
<path d="M316.48 122.908C317.006 122.908 317.433 122.481 317.433 121.954C317.433 121.427 317.006 121 316.48 121C315.953 121 315.527 121.427 315.527 121.954C315.527 122.481 315.953 122.908 316.48 122.908Z" fill="white" fill-opacity="0.5"/>
<path d="M302.867 121.954C302.867 122.481 302.44 122.908 301.913 122.908C301.387 122.908 300.96 122.481 300.96 121.954C300.96 121.427 301.387 121 301.913 121C302.44 121.004 302.867 121.427 302.867 121.954Z" fill="white" fill-opacity="0.5"/>
<path d="M288.303 121.954C288.303 122.481 287.877 122.908 287.35 122.908C286.824 122.908 286.397 122.481 286.397 121.954C286.397 121.427 286.824 121 287.35 121C287.877 121.004 288.303 121.427 288.303 121.954Z" fill="white" fill-opacity="0.5"/>
<path d="M273.737 121.954C273.737 122.481 273.31 122.908 272.783 122.908C272.257 122.908 271.83 122.481 271.83 121.954C271.83 121.427 272.257 121 272.783 121C273.31 121.004 273.737 121.427 273.737 121.954Z" fill="white" fill-opacity="0.5"/>
<path d="M258.217 122.908C258.743 122.908 259.17 122.481 259.17 121.954C259.17 121.427 258.743 121 258.217 121C257.69 121 257.263 121.427 257.263 121.954C257.263 122.481 257.69 122.908 258.217 122.908Z" fill="white" fill-opacity="0.5"/>
<path d="M243.653 122.908C244.18 122.908 244.607 122.481 244.607 121.954C244.607 121.427 244.18 121 243.653 121C243.127 121 242.7 121.427 242.7 121.954C242.7 122.481 243.127 122.908 243.653 122.908Z" fill="white" fill-opacity="0.5"/>
<path d="M230.04 121.954C230.04 122.481 229.613 122.908 229.087 122.908C228.56 122.908 228.133 122.481 228.133 121.954C228.133 121.427 228.56 121 229.087 121C229.613 121 230.04 121.427 230.04 121.954Z" fill="white" fill-opacity="0.5"/>
<path d="M215.473 121.954C215.473 122.481 215.047 122.908 214.52 122.908C213.994 122.908 213.567 122.481 213.567 121.954C213.567 121.427 213.994 121 214.52 121C215.047 121.004 215.473 121.427 215.473 121.954Z" fill="white" fill-opacity="0.5"/>
<path d="M200.907 121.954C200.907 122.481 200.48 122.908 199.953 122.908C199.427 122.908 199 122.481 199 121.954C199 121.427 199.427 121 199.953 121C200.48 121.004 200.907 121.427 200.907 121.954Z" fill="white" fill-opacity="0.5"/>
</g>
</svg>
